<?xml version="1.0" standalone="no"?>
<!DOCTYPE svg PUBLIC "-//W3C//DTD SVG 1.1//EN" "http://www.w3.org/Graphics/SVG/1.1/DTD/svg11.dtd" >
<svg xmlns="http://www.w3.org/2000/svg">
<metadata></metadata>
<defs>
<font id="betterflynarrow" horiz-adv-x="1228" >
<font-face units-per-em="2048" ascent="1638" descent="-410" />
<missing-glyph horiz-adv-x="409" />
<glyph horiz-adv-x="0" />
<glyph horiz-adv-x="682" />
<glyph unicode=" "  horiz-adv-x="409" />
<glyph unicode="&#x09;" horiz-adv-x="409" />
<glyph unicode="&#xa0;" horiz-adv-x="409" />
<glyph unicode="!" horiz-adv-x="231" d="M64.5 11q-0.5 14 9.5 30q2 0 12.5 4t13.5 2q6 0 16 3.5t18 2.5t16 -10q3 0 7.5 -4.5t7 -15.5t-6.5 -29l-2 -2q3 -2 -13 -15l-2 -2q0 -6 -20 -6q-7 -3 -12 2q-7 4 -11 4.5t-5 0t-7 2.5t-18 12q-3 7 -3.5 21zM70 141q-1 3 4 145.5t4 145.5l-2 302q2 323 24 333q33 0 33 -6 q-1 -1 1.5 -1t4.5 1q4 0 8 2q12 0 13 -150.5t1 -307.5t9 -167v-22q-1 -22 -1.5 -55.5t-1 -71t-1 -76t-0.5 -63.5q0 -17 -19 -29t-30 -8q-9 0 -19 10q-24 10 -28 18z" />
<glyph unicode="&#x22;" horiz-adv-x="368" d="M96 1084.5q0 56.5 4 172.5q0 5 0.5 25.5t1.5 30.5t4 27t8.5 28.5t14.5 20.5q15 17 34 -3q21 -22 15 -59q-44 -231 -4 -313q2 -5 -0.5 -13.5t-1.5 -11.5q2 -6 -5.5 -10t-16 -4t-13.5 2q-3 2 -13.5 5t-12.5 9q-3 11 -7.5 14.5t-6 13t-1.5 66zM287 1084q0 56 4 173 q0 6 0.5 25.5t1.5 30.5t3.5 27t8 28t14.5 21q15 17 34 -3q22 -22 16 -59q-44 -231 -4 -313q2 -5 -1 -13.5t-2 -11.5q3 -8 -12.5 -12.5t-21.5 0.5q-3 2 -14 5t-13 9q-3 11 -7 14.5t-5.5 13t-1.5 65.5z" />
<glyph unicode="#" horiz-adv-x="684" d="M84 713q0 14 8 22q3 2 57 -3t58 -1q8 8 8 80q11 66 31 170l8 20q0 3 3 4t4 -4q1 -2 1 -4q0 -10 8 -2q2 4 6 2q5 0 8 -1t5 -3.5t2.5 -5t1.5 -8.5q0 -7 8 -3t14 -3q7 -11 1 -63.5t-13 -112.5t-4 -60q2 -1 54.5 -0.5t54.5 2.5q3 3 9.5 64.5t6.5 66.5l2 13q11 101 16 106 q0 13 13 19q30 0 44 -9.5t15 -32.5t-3.5 -49t-10.5 -73t-6 -90q2 -2 24 2q13 4 39 -13q18 -6 25.5 -11t8.5 -8.5t1 -14.5q3 -19 -7.5 -24t-35.5 -5q-14 1 -24 1t-17 -0.5t-12 -3.5t-7.5 -5t-4 -7.5t-1.5 -8.5t-0.5 -10.5t-1.5 -12.5q0 -12 -0.5 -24.5t-1.5 -19.5t-1 -13 t2 -8.5t5 -2.5l26 4q26 1 42 -8q9 0 26 -11t17 -18l2 -4q2 0 4.5 -6.5t1.5 -9.5q-3 -6 -31 -20h-4q-6 -4 -27.5 -1.5t-45 0.5t-23.5 -14v-2l-2 -2l1 -2q2 1 2 -2q2 -11 -7 -74q-3 -8 -3.5 -33.5t-2 -77t-4.5 -102.5l-4 -6q-21 -11 -33 -13t-15.5 1.5t-8.5 7.5t-13 4 q-10 0 -13.5 21t-0.5 55.5t7.5 71t8.5 77.5t4 64q3 15 0.5 17.5t-14.5 -0.5q-22 -5 -41 -5l-8 -1q-8 -2 -20.5 -3.5t-22.5 -1.5q-4 -3 -8.5 -69t-7 -131t-3.5 -66q-14 -14 -31.5 -15.5t-25.5 5.5q-4 4 -11.5 4.5t-13.5 5.5q-8 9 -8.5 36t3 77.5t3.5 80.5q8 46 5.5 58.5 t-14.5 7t-28 2.5q-10 4 -24 15.5t-19 19.5q-3 7 2 20.5t13 18.5q3 1 6.5 1t7 -0.5t14 -1.5t23.5 -1h12t8.5 1t5 1.5t3 2.5t1.5 3t0.5 5t0.5 5q0 32 5 70q3 26 -2.5 30.5t-39.5 4.5h-8q-11 4 -17 4.5t-12 3.5q-2 2 -13 9.5t-18.5 16t-7.5 17.5zM286 559q0 -7 1 -8 q0 -3 46.5 2t61.5 8q2 2 5 52.5t-1 54.5l-4 2q-42 0 -61.5 -0.5t-30 -4t-11.5 -6.5t-1 -12z" />
<glyph unicode="$" horiz-adv-x="497" d="M47 881q7 18 29.5 47.5t56.5 52.5q2 1 12.5 5t12.5 7q7 12 3 35.5t0.5 51t22.5 32.5q10 3 22.5 -8t16.5 -12q18 -4 20.5 -28.5t-2 -45.5t4.5 -31q37 -25 39 -49q14 -67 -11 -93q-18 -18 -35 2q-19 24 -14 79q-24 3 -62 -37t-34 -68q0 -30 12 -43t41 -28.5t51 -38.5 q14 -6 20.5 -18t22.5 -25q40 -26 63.5 -110.5t29.5 -186.5t5.5 -202t-5.5 -167t-7 -70q-16 -27 -18 -44.5t-14 -31.5t-66 -57q-2 -2 -2.5 -4t-0.5 -3t1 -4t2 -5q5 -22 -2 -53q-7 -29 -26 -36t-36 5.5t-20 32.5q0 2 0.5 12.5t1 19t-1 17t-4.5 10.5q-3 3 -12.5 6t-11.5 4 q-49 33 -73 87.5t1 101.5q3 5 7 6t9.5 -1t9.5 -4t10 -6t7 -5q12 -7 18 -17t7 -15t1.5 -23t0.5 -23q0 -19 9.5 -29.5t28.5 -3.5q42 15 59 33t29 61q5 13 11.5 106.5t6 213.5t-27.5 232t-82 144q-56 28 -94 66q-26 28 -38.5 77t-4.5 79z" />
<glyph unicode="%" horiz-adv-x="602" d="M70 33q-6 -22 5 -32l1 -1q24 -23 46 -24t28 -5q18 28 187.5 502.5t197.5 532.5q-9 -2 -19 6t-18 4l-17 31q-11 -2 -33.5 -46t-47 -106.5t-46.5 -123.5t-38 -108t-17 -49q-83 -214 -174 -439q-49 -120 -55 -142zM70 872q10 -68 65 -97t105 -3q51 25 80.5 58t36 63 t3.5 56.5t-11.5 43t-14.5 17.5q-8 2 -23.5 12t-25.5 10q-10 1 -27 11t-22 12q-50 16 -114 -39t-52 -144zM168 856q-12 18 0 55q7 26 21.5 39.5t52.5 32.5q35 -3 25 -42q-11 -40 -50 -68q-25 -17 -49 -17zM292 56.5q14 -67.5 71.5 -97.5t107.5 -12q20 7 26.5 10t15 6t12.5 8 t7 7.5t11.5 14.5t13.5 19q20 29 23.5 77.5t-7.5 78.5q-5 20 -40.5 42.5t-40.5 29.5q-28 32 -58 24q-44 8 -74 -31q-82 -109 -68 -176.5zM389 57q-6 25 12 65.5t50 61.5l38 -18q12 -74 -34 -115q-30 -27 -53 -14q-10 6 -13 20z" />
<glyph unicode="&#x26;" horiz-adv-x="759" d="M35 270q5 59 5.5 146t3 141t13.5 118.5t41 117.5t80 100q16 13 37 27q15 10 15.5 15t-13.5 22q-3 4 -4 6q-29 40 -42 89t-10 90t17 70q3 7 45 41.5t45 30.5q2 -2 17 -0.5t20 -1.5q4 -3 8 -3.5t8 0t9 -0.5q53 -9 88 -60.5t28 -109.5q-1 -7 -2.5 -28.5t-4.5 -37t-9 -24.5 q-11 -14 -33 -13.5t-35 11.5q-7 14 -6.5 23t5.5 29.5t6 25.5q2 26 -1.5 53.5t-17 49t-35.5 15.5q-7 -2 -20.5 -13.5t-20.5 -12.5q-1 0 -7.5 -7.5t-6.5 -9.5q1 -2 -2.5 -7t-3.5 -7q-4 -7 -4 -33.5t2 -40.5q7 -58 25 -88q26 -42 83 -67q2 -4 11 -11t10 -14q0 -1 2 -6l3 -7.5 t2 -8.5t0 -8.5t-3.5 -7.5t-8 -5.5t-13.5 -2.5t-21 1q-8 0 -27 10.5t-37.5 5.5t-44.5 -36q-2 -2 -9.5 -12.5t-14.5 -18.5t-10 -8q-12 0 -31 -44t-33 -141t-6 -211l-7 -91q-11 -269 82 -372q15 -15 31 -26q2 -1 22.5 -11.5t31.5 -14.5t30 -4t35 9q10 5 18 10.5t15 11.5 t11.5 10t8.5 12t6.5 11t5.5 13t4 13t4.5 15t4.5 15q4 -2 6.5 27.5t1 59t-7.5 28.5q-4 -1 -10 -6t-12 -12.5t-7 -8.5q-6 -7 -12 -26.5t-8 -22.5q-9 -21 -37 -16t-31 26q-8 56 19 92t90 80q1 1 12 8t21 13.5t10 9.5t14 12.5t31 20.5t22 16q21 21 25 21q9 3 39.5 37.5 t57.5 68.5l26 33q18 8 53 87t35 101q0 31 -13.5 87t-33.5 53q-20 -2 -31 2.5t-12.5 13.5t-0.5 16.5t5 17t4 11.5q2 5 5 7.5t6 3.5t7.5 3t8.5 4q4 4 30.5 -7.5t26.5 -16.5q6 -6 16.5 -17.5t32 -51t31.5 -83.5q15 -57 -13 -133t-81 -146t-114 -130t-116 -97q-17 -10 -21 -21 t-0.5 -21t10 -32t7.5 -46q0 -16 -4.5 -43t-5.5 -39q-8 -72 -33 -101q-54 -57 -102 -73q-58 -19 -120.5 5.5t-113.5 71.5q-36 31 -60.5 87.5t-34 116t-12.5 105t-1 72.5z" />
<glyph unicode="'" horiz-adv-x="163" d="M80 1056.5q1 27.5 2 73t6 117.5q0 6 0.5 25.5t1.5 30t3.5 27t8 29t13.5 21.5q8 8 20 5t17 -13q16 -29 12 -53q-15 -98 -19.5 -159.5t-4 -77.5t9.5 -44.5t10 -33.5q2 -4 -0.5 -12.5t-1.5 -10.5q3 -8 -12.5 -13t-20.5 -1q-4 3 -17.5 11.5t-15 13t-7.5 21t-5 44z" />
<glyph unicode="(" horiz-adv-x="200" d="M-4 598q0 3 2.5 26.5t3.5 24.5q-2 1 12 62q5 34 23 106t18 92q1 0 14 33.5t13 36.5q0 46 40 72q33 22 51 4q24 -25 -15 -103q-8 -21 -21 -77.5t-22 -103t-9 -50.5q-2 -4 -9 -36t-13 -95.5t-6 -138.5t15.5 -176t47.5 -197l11 -23q10 -23 10 -28q12 -54 -16 -66 q-25 -11 -53 22q-11 13 -19 31q-4 14 -6 15q-45 92 -69 288t-3 281z" />
<glyph unicode=")" horiz-adv-x="247" d="M66 -3q-25 24 14 103q9 21 21.5 78t21 103.5t8.5 50.5q4 4 11 38t12 98t4 139.5t-17 175t-47 192.5q0 2 -4.5 13t-9.5 23.5t-6 14.5q-12 54 16 66q25 10 53 -23q11 -13 19 -31q4 -12 6 -14q47 -92 70.5 -291.5t3.5 -277.5q0 -3 -2.5 -27t-3.5 -25l-9 -47q-2 -6 -4 -14 q-4 -36 -22.5 -108t-18.5 -91q-26 -65 -26 -69q0 -46 -39 -73q-32 -22 -51 -4z" />
<glyph unicode="*" horiz-adv-x="630" d="M107.5 1252q-1.5 16 0.5 29t7 13q4 0 10 3t10 3t15 -5.5t14 -8.5q1 1 11.5 -11.5t10.5 -14.5q0 -7 16 -31t32.5 -44t17.5 -20q0 201 14 224q1 2 10 7.5t9 6.5q0 7 23 -9l5 -5q3 -5 9.5 -11t9 -10t4.5 -17t-4 -32q-8 -44 -8 -113q0 -22 1 -22q3 0 17 18q11 13 39 51 q36 52 75 72t60 -25q5 -15 -5 -30t-30 -30.5t-56 -54.5t-69 -89q-20 -20 -18 -25q58 -58 104 -90q11 -8 28 -19q40 -28 44 -36q1 -2 3 -8q3 -8 5 -13q1 -1 3 -4.5t3.5 -6.5t1.5 -5t-3 -4t-3 -4q0 -10 -12 -20t-18 -7q-9 9 -11 8q-4 -3 -12.5 4.5t-17.5 17.5t-11 11 q-3 3 -30.5 24t-52.5 40.5t-25 21.5q-1 -10 0 -17t4.5 -21t3.5 -17q11 -74 14.5 -127t1 -78t-7.5 -39.5t-11 -16.5t-10.5 -4.5t-4.5 -7.5q0 -3 -14.5 2t-27 24.5t-8.5 51.5q8 58 6 110.5t-8 88.5l-6 37q-4 -3 -26 -48t-27 -57q-7 -31 -21 -39t-27.5 1.5t-23.5 23.5t-10 24 q0 13 11.5 33.5t28 48t24.5 45.5q9 17 21 34t16.5 24t4.5 15.5t-8 17.5q-39 45 -60.5 73.5t-24 34.5t-8 12t-21.5 19q-6 7 -7.5 23z" />
<glyph unicode="+" d="M205.5 523q-4.5 15 9.5 28q14 4 21.5 4t25 -4t21.5 -4q38 -5 78.5 -5.5t90 1.5t142.5 0q0 15 -4 39q-11 95 -12.5 160t2 88t9.5 42.5t7 24.5q0 13 24 27t39 -4q5 -8 5 -20.5t-2.5 -27.5t-2.5 -20q-2 -52 -1.5 -74t7 -105.5t9.5 -131.5q62 0 145 -6q15 -1 46.5 -7 t47.5 -7.5t45 1.5q3 0 12 2t13.5 2t11 -1.5t11.5 -6.5q33 -33 28 -47q-1 -3 -0.5 -11t-1.5 -11q-4 -11 -30 -9t-39 -2q-3 0 -8.5 1.5t-12.5 3.5t-10 3q-40 0 -69.5 6.5t-43.5 6.5q-41 7 -143 4q0 -97 -4 -148q0 -16 -3.5 -46.5t-4 -47.5t3.5 -45q0 -4 2 -12t3 -12.5 t-0.5 -11t-6.5 -11.5q-30 -36 -45 -31q-16 0 -24 5t-11 17t-1.5 31t4.5 47t6 66t4 87.5t-1 111.5q-280 -4 -322 8q-4 1 -19.5 7t-23.5 7q-5 2 -14 12.5t-13.5 25.5z" />
<glyph unicode="," horiz-adv-x="204" d="M53 72q-3 12 2 26t17 15q26 6 57 -21q16 -16 27 -45q21 -90 -25 -131q-10 -10 -34.5 -15t-28.5 11q0 14 5 41.5t5 42.5q-1 16 -12 40.5t-13 35.5z" />
<glyph unicode="-" horiz-adv-x="653" d="M178 563q8 10 29 4q18 -3 70.5 0t96.5 7.5t44 5.5q1 2 7 2t13 -1t8 -1q56 0 74 -38q13 -29 -6 -45q-17 -14 -47 1q-18 10 -142 -3t-137 9q-33 29 -10 59z" />
<glyph unicode="." horiz-adv-x="161" d="M33 53q-5 24 2 33q14 14 14 16t4.5 3.5t5.5 3.5q3 3 8.5 0.5t12.5 -7.5l8 -4q16 4 33 -30q5 -8 9 -23t-3 -20q-1 0 -9 -8.5t-15.5 -13.5t-10.5 -1q-2 4 -19 9t-20 14q-2 2 -6.5 7.5t-8 10.5t-5.5 10z" />
<glyph unicode="/" horiz-adv-x="845" d="M53 -164q-2 17 17.5 41t21.5 29q22 40 166 391q228 456 350 782q20 55 51 118.5t54 82.5q87 56 83 1q-3 -36 -44 -112q-38 -75 -72 -168q-22 -54 -187 -404.5t-241 -555.5q-5 -15 -17.5 -46.5t-23.5 -56.5t-12 -26q-9 -14 -15.5 -40.5t-19 -44.5t-41.5 -30q-16 -6 -35 13 q-3 3 -18 6t-17 20z" />
<glyph unicode="0" horiz-adv-x="491" d="M94 152.5v119.5q3 36 5 102.5t4.5 127.5t7 134t15 134.5t27 117t45 94t66.5 52.5q26 10 55.5 -1t49.5 -34l10 -18q1 -5 8.5 -12.5t9.5 -12.5q1 -2 10.5 -6t18.5 -12t12 -20q13 -42 15.5 -99.5t-1 -162t-3.5 -154.5q0 -17 -6 -47.5t-7 -44.5v-30.5t-2 -60t-14 -108 t-33 -178.5q-4 -15 -13 -34t-9 -24q3 -14 -13 -48.5t-33 -51.5q-29 -29 -46.5 -37t-37.5 -3t-22 5q-3 -3 -14 8q0 1 -8 3.5t-20 9.5t-25 19t-24.5 36.5t-15.5 56.5q-2 25 -4 39t-3 16t-2 7.5t-1.5 13.5t-1 34t-0.5 69.5zM189 99q3 -75 22 -144q0 -40 33 -6q25 25 26 37 q-1 5 12.5 28t16.5 43q10 23 10 47q1 25 12.5 61t22 93t10.5 139q0 29 8 71.5t5 86.5q-1 21 -1 112t-2.5 166t-9.5 85q-4 4 -7.5 13.5t-0.5 12.5q-3 -3 -18 12q-40 21 -74 -74q-51 -139 -59 -399q-3 -80 0 -155q1 -19 -4 -86.5t-2 -142.5z" />
<glyph unicode="1" horiz-adv-x="440" d="M64 903.5q3 9.5 17 24.5t40 33q3 2 12.5 11.5t18.5 16.5t14 8q3 0 19.5 16t15.5 19q-2 3 4 6.5t13 5.5l7 3q0 1 10.5 -2.5l21 -7t11.5 -3.5q7 0 14 -7.5t11.5 -16t5.5 -9.5q-7 -13 -23 -344q-1 -36 6 -250t7 -333q0 -2 2.5 -25.5t-1.5 -41.5t-20 -23q-5 -1 -12 -5t-16 -2 q-24 8 -36.5 17.5t-16 22t-3 23t3.5 30t3 34.5q2 42 -0.5 152.5t-2.5 179.5q0 90 6 425q0 38 -4 38l-14 -16q-15 -17 -31 -21q-4 0 -5.5 -4t-6.5 -2q-6 4 -13.5 0.5t-8.5 -2.5q-3 2 -15 8t-18.5 10t-12.5 13t-3 18.5z" />
<glyph unicode="2" horiz-adv-x="413" d="M-57 -45q-8 7 87.5 283.5t129.5 357.5l5 10t11 23.5t16 36t18 43t18.5 49t15 50t11.5 50t4 44.5t-5 38q-9 24 -54 -21q-26 -26 -26 -34q0 -5 -18.5 -22.5t-28.5 -18.5q-4 0 -12 8h-5q-6 1 -13 9t-15 28q-4 29 36 79t70 60q5 2 22 2.5t21 3.5q8 5 28.5 -6.5t31.5 -11.5 q6 -1 13 -8.5t9 -8.5q9 0 20 -15.5t13 -25.5q25 -60 1 -161.5t-62.5 -190t-74.5 -168.5t-36 -98l-76 -252q-5 -10 -11 -31.5t-9 -42t6 -24.5q20 -7 51 0q12 2 45.5 5.5t70 -12t36.5 -46.5q0 -6 -4 -10.5t-11 -8t-10 -6.5q-5 -5 -12 -6.5t-20 -0.5t-15 1q-22 1 -62.5 -3.5 t-58.5 -4.5q-8 4 -57 -1t-53 7q-1 1 -11.5 9.5t-19 16t-4.5 9.5q-4 14 -6 16zM14 -102q1 -1 4 2q1 1 0 2q-2 -1 -4 -4z" />
<glyph unicode="3" horiz-adv-x="464" d="M43 -82q-8 50 5.5 68t57.5 0q23 -14 28 -25t5 -35q1 -5 4.5 -15t3.5 -15q0 -3 4.5 -6t9.5 -5l5 -2q0 -1 4 -1t4 -1q1 -2 7 2.5t11.5 11t6.5 9.5q6 9 10.5 18t8 22.5t6.5 24t6.5 31.5t5.5 35.5t6.5 44.5t7.5 51q9 75 11 120.5t-0.5 87t-2.5 56.5q1 18 4 58q11 152 -3 175 q-10 15 -30 -5q-20 -19 -56.5 -13.5t-45.5 27.5l-6 12t-4.5 10.5t-1.5 11.5t2 15q0 1 2 8t4 11.5t6 3.5q9 -4 82.5 115t67.5 124q-1 2 -22 -2.5t-42.5 -8.5t-24.5 -1l-36 25q-24 24 -13 43q3 6 10 10.5t13.5 6t16.5 3t14 2.5q42 8 43 8q11 -3 44 5.5t57 12.5t46 -12 q10 -10 14 -10q9 2 16 -10t9 -26.5t0 -20.5q-7 -14 -39 -55q-32 -45 -56 -89t-32 -55q-12 -12 -16.5 -20.5t-4.5 -11t6 -6.5l5 -3q46 -33 58.5 -54.5t19.5 -94.5q6 -46 -0.5 -119t-2.5 -166q4 -41 -7.5 -171.5t-18.5 -145.5q-1 -2 -8 -42t-25 -78t-53 -63q-30 -10 -33 -8 l-9 2q-8 2 -21.5 5.5t-30 9.5t-34 16t-33.5 22.5t-28 31t-18 40.5z" />
<glyph unicode="4" horiz-adv-x="409" d="M-25 390.5q2 14.5 7.5 25.5t14.5 25.5t11 21.5q3 15 9.5 31t17.5 37.5t14 29.5q7 16 16.5 55.5t18.5 57.5q18 31 47 121.5t55.5 163t44.5 79.5q12 7 34 -17.5t24 -37.5q6 -17 -9.5 -51t-15.5 -35q1 -7 -1.5 -16.5t-9.5 -25.5t-7 -17q-14 -43 -25 -86t-17.5 -62t-17.5 -35 q-5 -7 -9.5 -27.5t-10.5 -27.5q-4 -7 -4 -24.5t-4 -24.5l-39 -107q22 -2 45 3.5t37 11t29.5 5t27.5 -12.5q1 0 1 14v28.5t1 16.5q5 11 0 37q0 6 1 18.5t1 18.5q1 26 -0.5 74.5t-1.5 64.5q0 15 12 21.5t26.5 2.5t23.5 -14q2 -2 8.5 -2.5t7.5 -1.5q9 -4 14 -12t6 -23.5 t0.5 -29.5t-1.5 -42.5t-1 -50.5q0 -724 -8 -694q-1 -4 1 -23.5t0 -33.5t-11 -17q-3 -1 -5.5 -5t-6.5 -5q-28 -6 -35 -4q-32 13 -42.5 34.5t-4.5 55.5q0 -2 2.5 49.5t5.5 121.5t5 142.5t1 122.5t-6 50q-35 6 -76.5 -1t-63.5 -15.5t-28 -12.5q-2 -2 -11 -5.5t-17.5 -5.5 t-8.5 -1q2 0 2 2q-1 2 -6.5 2t-10 -0.5t-5.5 0.5q-17 8 -19 8q-3 0 -8 7.5t-10 16t-6 9.5q-11 7 -9 21.5z" />
<glyph unicode="5" horiz-adv-x="503" d="M76 596q-2 14 9.5 45t12.5 35q13 44 30.5 173.5t23.5 143.5l11 13h1q0 9 23 -4q5 -3 6 -5q5 -5 7 -2.5t6 8t7 5.5q15 3 62 8t71 12q6 2 23.5 -0.5t17.5 -9.5q0 -4 6.5 -7.5t14 -7t8.5 -4.5q15 -17 17 -35t-17 -32q-7 -4 -16.5 -5t-23 0t-16.5 1q-2 0 -21 -1.5t-38.5 -3 t-38.5 -0.5t-24 5q-6 8 -8 -7q0 -5 -1 -17q-5 -46 -12 -75q-3 -10 -3.5 -28.5t-2.5 -26.5q-2 -13 9 -7q6 3 22 15q26 21 34 21q3 0 16.5 6.5t16.5 9.5q4 4 19.5 -1t29.5 -12l15 -7q23 -4 38.5 -80t15.5 -188.5t-13 -231t-51.5 -221.5t-94.5 -146q3 -2 -6 -6q-26 -13 -35 -8 q-3 2 -14.5 2.5t-13.5 3.5l-17 8q-17 9 -38.5 25t-30.5 33q-5 10 -8 25t-4 22t-2 29t-1 24q-1 19 15.5 25.5t31.5 -0.5q3 0 9 -4.5t8 -4.5q7 0 15 -4t12 -8.5t4 -5.5q0 -3 1.5 -14.5t0.5 -18.5q-7 -37 10 -34q21 3 49 63q35 74 49 186q7 60 14 135.5t8 179t-16 128.5 q-7 -6 -34.5 -27.5t-44 -36t-29.5 -36t-8 -38.5q2 -8 -2.5 -14.5t-11.5 -12.5t-9 -9q-2 -7 -31 -1.5t-39 19.5q0 2 -12 19.5t-12 19.5z" />
<glyph unicode="6" horiz-adv-x="452" d="M33 66q-5 118 0 157q9 57 4 88q0 1 9.5 58.5t20 121.5t13.5 78q16 66 23.5 163.5t21 160t51.5 100.5q7 7 24 15t23 14q5 5 15.5 0t21.5 -13.5t14 -9.5q1 -1 7 -1t11 -1t5 -4q2 -6 14 -18q8 -8 14 -19.5t9 -20t7.5 -24t6.5 -22.5q16 -33 8 -43q-10 -11 -20.5 -12t-24.5 4 q-30 8 -47 80q-8 36 -30 -9q-27 -57 -31 -121q-1 -11 0 -20q1 -10 -9 -105.5t-10 -99.5q1 1 8.5 1.5t16 0t16.5 -0.5l8 -1q4 2 10.5 -0.5t15 -7.5t9.5 -6q9 -3 16 -8t12 -9t10 -12.5t8 -12.5t6.5 -15t4.5 -14t4.5 -16.5t4.5 -15.5q12 -42 14 -57q7 -79 13 -83v-2 q-3 -17 -7 -56q0 -14 9 -37.5t10 -28.5q-9 -20 -15 -51q-2 -16 3 -56.5t-3 -49.5q-1 -5 -5 -14.5t-5 -14.5q0 -3 -8.5 -40.5t-11.5 -41.5q-5 -8 -19.5 -28t-21.5 -33q-27 -49 -35 -58q-57 -62 -102 -39q-5 3 -19 7.5t-28 15t-31 33.5q-5 7 -9.5 14.5t-7.5 14t-5.5 17.5 t-4.5 18t-3.5 22t-2.5 23.5t-2 29.5t-1 32t-1 39t-2 44zM137 119q2 -73 6 -131l4 -58q-1 -52 6.5 -63.5t15.5 -1.5t23 37q6 10 8.5 15t7 11t7.5 9q1 3 6.5 8.5t9 11.5t2.5 10q-4 15 13 49q16 49 16.5 85.5t13.5 70.5q4 14 -2 31.5t-6 50.5q-1 15 0 41t-1.5 58.5t-6.5 61 t-17 47t-32 17.5q-2 0 -13.5 1.5t-19 2t-10.5 -1.5l-31 -223q-2 -66 0 -139z" />
<glyph unicode="7" horiz-adv-x="458" d="M16 -66q-3 8 7 37q12 12 38 77.5t21 68.5q-1 3 4 21.5t14 44.5t17.5 50.5t16.5 46.5t9 25l17 68q18 68 41 144t37 93q8 9 48.5 147.5t39.5 151.5q0 1 -30 0t-61 -2t-34 0q-29 0 -53.5 19.5t-27.5 41.5t21 38q2 4 4.5 1.5t4.5 -3.5q6 -7 99 -2t138 22q14 5 35 -5t24 -24 q1 -2 7.5 -5.5t7.5 -6.5q1 -1 1.5 -4t2 -5.5t4.5 -4.5q4 -6 2.5 -15t-6 -21.5t-4.5 -14.5q-1 -2 -8 -5t-7 -6q-2 -2 -22 -39q-117 -360 -150 -444q3 3 -30 -126t-78.5 -261t-73.5 -141h-2q-2 0 -8 1t-12 2.5t-14 4t-15 6.5t-13.5 10t-11.5 14z" />
<glyph unicode="8" horiz-adv-x="462" d="M63 -102q-8 85 6 374.5t60 362.5q2 3 4.5 7t3.5 5.5t0 5.5t-4.5 9.5t-11.5 15.5q-14 25 -15.5 96.5t24 151.5t77.5 106q3 1 11.5 1t15 1t8.5 4q5 5 13.5 0.5t12.5 -10.5q2 -3 11.5 -5t13.5 -5q7 -7 10.5 -22t-4.5 -21q-1 -1 -14.5 -5.5t-40.5 -31.5q-32 -32 -40 -123.5 t7 -122.5q5 -13 18.5 -8t25.5 13.5t17 15.5t13 22.5t10 18.5q8 25 10 26q7 4 11 24t7.5 56t6.5 55q0 2 0.5 9t0.5 11t-2 9t-5 8q-15 15 0 19q14 6 25 -22t11 -38q1 -4 5 -11.5t4 -10.5q-2 -10 -2 -64q1 -2 4 8q8 22 8 29q7 -8 2.5 -31.5t1.5 -33.5v-26.5t-9 -57.5t-26 -62 q-1 -2 -4 -6l-6 -8t-5 -8t-1.5 -7t4.5 -4q8 0 21.5 -16.5t23.5 -42.5q16 -52 21 -70t8.5 -46t2 -43t-3 -72t-1.5 -121q0 -19 -1.5 -52.5t-12.5 -96.5t-29 -93q-13 -25 -26.5 -55.5t-21 -45t-14.5 -18.5t-18.5 -17t-18.5 -17q-21 -13 -47 -39q-16 -18 -34 -22t-29 1t-17 12 q-2 3 -13.5 7.5t-21 11.5t-21.5 36.5t-20 78.5zM158.5 27q2.5 -179 17.5 -170q2 1 11 7.5t15.5 11.5t12.5 12t6 12q0 3 16.5 27t16.5 32q0 11 13.5 34t15.5 30q22 59 33.5 190.5t7.5 238.5t-21 107q-6 0 -17 17t-26 14q-3 0 -18 2.5t-17 -0.5q-34 -11 -51.5 -198.5 t-15 -366.5z" />
<glyph unicode="9" horiz-adv-x="358" d="M-12 -114q0 6 8 22q3 3 12 6t12 0q1 -2 5.5 -1.5t7.5 -0.5q2 0 3 -2.5t3 -3.5q3 -2 14 -5.5t17 -9.5q11 -14 11 -38.5t13 -36.5q5 -4 15.5 2.5t21.5 18t14 13.5q17 10 37 67t27 89q0 70 4 70q1 0 2 8t1.5 21t0.5 30v36v37.5t-0.5 36t-1 30.5t-0.5 21v9q0 46 1 90.5 t2.5 76t2.5 61t2.5 49t1.5 36.5t-0.5 27t-3 17.5t-7 10.5t-11.5 3q-23 0 -33 6q-29 13 -43 21.5t-18.5 12.5t-12 16.5t-16.5 23.5q-26 40 -27.5 94t23.5 108q21 40 84.5 63t89.5 -5q1 -1 20 -11.5t35.5 -25.5t20.5 -31q5 -26 1.5 -66.5t-8 -75.5t-6.5 -38q-3 -52 -3 -83.5 t2.5 -77t2.5 -60.5q0 -28 -4.5 -152t0.5 -153q12 -178 -2 -267q-27 -146 -112 -231l-15 -6l-12 -4q-13 -4 -22 -6t-23.5 -4t-18.5 2q-40 21 -49 26t-18.5 15.5t-22.5 21.5q-18 16 -18 53q-1 8 -5.5 23t-4.5 21zM142 827q3 -53 32 -59q9 -2 19 2q38 17 38 119q0 7 0.5 14.5 t1 12t1.5 11.5q3 23 -0.5 26t-28.5 -13q-4 -3 -11.5 -7t-14 -8.5t-11.5 -9.5q-30 -30 -26 -88z" />
<glyph unicode=":" horiz-adv-x="313" d="M119 344q0 7 7 20.5t19 16.5q10 0 15 2t8 2q25 0 25 -6l12 -7q2 -2 2 -3q2 -3 3.5 -7t3.5 -16t-5 -20q-7 -16 -26.5 -20t-35.5 -1t-16 6q0 6 -7 16t-5 17zM119.5 737.5q2.5 15.5 23.5 36.5q3 0 11 -4q5 -2 18.5 -3t21 -4t7.5 -11q0 -2 5 -18t-1 -19q0 -8 -16 -22.5 t-33 -6.5q-28 14 -31 25q-8 11 -5.5 26.5z" />
<glyph unicode=";" horiz-adv-x="219" d="M61 -14q-9 33 20 40q32 8 60 -22q17 -17 23 -43q26 -91 -27 -132q-28 -22 -50 -14q-9 3 -9 11q0 13 4.5 40.5t3.5 41.5q0 18 -12 46t-13 32zM62.5 428q-3.5 15 0.5 20.5t9.5 11t5.5 9.5q0 3 4.5 3.5t5.5 2.5q4 3 9.5 1t12.5 -6l7 -5q11 5 24.5 -13.5t17.5 -37t-3 -23.5 q-1 0 -8.5 -8.5t-14.5 -13t-10 -0.5t-20 9t-21 13q-16 22 -19.5 37z" />
<glyph unicode="=" d="M205.5 494.5q-4.5 14.5 9.5 27.5q14 4 21.5 4t25 -4t21.5 -4q46 -7 166.5 -3.5t369.5 -8.5q15 -1 46.5 -6.5t47 -7t45.5 1.5q2 0 11.5 2t13.5 2t11 -2t12 -7q33 -33 28 -47q-1 -3 -0.5 -11t-1.5 -11q-4 -11 -30 -8.5t-39 -1.5q-3 0 -8.5 1.5t-12.5 3.5t-10 3 q-40 0 -69.5 6t-43.5 6q-31 6 -271.5 2.5t-271.5 9.5q-5 1 -20 7.5t-23 7.5q-5 2 -14 12.5t-13.5 25zM205.5 730q-4.5 15 9.5 28q14 4 21.5 4t25 -4t21.5 -4q47 -7 167 -4t369 -9q15 -1 46.5 -6.5t47 -7t45.5 1.5q3 0 12 2t13.5 2t11 -1.5t11.5 -6.5q33 -33 28 -47 q-1 -3 -0.5 -11.5t-1.5 -11.5q-4 -11 -30 -8.5t-39 -1.5q-3 0 -8.5 1.5t-12.5 3.5t-10 3q-40 0 -69.5 6.5t-43.5 6.5q-31 6 -271.5 2.5t-271.5 9.5q-4 1 -19.5 7t-23.5 7q-5 2 -14 12.5t-13.5 25.5z" />
<glyph unicode="?" horiz-adv-x="468" d="M81 781q-14 65 14 160q28 90 71 110q20 9 38 14.5t32.5 6t25.5 0.5t22.5 -4t16.5 -6.5t15 -8t12 -6.5q32 -32 43.5 -49.5t13 -34.5t2.5 -19v-1q8 -165 -27 -234q0 -5 -26.5 -56t-26.5 -59q-4 -12 -8 -12q-5 -7 -16.5 -31.5t-20.5 -45.5t-10 -22q-4 -2 -4 -6l-4 -6l-2 -4 q0 -2 -4 -14q-19 -37 -27 -104t-6.5 -117t6.5 -56q2 -6 2 -16q0 -21 -14 -31t-31.5 -9t-30.5 9q0 4 -6 4q-8 3 -12.5 20t-6 40t-1.5 50.5t1 49t2 39t1 18.5q9 52 25.5 102.5t29.5 75.5l12 25l4 6q13 27 13 33q4 4 6 4q65 133 71 156q11 35 18.5 81.5t2 98.5t-30.5 72 q-35 0 -45 -5q-16 -9 -30.5 -28t-18.5 -21l-20 -45q-5 -5 -7.5 -37.5t-4 -69t-3.5 -46.5q-1 -5 -3.5 -1.5l-5 7t-4.5 6.5t-3.5 -2t-1.5 -19q-29 -7 -38 38zM122.5 -19.5q1.5 9.5 4.5 9.5q2 0 2 2q5 16 49 16q14 0 21 -1t13 -7.5t7 -19.5q0 -35 -20.5 -46.5t-44 -0.5 t-31.5 32q-2 6 -0.5 15.5z" />
<glyph unicode="@" horiz-adv-x="667" d="M45.5 526.5q1.5 125.5 22.5 249.5v7q1 7 3.5 23t6.5 35t11.5 44.5t16.5 50.5q16 44 38 73.5t37.5 39t36 19t26.5 13.5q2 2 33 12.5t40 10.5q46 2 97 -8q61 -18 99.5 -54t66.5 -94q2 0 12.5 -34t9.5 -35l4 -25q12 -13 12 -201q0 -52 -4.5 -116t-9.5 -107t-8 -47v-6 q-1 -6 -1.5 -12.5t-2 -17.5t-3 -21t-4.5 -23.5t-7 -25.5t-9 -25.5t-11 -25t-14.5 -23.5t-17.5 -21q0 -1 -5.5 -6.5t-15 -10.5t-18.5 -5q-8 0 -8 -2q-1 -2 -8 -0.5t-16 4.5t-13 6q-4 4 -8 4l-6 6q-3 3 -6.5 5.5t-5.5 4.5l-4 4t-2 3q-1 2 -11 15.5t-19.5 29.5t-12.5 26 q0 8 -5 8q-17 -14 -40 -20q-15 -4 -26.5 -3.5t-15 1t-16.5 7t-16 7.5q-23 11 -25 15q-32 33 -46 75.5t-13 85.5t2 95q16 217 41 251q9 17 18 30t19.5 21t17.5 12.5t19.5 6.5t18 2.5t20 0t18.5 -0.5l22 -16q14 -6 28.5 -39.5t23 -71t6.5 -71t-17 -39.5q-15 -7 -34 4 q-9 4 -12.5 8t-8 28t-4.5 70q-8 35 -14 47q-6 15 -10 19.5t-5.5 5t-8.5 -8t-11 -12.5q-25 -32 -37 -126.5t-8.5 -186.5t18.5 -123q23 -42 50 1q18 27 20 54q4 9 9.5 54t2.5 55q0 3 -1 7.5t-1 9.5t2 14q4 4 11 9t8.5 6.5t6 3.5t8 2.5t9.5 0.5q12 3 25.5 -7.5t17.5 -20.5 q4 -8 3 -35t-3 -59t2 -70q0 -2 3 -19t3 -18l15 -55q12 -35 18 -31q10 10 10 18q0 7 4 11l23 114l25 209q1 7 2 79t2 79q5 16 -2 56.5t-7 43.5q-8 66 -47.5 116t-60.5 50l-33 11q-26 7 -37 1q-2 -2 -16.5 -2.5t-20.5 -3.5l-8 -2q0 1 -13.5 -4t-30.5 -13t-23 -14 q-8 -2 -26 -32.5t-37.5 -88t-24.5 -118.5q-3 -7 -8 -48.5t-9 -58.5q-10 -18 -8.5 -173t14.5 -191q6 -28 4 -31q1 0 6 -15t5 -20q0 -8 8 -36.5t16 -52.5l8 -25q16 -41 54.5 -89t70.5 -53q43 -10 86 33q21 18 30.5 38.5t17.5 32t28 17.5q21 4 35 -9t14 -27.5t-8 -22.5 q-10 -21 -14 -25q0 -4 -6 -16q-10 -16 -15.5 -22t-9 -7t-4.5 -2q0 -5 -21 -21.5t-56.5 -30.5t-65.5 -9q-28 0 -31 6q-3 0 -7.5 0.5t-20.5 8t-33.5 21t-44.5 43t-54 70.5q-6 12 -10 16q-23 25 -66 213q0 1 -0.5 4t-1 8.5t-0.5 10.5q-4 22 -8.5 63t-3 166.5z" />
<glyph unicode="A" horiz-adv-x="452" d="M31 0q-2 5 -2 23q-1 37 9 128q14 136 34.5 305.5t23.5 225.5q4 61 23 175.5t22 133.5q3 35 31 135q6 36 10 43q3 4 10.5 28.5t16.5 27.5q3 1 6 1q6 0 10 -4q6 -6 7 -18.5t0.5 -21.5t-1.5 -17q10 5 11 6l-2 -12l12 19q6 9 11.5 10t15.5 -2q37 -8 51 -51q5 -5 4.5 -48 t-0.5 -49l2 -84q1 -3 9 -99.5t17 -193.5t13 -108q1 -4 13 -5.5t15 -4.5q24 -20 24 -39q0 -6 -3 -12q-5 -18 -22.5 -18.5t-18.5 -4.5l6 -84q2 -3 4 -72q3 -65 6.5 -109t6 -59t8 -40t6.5 -33q5 -30 5 -38q1 -8 -5 -12t-12 -3t-15 3.5t-12 2.5l-2 -1q-2 -2 -4.5 -3t-6.5 -2 t-10 0.5t-14 5.5q-10 7 -13 16q-6 23 -28 352q0 76 -7 79q-2 1 -9 -1q-2 0 -40 0.5t-40 -4.5q-10 -6 -43 -6q-1 0 -6.5 2t-9.5 2t-5 -4q-7 -13 -23 -243t-22 -236h-1q-3 0 -5 4q-4 4 -4 6q1 6 -5 1l-9 -9q-10 2 -19.5 2t-12.5 0.5t-5.5 3t-5.5 10.5zM102 217l2 4l1 9l-1 -1z M117 350l2 4q0 4 -2 6q-2 0 -2 -2.5t2 -7.5zM119 367q3 3 0 6v-6zM119 404q1 -8 2.5 -16t1.5 -11q9 26 4 31q-1 1 -3 -0.5t-3 2.5q0 4 -2 4v-3.5v-6.5zM124 421l1 7q0 -6 3 -6q8 -2 -3 29v8q-3 0 -3 -10q0 -8 2 -24v-4zM132 541q0 -6 1 -6v6q3 3 0 6q-1 0 -1 -6zM156 540 q1 -1 20 -1q15 3 43 5t49 2l21 1q1 1 1 8q0 20 -9 90q-10 112 -13 135q-12 114 -18 312q-1 28 -3 29q-2 0 -7 -17q-3 -10 -9 -33q-24 -110 -37 -193t-23 -188.5t-11 -109.5q-4 -28 -5 -37z" />
<glyph unicode="B" horiz-adv-x="471" d="M47 1155q-2 6 -2 12q1 10 7 18q10 12 21 15.5t13 1.5q3 -2 12.5 -0.5t10.5 4.5q3 3 27 4h23.5h21.5q20 -1 24 0q3 -6 43 -6q60 -17 80 -37q4 -4 9 -17.5t9 -14.5q3 -2 7.5 -10t9.5 -17.5t6 -11.5q21 -56 22 -142v-17q0 -75 -8 -129q-9 -60 -16 -73q-2 -9 7.5 -23 t10.5 -18q2 -10 9 -30.5t9 -30.5q6 -21 7.5 -44.5t-0.5 -56.5t-2 -45v-78q0 -74 1 -132q3 -87 5 -115q2 -23 2 -43v-7q0 -22 -6 -51q0 -32 -8 -51t-23.5 -24.5t-29.5 -5.5q-2 0 -5 -1q-13 1 -30 3q-21 2 -31 2l-11 -1q-11 -1 -18.5 -1.5t-9.5 0.5q0 1 -11.5 5.5t-13.5 4.5 q-10 4 -28 -4.5t-27 -5.5q-13 6 -20.5 7t-9.5 -0.5t-7 2t-14 15.5q-8 8 -11.5 16t-4.5 26.5t-1 35.5t1 60t1 83q1 49 1 124q0 225 -9 681v8q0 7 4.5 31.5t2 39.5t-16.5 19q-3 2 -9.5 4.5t-9 3.5t-6 3.5t-5.5 5.5t-3 8zM192 1003.5q0 -89.5 2.5 -167t4.5 -78.5 q12 -2 21.5 -2.5t16.5 1t11 2.5t9.5 4t6.5 3q18 0 26 120q2 37 3 68q0 70 -12 111q-2 7 -5.5 14.5t-9 17.5t-8.5 15q-3 7 -14.5 9t-14.5 5q-4 3 -10 3q-3 0 -7 -1q-12 -2 -15 -8q-5 -27 -5 -116.5zM201 63q0 -9 8 -11t20.5 -0.5t28.5 -2.5q10 -2 19 -1q27 0 33 20q4 16 5 66 q0 33 -2 80q-2 49 -3 80.5t-2 92.5t-1 121q0 13 0.5 35t0.5 34.5t-0.5 30t-3.5 27.5t-8.5 19.5t-15 13t-22.5 2.5q-2 0 -17 1.5t-25.5 4t-14.5 6.5h-1q-6 0 -6 -149q0 -154 7 -470z" />
<glyph unicode="C" horiz-adv-x="417" d="M28 385q-1 38 0 76q0 140 10 275q13 171 44 308.5t74 169.5q15 9 27 13t19 5.5t9 2.5q5 1 19 2h3q14 0 36 -12q24 -13 40 -37q15 -21 22.5 -50.5t0.5 -52.5q-3 -10 -21.5 -14.5t-27.5 0.5q-11 4 -16.5 29.5t-14.5 50.5t-27 29q-11 2 -23 -4.5t-12 -18.5q0 -3 -13 -25 t-13 -28q-58 -213 -58 -279q1 -6 1 -38q0 -47 -2 -153q-1 -55 -1 -111q0 -121 4 -239q6 -174 31 -214q9 -15 47 23.5t71.5 88.5t33.5 64t6.5 31t17.5 18q16 3 29 3q39 0 45 -28v-7q0 -18 -12 -27h-4q-53 -128 -162 -222q-9 -9 -16 -12.5t-11 -3.5t-14 2.5t-16 3.5 q-3 0 -13.5 -0.5t-16.5 0t-16 2t-17 7.5t-15 14.5t-13.5 24t-9.5 36.5q-21 117 -25 297z" />
<glyph unicode="D" horiz-adv-x="393" d="M43 570v14q0 99 12 456q2 22 4 43.5t1.5 34.5t1.5 25.5t1.5 18.5t3.5 12t4.5 8t9 4t12.5 2t18.5 0.5t23.5 1.5q19 2 32.5 4t18.5 2.5t17.5 1t36.5 0.5q23 0 40.5 -20.5t27.5 -54t16 -64.5t10 -65t6 -42q13 -48 15 -100q1 -16 1 -34q0 -40 -4 -89q-4 -70 -4 -100 q0 -242 -5.5 -365.5t-16 -168.5t-31.5 -70q-5 -7 -14 -11t-13 0q-3 3 -45.5 -4.5t-58.5 6.5q-9 5 -12 2.5t-9 -12.5q0 -2 -11 -2.5t-11 2.5l-10 8q-1 -1 -3.5 -6.5t-4.5 -8.5q-1 -2 -3 -2q-1 0 -2 1q-33 25 -36 31.5t-3 48.5q0 157 -7.5 281.5t-8.5 210.5zM130 858v-90 q0 -206 10 -408q12 -248 18 -258q2 -4 11 -8t11 -6q13 -13 15 -12q3 3 4 2q0 1 7 -2q12 -4 17 -4q3 0 3 2t-1 4q1 0 6 12t5 14q11 56 20 246q6 122 6 255q0 73 -2 151q-5 216 -29 299q-3 27 -7 42.5t-11.5 20.5t-13 5t-19 -4t-20.5 -5q-28 -6 -30 -256z" />
<glyph unicode="E" horiz-adv-x="417" d="M46 805q-1 58 -1 107q0 258 35 272q7 3 16 -6q3 -1 4 0.5t0.5 3.5t1.5 2t8.5 9.5t8.5 10.5q15 11 34.5 15.5t48 5.5t42.5 4q35 0 37 2t6.5 2t22.5 -1t38 -1l41 -8q1 -7 13 -17q14 -13 14 -23q0 -11 -7 -25q-9 -17 -22 -17q-19 0 -58.5 2t-60.5 2l-63 -10q-25 -6 -39 -1 t-21 7t-8.5 -5t-1.5 -36q0 -37 -1.5 -73t-3.5 -57.5t-3 -39t0 -25t4 -8.5q1 0 62 4q15 1 28 1q38 0 51 -9q1 -1 4.5 -3t6 -3.5t4.5 -1.5q3 0 7.5 -10.5t6.5 -10.5q5 -1 1 -17.5t-7 -19.5q-6 -9 -13 -13t-12 -3.5t-12 1.5t-8 1q-9 3 -17.5 3.5t-14 0t-19.5 -2.5t-25 -3 q-9 0 -22 1q-18 2 -21 -5.5t0 -54.5q1 -22 2 -37q7 -78 11 -271.5t12 -312.5q0 -18 2 -28t4.5 -15.5t10.5 -4.5t13 2t21 7.5t26 9.5q1 0 21.5 7t35 9.5t34 -2.5t30.5 -22q8 -19 0.5 -33t-14.5 -18q-2 -1 -7 -1t-7 -1q-8 -4 -34.5 -5t-37.5 -9q-16 -14 -148 -27q-2 0 -9 -2 h-4q-4 0 -7 2q-16 0 -16 4q-16 17 -9 39q1 2 0 2.5t-2 0.5q-3 -1 -4 1q8 12 8 14l4 33q1 31 1 86l-1 22q-1 21 -3 53.5t-3.5 67.5t-2.5 67.5t-1 49.5q0 32 2.5 64.5t2.5 39.5t-3 23q-9 26 -13 238z" />
<glyph unicode="F" horiz-adv-x="344" d="M35 52q1 6 4 21.5t4 24.5q10 61 14 347.5t12 530.5t29 247q6 3 18 3h7q7 0 10 -1v-6q3 -1 10.5 0t15.5 1t9 -3q2 -3 9.5 -4t22.5 -1t31 0.5t43 1t52 0.5q24 -2 34.5 0t23.5 -0.5t32 -11.5q6 -1 15 -10t15 -10q10 -4 12 -22q1 -6 0 -11q0 -10 -3 -14q-8 -17 -48 -17 q-17 0 -39 3q-44 6 -64 6q-15 0 -19 -3q-2 -2 -115 -2q-1 -1 -4.5 -25.5t-6.5 -60.5t-1 -61q0 -2 -2 -10.5t-3 -15t-1 -13.5t2.5 -12t7.5 -6q6 -4 26.5 0t24.5 4q24 -8 25 -9q2 -2 8 -2.5t8 -1.5q1 -1 6 -5t8 -5q8 -3 15 -25q3 -9 -2 -16.5t-5 -13.5q0 -15 -43 -15 q-29 0 -79 7q1 -8 2.5 -82.5t2.5 -142.5t1 -72q0 -57 -4.5 -93t-5.5 -88q-2 -60 -4 -154q-4 -155 -14 -183q-8 -22 -29 -22q-5 0 -12 1q-9 2 -23 6q-1 0 -6 -1.5t-7 -0.5q-8 3 -13 8q-5 6 -7 10t-2 10q0 10 2 20z" />
<glyph unicode="G" horiz-adv-x="423" d="M22 294v40q0 92 2 140q3 57 7 110v2q7 33 7 56q0 7 -1 14q-2 16 -2 43q0 13 1 29q1 47 5.5 97.5t28.5 143.5t67 211q13 42 32 68t36.5 36.5t42.5 11.5h10q18 0 32 -3q16 -4 43.5 -12t39.5 -11q13 -2 22 -8.5t14 -17t8 -20t3.5 -24.5t0 -24t-1.5 -25t-1 -21 q0 -27 -1 -40.5t-2.5 -16t-5 -5t-6.5 -7.5q-6 -17 -18.5 -14.5t-19.5 22.5q-12 27 -14.5 60t-1.5 53t-10 35t-40 16q-31 0 -42 -7t-21 -36q0 -1 -14 -36t-31.5 -86.5t-28.5 -100.5q-23 -74 -38 -286q-9 -134 -9 -259q0 -73 3 -144q9 -191 46 -196q4 0 12.5 3.5t24 13 t30.5 22.5q51 36 81 104t36 133q3 41 3 77q0 19 -1 37q-3 50 -10 60q-3 4 -4 10.5t-1 14.5t-1 12q-2 30 -3 67q0 33 -3 38t-20 2q-15 -3 -25 -4h-7q-28 0 -57 14q-33 15 -26 45q2 12 7 19t15.5 10t15.5 4t21 2q18 2 35 2l35 -2q1 0 9 0.5t15.5 0.5t18.5 -1t20.5 -3.5 t18.5 -6.5t15.5 -11.5t8.5 -17.5q13 -52 15 -239q1 -53 1 -92q0 -97 -4 -105q-1 -5 -6.5 -33.5t-10 -43.5t-14 -40t-24.5 -45.5t-35 -38.5q-23 -23 -82 -61q-52 -34 -78 -34q-3 0 -6 1q-29 9 -67 12q-46 5 -70 84.5t-25 201.5z" />
<glyph unicode="H" horiz-adv-x="512" d="M62 386q-3 42 -3 110q-1 72 3 174q6 196 30 454q6 85 18 100q15 19 52 -12q8 -7 13 -18.5t7 -20.5t2 -25t-1 -23.5t-3 -25t-2 -20.5q-3 -23 -7 -88.5t-7 -87.5q-8 -48 2 -46q1 1 2 3q2 2 14 2.5t15 -0.5q8 -1 36 3t52 8l24 4q10 -6 14.5 -1.5t4.5 7v7.5v1l8 301 q2 28 16 38q9 6 18 6q4 0 10 -2q14 -6 26.5 -14t15.5 -14q7 -12 8.5 -26t-0.5 -32.5t-6 -72t-6 -117.5q-2 -29 -2 -144q0 -94 2 -248q2 -338 14 -429q0 -16 1.5 -27.5t3.5 -16t4 -8.5t3 -7q5 -4 5 -26v-8q-1 -28 -13 -36q-1 -1 -9 -3.5t-16 -4.5q-5 -1 -7 0h-1q0 -3 -4 -3 q-9 0 -39 16q-7 4 -8 5q-7 9 -12 111.5t-7 241t-2.5 225t-0.5 125.5q0 8 0.5 18t0.5 14t-1 9.5t-4 10t-9 9.5q-21 2 -37 2q-31 0 -47 -8q-3 -1 -5 -3t-2.5 -1.5t-6.5 0.5h-22q-17 -12 -39 -6q-9 2 -11 -10q-2 -14 -2 -144q0 -108 7.5 -239t15.5 -208l8 -77q-4 -19 4 -39 q4 -13 -3.5 -25t-18.5 -14q-25 0 -25 4q-2 -5 -9.5 -3t-17 5t-10.5 2q1 1 -2 5t-7 9.5t-5 6.5q-3 5 -0.5 36t2.5 36q0 31 -8 109t-14 166z" />
<glyph unicode="I" horiz-adv-x="196" d="M50 358q-1 101 -2 199q0 184 4 361q6 273 32 294q9 5 16 5q20 0 30 -36q14 -50 14 -150t-3 -234.5t-5 -285.5v-60q0 -121 7 -242q1 -22 5.5 -57.5t7 -59t2.5 -47.5t-6 -36q-6 -11 -19 -11h-2q-14 0 -25.5 1.5t-19 5t-13.5 6t-9.5 8.5t-6 9t-3.5 10.5t-1 9.5v10v8 q1 4 -3 292z" />
<glyph unicode="J" horiz-adv-x="393" d="M18 262q13 53 48 53q4 0 8.5 1t7.5 1.5t7 -0.5t9 -4q13 -9 15 -20.5t-1.5 -26.5t-2.5 -22q0 -16 18 -48.5t20 -43.5q18 -63 52 -65h1q28 0 46 47q10 28 12 67q14 126 14 311v79q-1 45 -1 90q0 195 12 394q4 45 7.5 74.5t5.5 36.5l1 6q8 12 8 14q13 4 23 4q16 0 27 -11 q17 -18 19 -60v-25q0 -30 -2 -60q-4 -44 -10 -102.5t-6 -91.5v-23q0 -67 4.5 -195t4.5 -215v-30q0 -135 -9.5 -213.5t-37 -111.5t-51 -39t-75.5 -6h-10q-4 1 -13.5 6t-14.5 6q-13 2 -23.5 8t-21 20.5t-14.5 20t-15 27.5l-12 22q-4 8 -16 28t-19.5 33t-12.5 32q-3 11 -3 21 q0 6 1 11z" />
<glyph unicode="K" horiz-adv-x="452" d="M52 301v138q0 175 2 367q2 268 7 339q3 36 13 52q8 13 17 13h4q11 -4 21 -14t17 -22.5t8 -18.5q5 -21 5 -70q0 -54 -6 -143q-3 -39 -3 -61q0 -25 4 -25q9 0 37 78q17 47 69.5 152.5t71.5 105.5q4 1 10.5 -2.5t10.5 -3.5l9 1q9 1 9 -1q15 -5 15 -25q1 -19 -13 -53 q-28 -68 -61 -119q-15 -29 -19 -41.5t-1.5 -18.5t10 -24.5t12.5 -46.5q4 -25 4.5 -71t3.5 -66q3 -33 13.5 -94.5t13.5 -83.5q34 -202 62 -327t40 -149l11 -24q0 -5 -5.5 -13.5t-5.5 -13.5q0 -2 -2.5 -4.5t-5.5 -3.5l-2 -2q-2 -8 -7 -8q-3 0 -7 2q-13 8 -17 4t-22 4 q-20 7 -24 16q-3 4 -5 11q-14 49 -45.5 244t-55 369t-20.5 177q-4 -3 -18.5 -36t-18.5 -33q-16 -33 -16 -35q-1 -6 -10.5 -9t-11.5 -5q-5 -5 -7 -2t-4 4l13 -643q-2 -16 -18 -27.5t-28 4.5l-14 -8q-3 -1 -4 -0.5t-4.5 4t-5.5 4.5q-2 2 -6 4t-6.5 3.5t-5.5 4.5t-5 6t-3 240z M74 49q0 -1 0.5 -1t1.5 1h-2z" />
<glyph unicode="L" horiz-adv-x="366" d="M54 96q0 4 2 7l1 3q6 69 6 147q1 43 -1 89q-3 75 -4 178q0 75 2 164q4 213 26 363q10 120 23 129q1 2 3 2h2h4q4 0 8 -0.5t8 -1.5h3q7 -2 12.5 -6t10.5 -10t8 -9q14 -10 14 -37q0 -1 1 -3q1 -27 -9 -81q-10 -57 -12 -88q-2 -18 -6 -215q0 -21 -11 -64q-10 -39 -10 -61v-4 q9 -208 11 -405q1 -79 3.5 -91.5t19.5 -10.5q9 1 15 1q4 0 12 -2t13 -2q21 0 35.5 3.5t19 5.5t14.5 -1t31 -16q3 -2 9 -10.5t12 -10.5q8 -4 8 -13q0 -8 -6 -19q-4 -15 -11 -18.5t-34 -6.5q0 2 -49 2q-4 0 -11 3t-8 3q-3 1 -7.5 -0.5t-8 -4t-2.5 -3.5q-5 5 -13 2 q-6 -2 -10 -2h-2h-14q-2 2 -38 2.5t-38 9.5q0 1 -6.5 7.5t-13.5 16t-9 17.5q-2 9 -3 17q-1 5 -1 10t1 14z" />
<glyph unicode="M" horiz-adv-x="622" d="M37 30q1 16 1.5 36t2.5 64.5t2 94.5v119.5v137v137.5t1.5 143t4 129t6 120.5t9 93t13 70.5t17.5 31q8 4 17 4q19 0 43 -21q36 -31 36 -87q0 -52 24 -159.5t48 -189.5q24 -83 27 -83q5 0 27 60q22 62 42 132q22 78 40.5 133t29.5 81t22.5 39.5t15.5 14.5t11 0h6q4 1 6.5 6 t3.5 15.5t1 11.5q0 8 10 23.5t18 11.5q5 -2 14 -5t13 -5l3 -4l7 -7t4 -3q7 0 14 -14.5t7 -22.5q1 -1 1 -7q-1 -2 -1 -6q0 -12 -1 -17.5t-4.5 -37.5t-7.5 -74q-2 -41 -2 -120q0 -112 5 -299q3 -126 3 -225q0 -151 -8 -238q-1 -13 -1 -25q0 -28 5 -49q3 -7 4.5 -22t-10 -30 t-37.5 -12q-35 1 -48 29q-11 25 -11 71v15q2 58 8 144t9 200q1 23 1 46q0 96 -10 212q-4 103 -4 210q0 40 -1 42l-5 -10q-1 -5 -4 -18q-35 -139 -86 -265q-18 -41 -24 -63t-2.5 -24t-0.5 -15q0 -3 -4 -11.5t-4 -11.5q2 -12 -9.5 -28t-23.5 -11q-8 3 -23 7.5t-19.5 7.5 t-15.5 14t-16.5 29t-16 52t-21 83t-25.5 121q0 12 -30 91q-5 14 -5 11q-7 -4 -7 -232q0 -46 -1 -91q0 -182 2 -364l2 -228q-11 -16 -21 -18h-3q-7 0 -15 6t-10 6q-1 -1 -4 -3t-5 -3.5t-3 -0.5q-17 11 -22.5 17t-10.5 14q-4 6 -4 18v6z" />
<glyph unicode="N" horiz-adv-x="563" d="M67 1100q4 98 19 104q5 1 11 1q15 0 31 -10q22 -14 28 -28q3 -13 14 -20l11 -11q13 -13 16 -18.5t6 -27.5q17 -124 84 -359q15 -52 37.5 -145t23.5 -113q7 -50 30.5 -116t33.5 -103q2 -12 6 -34l4 -19q2 5 2 200v146q0 269 27 633q1 3 5.5 8t4.5 6q0 5 5.5 7t13 1 t13.5 -2t9 -2q1 -1 6.5 -5t10.5 -7t7 -2q12 6 16 -14q2 -11 2 -29q0 -11 -2 -27q-2 -36 -6.5 -74.5t-9.5 -80t-6 -60.5q-10 -153 -10 -301q0 -15 -1 -30q1 -128 5 -212q4 -94 8 -170q2 -38 2 -67t-2 -48q-4 -38 -18 -46q-3 -1 -6.5 -2t-6.5 -2t-6 -1.5t-5.5 -1.5t-4.5 -2 t-3 -2.5t-2 -3.5t-1 -4q0 -10 -20 -10q-5 -2 -12.5 1.5t-10.5 0.5q-3 -4 -7 -4.5t-9.5 1t-6.5 1.5q-22 5 -30 33q1 -1 -22 91.5t-49.5 191.5t-31.5 112q-5 14 -10 59t-20 103l-88 303l-5 -110v-34q0 -74 7 -135q9 -76 13 -230q3 -123 3 -222v-48v-116q5 -14 -4.5 -28 t-24.5 -13q-2 0 -9 5q-11 8 -11 -1q0 -6 -9 -6q-3 0 -8 1q-30 12 -34 46q0 26 8 76q7 56 7 146q-1 25 -1 53q-2 127 -6.5 286.5t-9.5 300.5q-3 78 -3 144q0 52 2 96zM72 1049q0 -2 1 -2t3 2q-1 2 -2 2z" />
<glyph unicode="O" horiz-adv-x="505" d="M66 498q7 146 19 319t13 189q0 56 14.5 105t51.5 83q32 29 75 30q8 0 15 -1q3 0 28 -8t25 -9l19 -14q12 -15 33 -17.5t38 -15.5q6 -6 15.5 -15t14 -14t11 -17.5t11.5 -31.5q8 -43 16 -58q2 -4 3 -23q0 -14 -2 -37q-8 -152 -14 -351q0 -4 -6.5 -75t-16 -155.5 t-15.5 -105.5q-21 -80 -28.5 -104.5t-18.5 -43t-19 -36.5q-7 -11 -25 -33t-51.5 -50.5t-56.5 -28.5q-1 0 -11 -1q-7 -1 -13 -1h-5q-8 0 -20 3t-23.5 10.5t-21.5 20.5q-38 40 -50 190q-8 95 -8 188q0 54 3 108zM158 593q-3 -70 -3 -134q0 -112 9 -209q2 -30 3 -65.5 t1.5 -52.5t4.5 -33.5t13 -26.5q3 -3 7 -4q11 0 32 22q29 30 41 51q30 57 50 174t30.5 240.5t11.5 128.5q0 -2 1.5 29t3 74t2.5 94.5t1 91.5q0 8 1 15q0 30 -2 50q-3 33 -8 51.5t-10.5 22.5t-12.5 4.5t-14 -1.5t-15 5q-18 9 -18 10q0 3 -7 12t-10 11q-9 9 -18 9 q-16 0 -32 -30q-24 -46 -30 -83q-6 -40 -15 -153t-17 -303zM348 92z" />
<glyph unicode="P" horiz-adv-x="393" d="M53 995q-1 15 1 61q1 28 1 48v24q-2 29 9 42.5t36 7.5q8 -1 18.5 5t19.5 13l9 8q7 4 52 10t47 9q4 4 13 4t19 -2t13 -2q21 0 45 -29q27 -29 32 -85t5 -250v-73q-1 -25 -1 -49v-35q2 -40 2 -75v-33v-31q0 -29 -6.5 -50.5t-18.5 -36t-34 -20t-55 -1.5q-7 3 -31 8l-20 6h4 q2 3 -39 8q-4 2 -10 6q-9 7 -11 0q-1 -4 -1 -24.5t1 -56.5q3 -149 3 -296q1 -11 1 -32.5t1 -32.5q0 -5 0.5 -14t0.5 -13t-2 -10.5t-7 -11t-13 -8.5q-7 -6 -14 -6h-2q-6 0 -16 3q-11 3 -13 3q-15 4 -21.5 10.5t-10.5 24.5t-2.5 51.5t1.5 90.5q4 147 4 305q0 251 -10 529z M150 547q14 6 26 0.5t25 -18t22 -15.5q7 -3 13 -3q27 0 36 52q7 38 7 168q0 52 -1 118q-2 128 -2 210q0 2 0.5 10.5t0.5 15t-0.5 15.5t-2.5 15.5t-4 12.5q-3 6 -8 8q-4 2 -8 1h-4q-3 0 -16 -2.5t-29 -6.5t-26 -10.5t-7 -13.5q0 -1 -9.5 -9.5t-10.5 -11.5q-8 -8 -8 -160 q0 -132 6 -372v-4z" />
<glyph unicode="Q" horiz-adv-x="499" d="M48 318q4 238 27 483.5t42 324.5q9 28 23.5 45.5t26 22.5t32.5 10t28 8q10 3 26 1t23.5 -4.5t10.5 1.5q6 7 6 11q-2 10 2 12t9 2q6 0 16 -3q16 -6 20 -5q9 2 18.5 -4t17.5 -19t15 -26.5t13.5 -32.5t11 -31t9 -28t5.5 -19q19 -61 19 -201q0 -88 -7 -208q-20 -308 -55 -418 q-3 -11 -3 -25q0 -19 6 -43q10 -41 28.5 -77t36.5 -74t25 -59q3 -8 3 -14q0 -10 -8 -16q-2 -1 -9 -9q-7 -7 -13 -7h-2q-12 3 -26.5 4.5t-20 3.5t-15.5 12.5t-20 33t-25 63.5q-1 3 -4 14t-5.5 20t-6.5 13q-7 -7 -30 -31t-32.5 -32.5t-28 -22.5t-34.5 -17t-33 0q-67 22 -78 41 q-44 59 -44 268v32zM132 270q2 -99 7 -104q7 -5 10 -34t5 -32q0 -1 2 -2.5t2 -3.5q1 -2 0 -5t0 -5l10 -18q5 -3 11 -3q18 0 46 31q37 42 51 101q2 11 -11 40.5t-29.5 61.5t-31 67t-16.5 56.5t15 30.5q8 2 26 -0.5t25 -6.5q6 -4 13 -8q9 -5 14.5 -15.5t29.5 -66.5 q16 13 29 197q8 131 8 265q0 53 -1 107q-5 188 -34 205q-6 3 -17 10.5t-17 10.5q-7 4 -14 4q-16 0 -34 -15q-27 -23 -34 -48q-15 -61 -27 -154.5t-18 -183t-10.5 -170.5t-6.5 -131.5t-2 -51.5q-2 -19 -2 -64q0 -28 1 -65z" />
<glyph unicode="R" horiz-adv-x="485" d="M45 41q2 3 5.5 164.5t7 352t5.5 233.5q3 63 4 139t2 114.5t5 77t13.5 54.5t27.5 20q4 1 11 8t11 8q2 1 5 -0.5t3 0.5q3 5 15 5q17 3 30 10q6 4 20 5.5t19 4.5q3 2 8 2q3 0 7 -1q10 -2 14 -5l10 2q2 -1 11.5 -1.5t18 -2.5t11.5 -6q0 -1 8.5 -4.5t17 -7.5t9.5 -7 q28 -18 37.5 -36.5t10.5 -34t5 -21.5q13 -14 16 -106q1 -33 1 -67q0 -65 -4 -137q-6 -112 -19 -219.5t-29 -148.5q-2 -5 -12 -21.5t-10 -25.5q0 -17 15 -61.5t37 -96.5t43.5 -101t36.5 -82l15 -34q2 -22 -32 -39h-1q-5 0 -38 11q-29 11 -40.5 34.5t-18 55.5t-17.5 49 q-11 19 -44 99.5t-40 109.5q-5 26 -7 36t-6.5 16.5t-8 6.5t-15 3.5t-24.5 9.5q-18 6 -35 20q-7 7 -8 2q-1 -4 0 -21q0 -17 1 -35q0 -81 -8 -182q-2 -42 -2 -76q0 -47 4 -79q2 -9 1 -11.5t-7 -7.5q-14 -12 -28 -28q-5 10 -14 14t-19 -2q-12 -8 -24.5 11t-10.5 30zM146 572 v-27q0 -36 2 -44q3 -11 23 -18h1q2 -1 4 1t6 -3q3 -4 4.5 -8t4 -6.5t8.5 -5.5q4 -1 16.5 -6.5t20.5 -5.5q16 0 27.5 16t18.5 45t12 63.5t7.5 79t4 84t4 85.5t5.5 77q4 49 4 81q1 18 -1 30q-4 33 -11.5 63.5t-7.5 44.5q0 4 -0.5 7.5t-1 6t-3 4.5t-3 3t-4.5 2t-4.5 1.5t-6 1.5 t-6.5 1q0 1 -3 1q-5 0 -19 -4q-22 -6 -25 -7q-16 -4 -26 -8.5t-16 -6.5t-9.5 -9t-4.5 -8.5t-2 -13t-1 -14.5q-4 -36 -8 -139.5t-6.5 -184.5t-2.5 -87q0 -39 -1 -92zM178 479q2 -4 6 -6q0 1 -1 3t-3 3q-1 0 -1 1z" />
<glyph unicode="S" horiz-adv-x="407" d="M43 98q-1 13 -1 25q0 47 10 90q12 54 26 59q16 6 45 -2q19 -3 22.5 -21t-4.5 -45q-9 -28 -11 -62q-1 -7 0 -15q0 -27 7 -53q3 -10 14.5 -26.5t18.5 -20.5q4 -3 10.5 0.5t11 9t10.5 11.5l5 7q4 4 6.5 10.5t9 25.5t15.5 42q1 0 8.5 24.5t18 71.5t19.5 116t13 158q2 36 2 74 q0 58 -4 123q0 50 -7 77t-19 34t-30 11t-36 6.5t-41 23t-43 59.5q-22 33 -23 37q-1 6 -5.5 32t-10.5 38q-7 23 -7 54q0 24 4 52q10 64 29 70q6 1 17 11t14 16q2 2 7 3t9.5 2.5t4.5 4.5q0 4 29.5 11.5t31.5 10.5q3 2 10 2q9 0 24 -3q27 -5 59.5 -25t43.5 -51q3 -7 10 -23.5 t10.5 -28t3.5 -24.5q5 -48 6 -81q0 -43 -9 -57q-8 -14 -25 -10q-5 0 -15.5 7.5t-14.5 7.5q-9 0 -10.5 26t-5 72t-17.5 80q-10 31 -25 35q-11 2 -27.5 -3t-25.5 -14q-7 -7 -16 -15t-11 -9.5t-5 -11t-3 -20v-34.5q-8 -32 -1 -48t7 -21q8 -44 23.5 -69.5t34 -33.5t39.5 -12.5 t40 -13t34.5 -28.5t24.5 -65.5t9 -117.5v-45.5v-54t-0.5 -53t-2 -60.5t-4 -58.5t-5.5 -64.5t-8.5 -61t-12 -65t-15.5 -60t-20 -62q-2 -7 -8 -26.5t-10 -29.5t-12 -24t-17 -23l-8 -4t-10 -5.5t-4 -6.5q0 -2 -2.5 -2.5t-6 -0.5t-5.5 -1q-9 -5 -23 -5q-21 0 -53 10 q-56 18 -94 56q-20 20 -23 80z" />
<glyph unicode="T" horiz-adv-x="473" d="M55 1205q0 16 19 22h215q49 0 87 4q39 5 49 5h2q9 0 17 -4q10 -4 27 -22q3 -6 4 -20v-1q-1 -13 -15 -26q-16 -14 -44 -14q-26 0 -49.5 2t-34 2t-19.5 2.5t-11 -2.5t-3.5 -7.5t-2.5 -18.5t-3 -29q0 -9 -11.5 -214.5t-27 -426t-23.5 -236.5q-1 -1 -1 -13t1 -13t0 -9 t-2.5 -17t-1.5 -11q-12 -60 -12 -102q0 -17 3 -31q4 -21 -20 -27q-11 -3 -20 -3q-10 0 -18 3q-19 3 -24.5 11.5t-4.5 37t8 96.5q43 395 62 908q6 74 6 92v5q-8 4 -23 3h-7q-80 0 -107 23q-15 13 -15 31z" />
<glyph unicode="U" horiz-adv-x="495" d="M54 284.5q0 47.5 3 125t6 151.5t7 188t6 222q0 21 5 82t5 127q-4 45 16 59q8 5 18 5q16 0 40 -13q14 -13 16 -61q1 -20 2 -39q0 -25 -3 -49q-4 -40 -7 -68q-1 -11 -2 -120.5t-6 -261.5t-17 -272q-1 -5 -1 -13q0 -25 4 -79q6 -74 6 -94q3 -38 9.5 -59t17 -26.5t21 -3 t25.5 12.5q21 10 41 12.5t30.5 1.5t19 -1.5t11 8t2.5 25t-3 53.5q0 4 2.5 13t1.5 15l4 109q12 190 12 415q0 130 -4 273q-2 52 -2 90q0 85 8 107q10 28 39 14q27 -11 35 -30t12 -83q2 -30 2 -73q0 -49 -2 -116q-4 -228 -4 -405q0 -102 -8 -224t-8 -204q0 -12 2 -28.5 t2.5 -25t-0.5 -18.5t-6.5 -17t-16.5 -13q-5 -2 -11 -2q-9 0 -21 4q-21 6 -27 16q-6 9 -8 16t-1.5 10t-0.5 9q-1 4 -2.5 5t-3 -0.5l-3.5 -3.5t-4 -3q-4 -2 -14 -5t-14 -5q-7 -3 -27 -17t-41.5 -18.5t-54.5 0.5q-27 9 -45 22.5t-31 38t-20 51.5t-9.5 75t-2.5 95.5z" />
<glyph unicode="V" horiz-adv-x="466" d="M14 1172q2 36 15 34l9 5q17 5 18 -1q31 -12 30 -16q9 -7 15 -16t9 -22t4.5 -22t2.5 -25.5t2 -21.5l15 -126q80 -681 87 -687q10 31 26.5 94.5t66 306t94.5 539.5q2 18 22 18q5 0 12 -1q35 -7 50 -36q5 -10 5 -21q0 -16 -12 -33q-4 -6 -5 -26.5t-1 -22.5q-1 -13 -15 -79.5 t-27.5 -127.5t-14.5 -62q1 2 -15 -94.5t-35.5 -203.5t-25.5 -128q-4 -33 -13 -68.5t-19 -65.5t-11 -36q-4 -16 -7.5 -41.5t-6.5 -35.5q-12 -29 -19 -81.5t-18 -85t-39 -38.5q-2 0 -6.5 1t-7.5 1t-4 -2t-3 -2q-7 0 -26 10q-7 8 -13.5 15.5t-8 9.5t-3.5 4.5t-1 5t1.5 6.5 t2.5 12.5t2.5 20t0.5 32.5t-2 47q-4 86 -16 196t-27 212.5t-31.5 208t-29.5 191.5t-21 154q-7 57 -7 92q1 6 1 12z" />
<glyph unicode="W" horiz-adv-x="708" d="M14 1192q0 12 2 18t6 13.5t11 6.5t18 -3q25 -10 36 -36.5t16 -87t9 -135.5t18.5 -213t41.5 -288q5 -34 10 -87q4 -39 6 -38q3 0 19 104q74 367 82 395q10 33 21 34q3 0 12 -3q16 -4 27 -13.5t16 -25.5t7.5 -27.5t4 -33.5t2.5 -29q1 -1 18 -100t36 -206.5t24 -125.5 q38 318 108 641l47 236q0 2 1 10t1.5 11.5t2.5 9.5t5.5 9t8.5 5q3 1 6 1q7 0 19 -5q16 -7 24 -15q9 -12 10 -36v-8q0 -20 -4 -38q-4 -22 -11 -54.5t-9 -47.5q0 -1 -81 -488t-81 -489q1 -11 -12 -26t-34.5 -20.5t-47.5 13.5q-9 6 -14 19t-5.5 26.5t-1 28.5t-0.5 25 q-5 85 -20.5 200.5t-27.5 186t-17 92.5q0 -6 -8.5 -32t-8.5 -31q-41 -244 -43 -250q-12 -81 -18 -183q-3 -37 -4.5 -51.5t-6.5 -28.5q-5 -16 -13 -18q-4 -1 -11 -1q-5 0 -12 1q-27 4 -37.5 13.5t-12.5 19.5t-6 12q-5 1 -3 10t1 11q-3 22 -3 47t-1 38.5t-6 18.5q-2 1 -3.5 11 t-2.5 22.5t-2 15.5q-23 105 -49 336t-41 400.5t-15 179.5q0 4 -1.5 15t-2 18.5t-0.5 19.5z" />
<glyph unicode="X" horiz-adv-x="485" d="M39 31q3 13 4 18q21 51 29.5 73.5t10 31t8 36.5t18.5 70q33 150 72 253q13 37 12.5 50.5t-16.5 67.5q-3 12 -5 18q-29 94 -72 270.5t-51 221.5q-4 16 -1.5 37t18.5 26q12 4 28 -1.5t27 -14.5q15 -8 22.5 -23.5t10.5 -33.5t10 -61.5t16 -84.5q20 -71 50 -221q7 -37 12 -37 q7 1 34 116q20 85 33 136q10 22 15.5 54.5t9 55.5t10.5 29q6 36 14 56q1 3 3 12.5t3.5 15t6 11t10.5 6.5h2q13 -1 33 -11q22 -12 33 -22q7 -8 7 -31q0 -37 -18 -113q-30 -122 -55 -186q-20 -42 -32.5 -108t-39.5 -140q-9 -32 -12.5 -47.5t-3 -28t3 -20t7.5 -30.5t9 -54 l68 -326q24 -77 24 -82q0 -4 -6 -14q-1 -2 -11.5 -8t-10.5 -8q-4 -8 -20 -5.5t-37 9.5q0 2 -19 12q-2 2 -18 86.5t-32 168t-17 83.5q-3 1 -19.5 -56.5t-33.5 -122t-19 -69.5q-3 -16 -18.5 -57t-14.5 -55q0 -14 -14 -20q-9 -4 -16 -5q-5 0 -9 2q-5 3 -15.5 7t-10.5 3 q0 1 -4 2t-9 2.5t-8 4.5q-7 6 -9 15q-1 6 -1 11q0 6 4 25z" />
<glyph unicode="Y" horiz-adv-x="395" d="M48 574q4 13 11 56.5t7 98.5q0 377 12 440q0 3 2 14.5t2 14.5q0 2 -3 -1l5 5q5 12 17 12q3 0 7 -1q18 -5 35.5 -19t22.5 -23q3 -15 3 -22t-3.5 -25.5t-3.5 -21.5q-5 -30 -6 -196t-11 -283q0 -2 -2 -18t-1.5 -28t5.5 -14q17 -4 29 2q4 1 14 0t20 -3l9 -1q3 1 6.5 3.5 t5.5 2.5q4 0 12 -3q13 -6 18 7q7 21 7 117q2 31 3.5 135t2.5 193t2 92q2 5 -4 32t0 27l2 -2q1 0 6 11.5t5 13.5q11 22 28.5 19t34 -20t17.5 -32q-15 -596 -15 -635q1 -17 -8.5 -204.5t-9.5 -200.5q0 -49 -47 -115q-1 -2 -6.5 -5t-6.5 -5q-1 -1 -0.5 -4t-1.5 -4 q-29 -5 -41 -9q-12 -3 -24 -3q-39 0 -80 28q-30 19 -41 66q-9 39 -9 71q0 8 1 15q2 37 8 55q1 3 3 10t2.5 8.5t4 6t7.5 2t12 -2.5q3 -1 8.5 -2t7.5 -2t3.5 -5t2.5 -5q3 -2 10 -2.5t11.5 -3t3.5 -10.5l-2 -5q-1 -4 -3 -11.5t-4.5 -17.5t-4 -22t-1.5 -25t2 -28t7 -29 q1 -1 2.5 -4.5t2 -4.5t2 -3.5t3 -3.5l3 -2t4 -1.5t5.5 -0.5q16 0 25 4.5t19.5 22.5t15 61t4.5 113q1 14 2.5 37.5t5 73.5t5.5 83t1 33q-9 15 -37 16t-31 -4q-2 -2 -20 0q-3 0 -4 -0.5t2 -3.5q-4 -2 -37 5t-33 12l2 2q-1 2 -7 6.5t-7 5.5q-26 21 -32 36q-4 8 -4 17q0 5 2 11z " />
<glyph unicode="Z" horiz-adv-x="532" d="M6 66q19 31 65 198t52 182q107 300 235 601q9 22 12.5 34.5t5 20t-4.5 8.5t-11 1t-20 -3t-27 -4q-11 -1 -33 -1t-32 -1q-26 -2 -47 17t-24 37t3 24q23 7 87 10.5t117.5 6.5t59.5 11q2 4 7 4q9 0 31 -16q32 -24 36 -35q7 -21 -4 -41t-39 -65.5t-49 -104.5 q-8 -20 -31.5 -63.5t-66 -148.5t-107.5 -298q-12 -35 -32 -103.5t-34 -120t-14 -52.5q-3 -13 -16 -53q-5 -14 6 -15h4q14 0 62 4q41 4 80 5.5t61 2t40.5 1t28 3t13.5 7.5q9 18 5 45t-15 53q-12 23 -4 23q3 0 6 6t6 6q29 0 33 2q9 3 28 -16q16 -15 24 -68.5t15 -73.5 q2 -5 9.5 -20.5t7.5 -22.5t-15 -30q-9 -13 -12 -9q0 -1 -13 -3.5t-16 -2.5q-6 -1 -8 -0.5t-1 2.5t-1 4l-242 -2l-139 -14q-34 0 -64 24q-21 17 -21 32q0 6 3 12z" />
<glyph unicode="[" horiz-adv-x="321" d="M63 -135q6 24 13 45.5t9.5 36.5t2.5 49v10q1 10 1 26t0.5 38t1 46t1 49.5t0.5 50t-0.5 45t-1.5 37t-2 24.5q-4 29 4.5 114t1.5 162q-1 34 -1 102.5t-1 102.5q0 20 -4.5 66.5t-3.5 70.5q0 10 1.5 40.5t0.5 45.5q-1 7 -9.5 19t-8.5 22q2 13 12 22t28 13t31 5.5t35 2t25 0.5 q27 1 53 1t46.5 -14.5t25.5 -43.5q3 -23 -10.5 -28t-35 -1t-45.5 -2h-11q-20 0 -27 -0.5t-14.5 -8t-8.5 -19t-1 -40t1 -64.5q4 -120 4 -216v-7q1 -7 1 -18t0.5 -27t0.5 -35.5v-42t-0.5 -48t-1 -51.5t-2.5 -55t-4 -56q0 -22 5.5 -61t6.5 -58l-2 -289q-6 -4 5 -6l10 -2 q7 12 26 3.5t39 -23.5q3 3 7.5 -2t7 -16.5t-4.5 -33.5q-3 -18 -60.5 -18t-59.5 -4q-12 -10 -32 -5.5t-38 19.5t-17 27z" />
<glyph unicode="\" horiz-adv-x="593" d="M3 1164.5q3 9.5 15 11.5q19 2 54 -23q14 -11 32.5 -52.5t30.5 -76t12 -37.5q26 -79 61.5 -174.5t67.5 -174.5t60.5 -147t45.5 -107l17 -40q10 -25 60 -164t59 -157q3 -6 11 -17.5t13 -22t3 -20.5t-6.5 -12t-10.5 -1.5t-10 -4.5q-18 -18 -44.5 2.5t-29.5 46.5 q0 23 -195 527t-214 544l-9 17q-8 17 -12.5 29t-9 28t-1.5 25.5z" />
<glyph unicode="]" horiz-adv-x="325" d="M24.5 -117.5q-4.5 9.5 4.5 25.5q11 14 74 21.5t65 13.5q0 2 4 36t8.5 84.5t7 115t-2 147t-15.5 161.5q-4 32 2 92t6 70q1 42 -1 125t-1 125q1 23 4 58q4 54 1.5 62t-21.5 5q-17 -2 -29 -2q-35 -9 -62.5 4t-31 33.5t9.5 36.5q14 11 80.5 15t69.5 7q13 13 36 -9t27 -38 q3 -11 4 -24.5t0.5 -45t-2 -72t-3 -125t-1.5 -183.5q-2 -28 -4 -52.5t-3 -34.5l-2 -20t-1 -11.5t0.5 -7.5t1.5 -8.5t2.5 -13.5t4 -24t5.5 -38.5t6 -58.5q6 -86 6 -172.5t-3 -155.5t-3 -75q-5 -61 -11 -74t-40 -25q-2 -1 -5 2t-5 3q-4 0 -14 -5q-36 0 -54 -4q-3 0 -16.5 -4 t-23 -6t-13.5 0q-1 1 -10 1.5t-17 2.5t-8 6t-11 15.5t-15.5 21z" />
<glyph unicode="^" horiz-adv-x="606" d="M90 1135q0 16 90 224l90 208q4 2 25 -2q15 -7 31 -10q14 -3 20 -13.5t33 -80.5q28 -70 49 -124l55 -127q23 -50 33 -116q-19 -19 -36 -23.5t-30 6t-24 26t-21 42t-16.5 48t-15 50.5t-13.5 43l-38 94q0 51 -10 49q-13 -2 -64 -142q-61 -172 -84 -197q-7 -7 -12 -7l-6 4 q-12 8 -15 11q-5 0 -15.5 8t-18 16t-5.5 8q0 3 -2 5z" />
<glyph unicode="_" horiz-adv-x="524" d="M28 -96.5q1 14.5 9 24.5q7 4 19 4t27 -2t21 -2q41 -6 170 4q13 -2 35.5 -6t35.5 -6t30 -4t31 -1.5t26 3.5q2 1 9 3t10.5 2.5t9 1t10 -1.5t8.5 -5q1 -1 7 -6.5t10 -10t8.5 -10t6.5 -10.5t1 -10q-5 -9 -1 -16.5t-7 -12t-45 -4.5q-11 3 -21 -2q-2 -1 -14 1.5t-14 2.5 q-31 6 -160 6.5t-150 6.5q-34 5 -53.5 20.5t-18.5 30z" />
<glyph unicode="`" horiz-adv-x="458" d="M76 1440q0 7 6.5 16.5t11.5 9.5q6 4 15 0q2 -2 5.5 -2h6t2.5 -2q4 -4 13.5 -9t15.5 -11t10 -17q24 -40 46.5 -86t33.5 -72l10 -26q2 -3 9 -15.5t10.5 -19.5l9.5 -19t8 -19.5t3.5 -16.5t-1 -14.5t-8.5 -8.5l-12 -6q-42 -13 -72 27l-4 6q0 13 -26.5 74.5t-52.5 116.5 l-26 55q-14 27 -14 39z" />
<glyph unicode="a" horiz-adv-x="512" d="M33 51q34 122 103 469t89 406q1 6 10 29.5t9 33.5q0 2 -0.5 10t-0.5 12.5t2 9.5t5 7q9 4 20 4h8q16 -2 29 -10q30 -29 47.5 -111t40.5 -313q5 -45 20 -144.5t19 -152.5q19 -209 46 -399q9 -63 9 -84v-6q-2 -14 -26 -24q-5 -2 -8 -3q0 1 -5.5 5.5t-7.5 4.5q-35 0 -48.5 68 t-25 236t-28.5 280q-1 4 -2 6t-1.5 3.5t-2.5 2.5l-3 1.5t-4 1t-5 1.5q-5 1 -10.5 -0.5t-6.5 -1.5q-3 0 -9 2t-9 2q-60 0 -74 4q-11 0 -17.5 -33.5t-17 -97t-26.5 -110.5q-2 -6 -10.5 -51.5t-18 -78t-17.5 -32.5q-1 -1 -3 -1h-3.5t-1.5 -1q-3 -2 -7 -1t-9 3l-6 2q-6 7 -11 4 t-8 -2q-15 6 -23 20q-4 8 -4 16q0 6 3 13zM217 485q2 -6 49 -6h37h3q20 0 21 6q0 3 -3 18q-6 31 -9 60q-4 46 -12.5 106.5t-14.5 98.5l-7 37q-2 -35 -25 -130t-29 -140q-1 -4 -2 -13.5t-2 -13.5zM453 -215h2h-2z" />
<glyph unicode="b" horiz-adv-x="419" d="M76 390v55q0 325 22 571q0 11 7.5 20.5t19.5 12.5h3q6 -1 18 -7q14 -8 22 -8q15 4 51 -9.5t71 -40.5q36 -28 46 -72q2 -10 2 -20q0 -37 -29 -81q-3 -9 -17.5 -23.5t-17.5 -23.5q0 -1 7.5 -3.5l15 -5t8.5 -3.5q15 -7 26 -15.5t19 -21.5t13 -24t8 -32.5t4.5 -38.5t2 -50 t0.5 -57.5t-1 -71.5t0 -83q1 -40 3 -63q1 -10 1 -21q-1 -16 -3 -34q-4 -32 -20 -199q-1 -22 -4 -38t-13 -29t-26 -9q-4 1 -10 -1q-7 -3 -13 -5q-2 -1 -6 -1q-7 0 -18 2q-18 4 -43 15q-5 2 -17.5 10t-22.5 14t-13 3t-25 4q0 2 -2.5 4t-3.5 2q-6 1 -7 -2q0 -2 -3 -2l-2 2 q-2 0 -6 -1.5t-6 -1.5t-5.5 1t-7.5 4q-26 19 -28 378zM156 664q0 -236 1 -354.5t8 -176t13 -64t23 -6.5q10 -1 27 -21t42 -30q1 0 2 -1q10 0 16 75q1 12 1 18q14 85 14 219q0 143 -16 343v4q-1 4 -6 13.5t-5 12.5q0 6 -23.5 12.5t-31.5 6.5q-3 0 -6.5 -3t-5.5 -3t-6 2.5 t-6 1.5l-3 -1q-4 0 -7.5 -0.5t-7.5 -0.5t-6.5 0.5t-2.5 1.5t-3 1.5t-6 -0.5t-3 -3q-2 -4 -2 -47zM160 782q0 -1 1 -1q2 1 11 5q12 6 31 22.5t33 41.5q19 30 19 55q0 29 -25 50q-21 19 -40 19q-3 0 -7 -1q-6 -1 -7 -6l-4 -41q-4 -42 -8 -87.5t-4 -56.5z" />
<glyph unicode="c" horiz-adv-x="405" d="M59 190q4 63 9.5 131.5t11.5 127.5t12 115.5t11 101t9 78.5t6 52l3 19q7 31 10.5 65t6 50t14.5 41.5t36 58.5q5 5 11.5 8t17.5 7.5t14 5.5q6 2 14 2q23 0 60 -15q24 -9 33 -17.5t12 -19t8 -16.5q11 -17 11 -27q0 -8 4 -25.5t5 -27t-5 -22.5q-7 -10 -15 -10.5t-19 5.5 t-15 7q-11 0 -18.5 10.5t-10.5 25t-6 27.5t-7.5 20t-11.5 1q-17 -13 -27.5 -36t-17.5 -68.5t-12 -92.5t-14.5 -135.5t-20.5 -169.5q-24 -294 -24 -407q0 -33 2 -51q6 -61 36 -63q11 -1 29 5q21 5 40.5 20.5t34.5 25t32 5.5q1 0 14 -1t18 -5q5 -3 13 -21.5t8 -29.5 q-1 -6 -13.5 -14t-13.5 -9q-9 -6 -23 -16t-20.5 -14.5t-18.5 -10.5t-21 -8.5t-24 -4.5q-12 -2 -26 -2h-7q-18 0 -40 3q-3 0 -17.5 5t-17.5 3q-1 0 -2 0.5t-5 2t-5 1.5h-2q-13 15 -32 30q-25 20 -29.5 57t-4.5 222z" />
<glyph unicode="d" horiz-adv-x="444" d="M77 66q1 1 1 2v8t1 11.5t1 16v21.5q8 136 11.5 267.5t3.5 215v161t1.5 121.5t8 79t19.5 51t36 22q3 2 17.5 4t17.5 5q3 4 12 4q5 1 13 -1q22 -4 26 -3q8 3 32.5 -4.5t55 -31.5t43.5 -59q5 -12 12 -30.5t9 -22t6.5 -18t5 -19t4 -23.5t5 -33t5.5 -46q0 -3 -2.5 -10 t-1.5 -13q7 -35 7 -97q-1 -4 -1 -8q0 -68 -4 -169q-3 -79 -2 -107v-12q-2 -82 -10 -144t-20.5 -100.5t-32 -62.5t-38.5 -34q-19 -11 -45 -11h-6q-22 0 -40 4q-22 4 -50 10l-24 6q-3 1 -11 -1t-10 3q-3 3 -10.5 6.5t-11.5 6.5q-15 0 -19 4q-3 4 -6 9t-4 6t-2.5 4t-1.5 4z M182 86q6 -19 24 -21q3 0 7 -1q15 0 30 8q18 9 29 22q27 26 37 72t11.5 128.5t1.5 86.5q0 7 2.5 74t3.5 102t1 102.5t-3 109.5t-11 86.5t-20 68.5q-1 1 -3.5 6.5t-5 10.5t-3.5 5q-19 23 -19 25h-17.5t-32.5 -4.5t-19 -10.5t-1.5 -10.5t0 -10t1 -23.5t0.5 -42v-15 q1 -37 -3 -95q-4 -72 -6 -94v-16q0 -51 4 -204q1 -18 1 -41q-1 -39 -3 -95q-4 -86 -6 -150q-1 -35 -1 -55q0 -15 1 -19z" />
<glyph unicode="e" horiz-adv-x="425" d="M43 23q0 7 2 13q2 8 2 11q12 16 20.5 243.5t13 466t5.5 247.5q5 24 13 29.5t19 2t15 -1.5q3 2 16.5 4t14.5 4q1 3 9 3.5t18.5 0.5t13.5 1q2 1 8 1q10 0 31 -4q32 3 58 3q94 0 110 -42q3 -8 3 -16q0 -16 -14 -29q-7 -8 -14 -8q-58 0 -132 7q-21 2 -29.5 3t-21 -0.5 t-16.5 -2t-10 -9t-6.5 -12.5t-2 -22t-1.5 -28.5t1 -40.5q1 -51 1 -85q2 2 45 -2.5t88 -16t49 -28.5l8 -13q2 1 4 -1.5t2.5 -7l1 -9t0.5 -8t-1 -4.5q-5 -11 -23 -21t-37 0q-5 2 -30.5 7.5t-49 9t-22.5 0.5q-35 -1 -37 -11q-5 -23 -5 -80q1 -21 1 -46q1 -53 1 -88 q0 -28 -1 -44l-14 -307v-13q0 -30 5.5 -35t38.5 -4q21 1 35 1q2 1 17 2t28 3t13 5q0 -3 20 -7.5t23 -4.5q9 0 19 -11t8.5 -29t-25.5 -34q-1 0 -3 3.5t-5 -1.5q-6 -9 -15 -6q-7 5 -48 4.5t-44 -6.5q-2 -4 -7 5q-1 2 -1 3l-1 -5l-1 1q-2 2 -4 2l-25 -8q-4 0 -13 2t-13 2 q-7 -2 -29 -3.5t-25 3.5q0 1 -9 6t-21.5 14t-18.5 17q-6 14 -6 25z" />
<glyph unicode="f" horiz-adv-x="395" d="M59 413q-1 37 -1 75q0 177 12 366l18 152q0 55 150 55q31 0 69 -2q27 0 48.5 -5t33 -12.5t19.5 -16.5q9 -10 9 -21q0 -5 -1 -9q-5 -13 -18.5 -24t-26.5 -10q-1 0 -7.5 3t-16 7t-25.5 7t-35.5 3.5t-44.5 -2.5q-13 -2 -32 -4q-18 -2 -24.5 -4t-12.5 -9.5t-8 -26t-4 -48.5 q0 -11 -1 -17q-8 -70 -8 -104q-5 -23 8 -23q22 0 22 9q0 -2 12.5 -1t23.5 2t15 -1q1 -3 13 -3.5t14 -5.5q0 -1 7 -3.5t9 -2.5q2 -2 13 -24q3 -15 -1.5 -27.5t-14 -19.5t-21.5 -12.5t-24 -8.5t-22 -5t-15 -4t-3 -5q-2 2 -13 -0.5t-13 2.5q0 4 -8 4.5t-9 -2.5q-2 -15 -3 -135 v-34q0 -99 3 -179q4 -105 9.5 -187t11 -122.5t10 -69t6.5 -38.5t0.5 -18t-8.5 -22q-1 -1 -1.5 -5.5t-2 -8t-4.5 -4.5q-3 -2 -6 -2q-2 0 -3 2q-3 2 -5 7.5t-5 6.5q-8 3 -13.5 -3.5t-10.5 -6.5q-7 -1 -12.5 1t-9 6.5t-6 9t-4 12.5t-2 12.5t-1 13t-0.5 10.5q-10 73 -18 196.5 t-11 335.5z" />
<glyph unicode="g" horiz-adv-x="436" d="M70 86q-1 15 -1 32q0 22 1 47v48v45q0 137 14 402q16 312 49 350l60 47q4 3 17 6t17 6q3 3 11 3q12 0 35 -6q39 -11 49 -28q27 -19 27 -36q0 -8 -6 -16q-14 -18 -37 -11q-5 1 -9 4q-3 1 -13.5 9.5t-17.5 11t-22 -5t-33 -29.5q-17 -21 -35 -265q-15 -220 -15 -430v-48 q2 -222 29 -222h3q14 7 24.5 14.5t18.5 19t13 18.5t9.5 25t6.5 27t6.5 36t7.5 40q0 72 13 130q8 36 8 78q0 23 -3 48q0 121 -10 123q-16 5 -29 10.5t-25 19t-6 29.5q7 18 35.5 20t55.5 -5t36 -15q23 -15 32 -38q8 -18 8 -32v-6q-2 -16 -7 -24q-3 -5 -3 -10t1.5 -25.5 t1.5 -46.5q4 -37 4 -58q0 -13 -1 -20q-5 -19 -5 -59q-1 -2 -0.5 -18.5t-1.5 -18.5q-7 -4 -9.5 -15.5t-2.5 -27.5v-20q0 -10 -4 -28.5t-5 -25.5q0 -1 -1 -22t-5 -31q-22 -81 -49 -110q-4 -3 -19.5 -20t-25.5 -23q-48 -13 -82 -13t-54.5 11t-33 32t-17 50.5t-5.5 66.5z" />
<glyph unicode="h" horiz-adv-x="442" d="M75 228q7 269 7 520q0 32 5.5 125.5t10.5 132.5q7 36 14 51.5t22.5 15.5t41.5 -22q9 -6 9 -32t-9 -71q-2 -27 -3.5 -93.5t-4.5 -104.5l115 2q3 1 3.5 13.5t-1.5 16.5q6 37 6 76q1 22 -1 44q-4 40 -4 74q0 18 1 36q3 50 24 53q20 4 34 -5t20.5 -31.5t9.5 -50.5 q3 -24 3 -57v-11q0 -41 -2 -79q0 -38 -2 -89q-1 -31 -1 -57v-34l2 -778q0 -25 -5 -39q-4 -16 -12 -18q-5 -2 -10 -1q-3 1 -5 1q-7 2 -14.5 5t-9.5 3q-12 -2 -20.5 0t-12 8.5t-5 11.5t-2 13.5t-0.5 9.5l8 751q-1 8 0 16t-1 15t-5.5 12t-14 8t-26.5 3q-26 4 -40.5 4t-23 -1.5 t-11 -10t-2.5 -15t1.5 -24t1.5 -31.5q0 -525 6 -537q5 -6 2.5 -12t-3.5 -9t-8 -6.5t-10.5 -5t-10.5 -3.5t-9 -3q-4 -1 -8 2t-8.5 7.5t-7.5 5.5q-29 0 -33 25q-2 13 -3 60q0 42 2 110z" />
<glyph unicode="i" horiz-adv-x="206" d="M48 58.5q0 11.5 1.5 39.5t1.5 54q-1 45 -1 96q0 162 8 388q10 298 16 341q0 2 1.5 17.5t6 21t14.5 8.5q29 0 29 -4l16 -8q13 0 19 -12q6 -11 5 -22l-1 -26q-21 -368 -21 -413q-1 -14 -1 -37q0 -40 2 -104q1 -42 2 -72q0 -45 -3 -68q-2 -17 -2 -41q1 -27 3 -63 q4 -55 3 -94v-16q-1 -44 -16 -48q-1 0 -7 -5q-3 -3 -7 -3q-3 0 -6 2q-23 8 -34.5 14t-19 11.5t-8.5 18.5t-1 24.5z" />
<glyph unicode="j" horiz-adv-x="434" d="M72 1q-4 26 -4 51q0 27 5 54q9 50 41 50h3q30 -3 41 -13t8 -21t-9.5 -30.5t-6.5 -32.5q-1 -9 -1 -18q0 -42 21 -96q17 -42 30 -38q5 1 9 13q1 1 4 6t5.5 9t2.5 6q0 4 6 12t6 12t5 17.5t6 17.5q22 56 31.5 305.5t13 482t10.5 248.5q1 1 7 1.5t7 2.5q6 3 12 3q13 0 26 -13 q20 -21 20 -39q0 -105 0.5 -245.5t0.5 -214.5q1 -25 1 -52q0 -54 -1 -119q-1 -96 -3.5 -147.5t-7 -108.5t-13 -92t-20.5 -61q-1 -2 -7.5 -22.5t-9.5 -22.5q-5 -1 -8.5 -17t-9.5 -16q0 -2 -4.5 -9t-13 -14.5t-15.5 -7.5q-12 -5 -28 -5q-4 0 -8 1q-21 1 -40.5 5.5t-19.5 6.5 q-51 35 -74 80q-9 18 -18 71z" />
<glyph unicode="k" horiz-adv-x="456" d="M63 193v9q0 10 1 24q2 22 2 28q1 12 1 29q0 25 -2 59q-2 43 -2 69v15l15 326q0 13 -3 89q-2 41 -2 77q-1 30 1 56q2 56 16 64q6 0 10 4q3 3 7 3q9 0 23 -13q22 -19 24 -28q6 -11 7.5 -47.5t-1.5 -41.5q-3 -4 -3 -12.5t1.5 -18.5t1.5 -14q0 -115 8 -116q4 0 26 56 q19 45 35 75l66 119q7 26 30 26q14 0 35 -10q22 -16 23 -36.5t-10 -39t-34 -54.5t-36 -67q-32 -65 -42.5 -87.5t-15 -43t0 -24.5t12 -28.5t12.5 -57.5q3 -14 19 -70t26 -80q16 -33 62 -200.5t92 -274.5q0 -1 4 -8t5.5 -12.5t1.5 -14.5t-7 -18.5t-20 -18.5q-3 -4 -8 -4h-3 q-6 1 -10 3.5t-10.5 7t-9.5 6.5q0 -5 -2 -7q1 1 -9 5q-1 0 -3 1l-3 1q-15 10 -19.5 22.5t-2.5 21.5t0 19q-3 12 -7.5 25t-11.5 28.5t-10 24.5q-2 9 -5.5 32.5t-13 55.5t-30.5 88q-7 23 -16.5 59.5t-23.5 81.5t-40 115q-16 35 -20 55q0 1 -2.5 17t-5.5 27.5t-7 11.5 q-4 -1 -10 1q-11 2 -15 -10q-3 -13 -3 -81q0 -93 6 -289q0 -4 2 -14.5t3 -16.5t-0.5 -14t-6.5 -13q-20 -26 -56 -6q-4 3 -16 6.5t-16.5 13t-4.5 34.5z" />
<glyph unicode="l" horiz-adv-x="415" d="M105 420q2 476 16 553q5 21 10.5 33.5t11 15.5t9.5 3t8.5 -2.5t5.5 -2.5q11 0 24.5 -13t16.5 -24q3 0 1 -37l-1 -37q-16 -231 -17 -461v-56q0 -188 6 -287l7 -113q-1 -1 0.5 -6t8.5 -8.5t17 -0.5q1 0 4 3q2 4 5.5 0.5t5.5 -3.5q0 4 6 4.5t18.5 1t22.5 3.5q2 1 18.5 9 t23.5 10t21 5.5t26.5 1t25.5 -9.5q14 -5 18 -19q3 -10 4 -18q0 -5 -1 -7q-2 -10 -5 -13q-2 -3 -13.5 -7.5t-13.5 -5.5q-18 -12 -37 -6q-6 -6 -6 -8q-2 -1 -8 0.5t-10 -0.5q-8 -4 -44.5 -7.5t-41.5 -6.5q-3 -2 -12.5 -0.5t-12.5 0.5q-3 0 -11 -4q-5 -3 -8 -3q-2 0 -3 1 q-10 6 -24 2.5t-33.5 2t-30.5 25.5q-8 14 -8 347v145z" />
<glyph unicode="m" horiz-adv-x="665" d="M59 1017v6q0 8 2 11q5 6 9 15q0 3 1 3.5t3 0.5t4 2q4 4 11 2.5t18 -4.5t14 -2v4q3 0 14.5 -10t25.5 -27.5t19 -34.5q6 -19 30 -72.5t34 -70.5q25 -33 30 -64q1 -7 9.5 -22t9.5 -23q1 -6 24 -63q22 -65 28 -67q3 -1 4 7q7 35 10 39q2 3 3 4q35 118 60.5 197.5t38.5 116.5 t22 55.5t12.5 19.5t8.5 3.5t10 11.5q12 14 28 14q11 0 23 -6q31 -15 33 -43q6 -54 6 -197q0 -155 -8 -415q-13 -498 -37 -519q-9 -8 -20 -8q-17 0 -41 19q-14 10 -17.5 21t-3.5 32l3 49q4 50 9.5 127t11.5 171.5t11 187.5q6 94 8 172q2 48 1 85q-1 23 -1 41q-2 48 -8 48 q-4 1 -25 -69t-40.5 -140.5t-20.5 -71.5q-4 -29 -23 -43q-2 -1 -7.5 -2t-6.5 -2.5t0 -7.5q9 -16 -4 -35t-27 -17q-55 3 -73 66q-1 8 -47 129t-48 123q-31 75 -37 75q-3 0 -2 -59q0 -70 -8 -123v-8q0 -27 5 -100q6 -85 6 -96q2 -34 2.5 -125t0.5 -166t1 -80q6 -28 -17.5 -46 t-46.5 -1q-25 20 -28 25q-5 8 -5 45q0 16 1 37q8 151 8 341q0 202 -9 449q0 49 -2 85z" />
<glyph unicode="n" horiz-adv-x="579" d="M86 950q2 93 16 97q4 1 10 1q8 0 18 -3q16 -5 24 -13q14 -14 16 -18q3 -8 19 -21t20 -22q1 -1 10.5 -43.5t9.5 -44.5q14 -66 66 -248t57 -219q10 -66 39 -125q4 -9 10.5 -32t10.5 -32q0 -1 1.5 -14.5t4.5 -22.5t8 -12q-5 5 -5 89q-1 104 7 327q14 405 21 432q0 2 5 5.5 t5 4.5q0 8 15.5 8t23.5 -4l9 -6q9 -5 11 -4q5 2 9 -1t6 -10t3 -16q1 -6 1 -13q-1 -4 -1 -8q0 -12 -0.5 -21.5t-2 -21.5t-2.5 -19.5t-2 -15.5t-1 -9q-15 -137 -20 -305q-3 -112 -4 -195q0 -41 2 -75q2 -102 6 -142q7 -78 7 -108v-10q-2 -24 -21 -31q-4 0 -18.5 -5t-14.5 -10 q0 -3 -2.5 -5.5t-5 -3.5t-6.5 -2t-5 -1q-4 0 -8.5 2.5t-6 2.5t-5.5 -3q-8 -5 -23 0q-14 3 -21.5 14t-9.5 25.5t-8.5 41.5t-17.5 52q-1 2 -13.5 48.5t-24.5 91t-13 45.5q-18 49 -29.5 124t-60.5 203q-4 13 -11.5 39.5t-11.5 40.5q0 1 -3.5 9.5t-6.5 17.5t-4 14 q-5 -74 -5.5 -132.5t5.5 -102.5q8 -59 12 -214.5t4 -280.5v-126q5 -12 -4 -25q-8 -12 -20 -12h-2q-2 1 -7 4q-14 9 -14 0q0 -2 -1.5 -3t-4 -1t-5 0.5t-4.5 0.5l-3 1q-8 -2 -25 15q-5 6 -3.5 34t7.5 54q6 54 6 141v46q-2 120 -6 271q-6 151 -10 284q-3 86 -2 154q-1 39 0 72z M92 913h2q0 1 -0.5 1t-1.5 -1z" />
<glyph unicode="o" horiz-adv-x="432" d="M72 362q2 102 8 248q2 30 6 87q4 69 6.5 102t9 84t16.5 75t26 50.5t40 34.5q16 5 36 6q10 0 20 -2q3 0 26 -7t23 -8l16 -12q6 -8 11.5 -9t19.5 -4.5t33 -13.5q2 -3 15.5 -15t20 -23t9.5 -29q13 -69 12 -170q0 -35 -1 -74q-6 -150 -20 -285t-22 -161q-12 -47 -20 -73.5 t-12 -35t-12.5 -23t-14.5 -26.5q-5 -13 -50 -54.5t-69 -41.5q-33 0 -52 6t-38 28t-27 62t-13 111q-4 55 -4 127q1 23 1 46zM154 423q0 -34 -1 -66q0 -267 27 -296q3 -3 7 -3q10 0 28 18q26 26 37 45q50 88 74 380q17 202 17 310q0 49 -3 78q-3 28 -7.5 43.5t-9.5 18.5 t-11.5 4t-12.5 -1t-12 4q-17 8 -17 11q0 2 -6.5 9.5t-9.5 8.5q-8 8 -16 8q-16 0 -30 -27q-22 -41 -24 -71q-26 -145 -30 -474z" />
<glyph unicode="p" horiz-adv-x="493" d="M84 -133v14q11 109 11 229q0 53 -2 108q-3 75 -3 139q0 92 6 161q4 39 4 113.5v141.5q-1 11 -1 22q0 56 3 109q2 63 13 98t32 28q8 -3 17.5 -2.5t16.5 2.5t13 4l5 2q55 13 56.5 13t53.5 -13q26 -5 66 -42.5t47 -71.5q2 -2 2 -128t-5 -278.5t-30 -278.5t-67 -126 q-10 0 -14 -4.5t-7.5 -7.5t-31 0.5t-81.5 17.5v-221q-3 -35 -14 -55.5t-20 -24.5q-5 -2 -7.5 -2t-3.5 2q-1 4 -8 4t-15.5 -1.5t-10.5 -0.5q-9 2 -14.5 6t-7.5 13t-3 13q-1 3 -1 9q0 4 1 8zM176 451q0 -25 0.5 -51.5t1 -49.5t1 -44.5t1 -38.5t1 -30t1.5 -21v-7v-7 q0 -23 4 -25q2 0 5 -1q14 -2 26 -8q11 -5 23 -6v0q11 0 24 14q14 14 23 43q15 38 24 204t11 273.5t2 147.5q0 76 -12 100q-10 19 -42 19q-9 0 -20 -2q-23 -9 -30.5 -12t-14.5 -10t-6.5 -10t0 -17.5t-1.5 -26.5q-4 -127 -4 -171v-14q0 -87 -8.5 -145t-8.5 -104z" />
<glyph unicode="q" horiz-adv-x="481" d="M54 294q6 205 27.5 402.5t35.5 251.5q11 46 61 64q30 10 51 10q13 0 23 -4q1 0 6 -1t8.5 -1t3.5 2q4 0 4 20q4 2 9 2q6 0 15 -3q15 -5 17 -5h4q21 0 43 -40q23 -43 36.5 -102t13.5 -106q2 -34 2 -75q0 -89 -10 -210q-16 -175 -46 -284q-12 -34 2 -57q9 -18 22.5 -51.5 t18.5 -43.5q1 -2 5.5 -9.5l9 -15l10.5 -17.5t9.5 -19t6.5 -17q1 -5 1 -9q0 -3 -1 -5q-1 -6 -6 -8q-2 -1 -4 -4.5t-3.5 -5.5t-4.5 -4q-2 -1 -4 -1t-4 1q-10 2 -26 3q-24 2 -32.5 13t-35.5 71q-2 5 -3 7q-3 9 -6 23q-3 15 -7 15q-6 0 -50 -44l-14 -14q-19 -9 -19 -13 q-1 -4 -22 -8t-52.5 2.5t-54.5 28.5q-40 50 -40 218v43zM135 401v-62q0 -196 17 -248q1 -3 2 -5l8 -14q5 -2 10 -2q18 0 42 24q32 33 38 66q8 21 7.5 25.5t-13.5 25.5q-6 16 -18.5 41t-22.5 45.5t-18 40.5t-6.5 33.5t14.5 17.5q4 6 28.5 2t36.5 -22q2 -2 9.5 -17t15 -29 t8.5 -14q13 13 24 165q8 107 8 217q0 44 -1 89q-5 156 -31 172q-4 2 -15 8.5t-18 8.5q-8 4 -16 4q-32 0 -56 -76q-48 -151 -53 -496z" />
<glyph unicode="r" horiz-adv-x="450" d="M84 763q0 100 1.5 169.5t4.5 73.5q9 14 25 20t38.5 9.5t34.5 8.5q6 2 17 2q14 0 35 -3q39 -5 39 -11q1 -3 18 -9.5t18 -14.5q3 -2 8 -7t17.5 -39t21.5 -86q8 -52 14 -159q4 -69 4 -153v-95v-10q0 -29 -2 -44.5t-12 -35.5t-30 -33q-1 -2 -9.5 -5t-9.5 -5q-1 -8 -1 -12 t3 -15t3 -14q38 -139 71 -236.5t47 -124.5l13 -28q1 -13 -10.5 -22t-24.5 -9q-5 0 -15 4t-12 4t-6 -1t-5 -1q-6 2 -11 2q-13 7 -29.5 55.5t-93.5 303.5q-16 74 -23 86q-11 18 -47 18q-3 0 -3.5 -7.5t0.5 -26t2.5 -41.5t3 -62.5t1.5 -81.5q-2 -16 0 -36.5t4 -35t1.5 -29 t-8 -23.5t-23.5 -13q-2 -1 -11 5.5t-14 0.5q-7 -8 -25 10q-6 5 -9.5 11.5t-5 16t-2 14t0 18t0.5 14.5t-0.5 73.5t-1.5 171.5t-1.5 218.5t-0.5 219.5zM170 784q-1 -58 0 -114q0 -75 1 -146q2 -124 3 -125q2 0 13.5 -2.5t11.5 -3.5q2 -2 4.5 -1.5t6.5 1.5q8 3 19.5 8t12.5 5 t8.5 -3.5t12 -2.5t7.5 6q1 3 6 7.5t7 8.5q6 12 6.5 80t-6.5 192q-13 246 -39 271q-5 4 -14 4q-9 1 -22 -3q-27 -8 -30 -20q-6 -26 -8 -162z" />
<glyph unicode="s" horiz-adv-x="448" d="M72 76q2 53 34 78q14 12 42 6.5t28 -19.5q0 -2 5 -7t5 -7q0 -29 -20 -49q-13 -24 -4.5 -59.5t26 -67.5t25.5 -31q8 0 22 13t17 22q3 5 15 13.5t14 13.5h-2l5 10q5 10 11 32t11.5 70t7.5 124v45q0 64 -3 149q-1 4 -2.5 39t-6.5 54t-15 23q-5 1 -15.5 -5t-15.5 -7 q-9 0 -15 -4t-14 -5.5t-43 3.5q0 1 -11 7t-23 12.5t-15 9.5q-25 23 -28 127v28q-1 89 15 181q18 106 48 135q4 7 11 11.5t18 8.5t16 6q2 1 6 1q7 -1 20 -3q20 -4 23 -8l15 -6q9 -3 30 -29q45 -43 55 -101q8 -48 -21 -51q-13 -1 -34 11q-11 7 -26.5 44.5t-32.5 53.5 q-25 -26 -40 -114q-14 -83 -14 -156v-10q1 -74 16 -75q1 0 1 1q13 3 25 9.5t17.5 6.5t35.5 -2q2 0 17.5 -4.5t15.5 -5.5q26 -12 28 -14q9 -7 16.5 -16t13 -21.5t9.5 -23t7 -27t4.5 -26t2.5 -29t1.5 -27t1 -27.5t0.5 -25q3 -59 4 -110q0 -38 -2 -72q-4 -78 -9.5 -123t-17 -76 t-19 -43t-17 -21.5t-11.5 -12.5q-8 -22 -39 -46q-23 -18 -53 -18q-11 0 -23 2q-40 0 -76.5 39t-55.5 91q-17 46 -17 92v12z" />
<glyph unicode="t" horiz-adv-x="403" d="M6 1019.5q0 18.5 21 24.5q80 -2 213 -2q51 0 89 4q37 4 47 5h5q7 -1 14 -3q9 -4 27 -20q5 -12 5 -24t-14 -25q-16 -14 -46 -14q-2 1 -28 -0.5t-26 2.5q-3 4 -53 4q-9 0 -12.5 -10t-3.5 -27v-19q0 -6 -8 -169.5t-19 -344t-16 -204.5q-13 -98 -13 -111v-19q-2 -14 -4 -18 q-12 -64 -11 -106q0 -16 1 -29q2 -14 -8 -21t-23 -7h-1q-14 0 -25 1q-24 5 -26 21v8q0 25 7 100q37 364 54 850q2 24 5 56q4 35 2.5 41t-11.5 5q-7 -1 -11 -1h-14h-16t-15 0.5t-16.5 1t-15 2.5t-15.5 4t-13 5.5t-12 8.5q-14 12 -14 30.5z" />
<glyph unicode="u" horiz-adv-x="438" d="M32 190q0 19 2.5 45.5t2.5 30.5q18 307 29 602q4 118 7.5 143.5t16.5 30.5q4 1 8 1q11 0 27 -7q22 -10 29 -28v-10q0 -54 -14 -386q-12 -270 -12 -405t12 -135q1 0 3 2l26 10q26 9 62.5 33.5t65.5 60.5q11 13 11 77v6q0 69 -4 218q-2 80 -2 155q0 64 1 124q-1 32 3 84 q1 17 2 39q0 44 -5 106q0 16 12 25t35 -4q13 -7 21.5 -16t13 -16t6.5 -24.5t2.5 -26t0 -37t-0.5 -42.5q-5 -108 -5 -252v-48q1 -174 5 -330l4 -155q0 -2 0.5 -7.5t0.5 -10t-0.5 -10t-2 -9t-4.5 -4.5q-4 -2 -7 -4.5t-5 -4t-5.5 -2.5t-8.5 -1q-6 1 -18.5 6t-18.5 6q-7 0 -12 6 t-7 14t-3.5 15t-4 10.5t-6.5 0.5q-31 -25 -43 -25q-5 0 -17 -7.5t-14 -8.5q-19 -10 -26 -11q-36 -14 -64 -14t-45 10.5t-28.5 33t-16.5 44t-7 52.5q-2 25 -2 42v8z" />
<glyph unicode="v" horiz-adv-x="532" d="M52 1010v5v7q0 6 3.5 9.5t10.5 4.5q5 1 10 1q14 0 24 -7q13 -9 23 -38.5t16.5 -69.5t18 -112.5t24 -153t37.5 -206t57 -257.5q78 616 117 817q3 14 9 20q5 6 10 6h2q6 -1 10 -2l6 -2q3 1 13 -2t20 -13.5t11 -25.5q0 9 -38 -223.5t-75 -469t-37 -237.5q-5 -35 -0.5 -49.5 t4.5 -24t-13 -22.5q-14 -3 -23 -3t-15 2q-12 6 -23 16t-16 10q-10 -4 -55 245t-87 501l-41 251q0 2 -1.5 10.5t-1.5 12.5z" />
<glyph unicode="w" horiz-adv-x="675" d="M23 1007q0 7 2 13q2 8 8 12q16 10 42 -4.5t31 -32.5l6 -41q5 -41 14.5 -107.5t20.5 -147l22 -161t20.5 -147t15.5 -107.5l6 -42l94 376q0 21 2 23q1 2 1 4.5t1 3.5q3 5 12.5 10t27 1.5t34.5 -21.5q3 -2 22.5 -102t38.5 -199.5t21 -99.5q9 3 44.5 208t72 409.5t49.5 207.5 q6 3 12 3q11 0 27 -10q24 -16 24 -46q0 -13 -77 -438t-85 -429q-8 -3 -8 -57q-7 -25 -11.5 -38.5t-6 -16l-4.5 -7.5t-6 -12q-5 -25 -13 -28q-33 -8 -45 0q-3 3 -12 6t-12 6q-4 6 -8 22l-3 25q-3 25 -6.5 55.5t-9 72.5t-11 81.5t-12 76t-12.5 63t-12 36.5q0 -12 -42 -170 q-36 -135 -35 -174q0 -6 1 -10q2 -11 -22 -29q-5 -3 4.5 -34.5t-4.5 -37.5l-4 -6q-4 -6 -11 -8q-11 -3 -21 -3q-14 0 -24 6q-18 12 -24 34q2 -9 0 15q-18 182 -107 817q-17 121 -22 147q-1 3 -3 13q-4 12 -3 19zM156 -4h2h-2zM403 18h3q0 -2 -0.5 -2t-2.5 2z" />
<glyph unicode="x" horiz-adv-x="483" d="M55 -25q26 108 49.5 199t38.5 143.5t27.5 94.5t18.5 61t10 34.5t3.5 23t-3.5 18.5q-9 50 -50 230.5t-53 207.5q-6 18 -1.5 25.5t13.5 13t9 6.5q1 7 13.5 7t27 -4t14.5 -5q4 -3 12.5 -6t11.5 -9.5t3 -25.5l47 -219q5 -18 9 -43q3 -17 4 -16q2 0 14 43q24 94 51 186 q3 11 11.5 32.5t13.5 39t3 28.5q0 14 14 20q8 3 15 3q5 0 10 -2l43 -14q4 -3 6.5 -7t3.5 -9.5t1 -9t-1 -10t-2 -9.5t-3.5 -10t-2.5 -9q-49 -164 -74 -257.5t-47 -162.5q-3 -10 -8.5 -23.5t-6.5 -17.5t0 -16.5t6 -28t16 -45.5q10 -26 36 -116t27 -109q2 -16 36 -133 q22 -76 23 -114q0 -28 -13 -36q-17 -10 -58 13q-12 8 -17.5 17t-10.5 30.5t-9.5 47.5t-17.5 84t-31 124q-3 22 -15 72t-18 50q-4 -1 -57.5 -225t-71.5 -229h-4q-15 0 -43 18q-25 16 -25 37q0 6 2 12z" />
<glyph unicode="y" horiz-adv-x="471" d="M69 485q-1 18 -1 33q0 53 8 82q14 63 23 249q6 149 26 176q13 18 35 3q4 -4 12.5 -9t11.5 -9q1 -1 5.5 -9t7.5 -10t4.5 -8t0.5 -14.5t-2 -15.5t-3 -15t-2 -10q-29 -277 -29 -432q0 -140 24 -180q16 -26 53 -22q28 2 36 1q2 -1 7 -2q9 -4 13 7q6 20 24 283q7 94 11 152 q3 20 6 131.5t12 161.5q1 7 10 11.5t11 7.5q1 2 3 2q4 0 10 -5q9 -6 19.5 -14.5t12.5 -9.5q13 -9 14 -100q1 -17 1 -34q0 -80 -6 -182q-7 -125 -15.5 -248.5t-16 -209t-8.5 -86.5q-3 -18 -7 -66.5t-9 -75t-25.5 -63t-56.5 -61.5q-26 -17 -56 -18h-3q-28 0 -48 9 q-22 9 -50.5 23t-41.5 18q-5 3 -11 10.5t-9 10.5q-8 8 -8 15t10 14q17 13 34 8q10 -4 41.5 -25t49.5 -18q9 -6 39 24q18 20 28.5 47t13 46t5.5 55q0 14 2 31.5t3.5 29t2 21.5t-3.5 13.5t-13 0.5l-27 5q-27 5 -30 -1q-3 -5 -45 12.5t-45 26.5q-1 3 -13.5 17t-24 32t-9.5 33 q-2 18 -5 46t-6 105z" />
<glyph unicode="z" horiz-adv-x="397" d="M45 0q-3 16 31 156.5t69 276t35 136.5l72 373q-1 3 -28 2.5t-52.5 -1.5t-36.5 1q-21 7 -33.5 25.5t-10 36t19.5 20.5q34 6 96 6h10q6 0 12 -1q57 0 58 5q2 2 6 2q3 0 7 -1q8 -2 13 -5q38 -47 40 -50q4 -7 4 -18q0 -14 -6 -34q-34 -126 -52 -221q-2 -13 -4 -35.5 t-4.5 -36.5t-11 -53.5t-23.5 -98.5q-85 -366 -88 -405q-1 -24 11 -24h8q6 1 10 1q1 0 10.5 2t16 2.5t15.5 1t15.5 -1.5t9.5 -6q3 -6 16.5 -14.5t16.5 -11.5q14 -10 17.5 -24.5t-9.5 -27.5t-43 -18q-55 4 -63 6q1 0 -2 -6q-3 0 -9 2t-10 2q-2 0 -21 -6t-26 -6q-4 0 -8.5 0.5 t-7 1.5t-5 1t-3.5 -2t-1 -5q-1 -2 -4 -2q-5 -1 -15 7q-15 10 -28.5 25.5t-13.5 22.5z" />
<glyph unicode="{" horiz-adv-x="417" d="M39 430.5q1 11.5 10 34.5q2 5 16.5 12t18.5 12q2 0 12 10t10 11q-1 2 2.5 9t7.5 15.5t5 10.5q11 26 15.5 90t8.5 133t15.5 139.5t44.5 126.5t88 78q30 15 51 -6q2 -4 6 -11.5t5 -9.5t2.5 -7t0 -6.5t-4.5 -5t-8 -6.5t-13 -7q-46 -41 -71 -127t-28 -145.5t0 -90.5 q4 -19 5 -41.5t-0.5 -39t-4.5 -43t-4 -38.5q-4 -19 -6 -40q-2 -18 -5.5 -23.5t-25.5 -26.5l-8 -8q-8 -8 14 -28t21 -23q12 -29 12 -31q20 -30 21 -126.5t5 -190.5t32 -123q2 -3 7 -10l7.5 -10.5t7 -11.5t5 -12t2 -11.5t-2.5 -10.5q-37 -50 -91 1q-48 46 -68 122q-5 21 -6 39 q-10 110 -6.5 209.5t-0.5 103.5q-1 4 -5.5 14t-4.5 17q0 14 -33 28t-37 21q-4 8 -10.5 12.5t-10.5 7t-3 14z" />
<glyph unicode="|" horiz-adv-x="327" d="M112 768q8 22 13 336q0 201 3 233q7 77 35 77q18 0 48 -30q20 -20 12 -75q-4 -24 -5 -50.5t-0.5 -58.5t-0.5 -49q-1 -61 -18 -263t-11 -376q0 -36 6 -118.5t12 -147.5l7 -64q-3 -6 -2.5 -12.5t2.5 -16.5t2 -12q0 -52 1.5 -97.5t3 -66t2 -37t-1.5 -21.5t-7 -9 q-10 -5 -30 -7t-27 3q-13 16 -27 23q-8 4 -9 12t-1 58q0 128 -4 269q-5 492 -3 500z" />
<glyph unicode="}" horiz-adv-x="401" d="M89.5 -120q-4.5 11 2 23t23.5 17q7 0 13 4.5t10.5 13.5t7 16t6 20t4.5 16q14 56 16.5 107t-2.5 84.5t-4.5 80.5t12.5 94q8 24 8 29q1 9 4.5 21t4 16.5t-4.5 19.5q-21 35 -27.5 75t-5 71t12 131t16.5 178q1 19 1.5 34t1 26.5t-1.5 20.5t-2 15t-4 10t-4.5 6.5t-6 3.5t-6 1 h-7.5h-7q-15 1 -30.5 14.5t-14 34t31.5 37.5q29 10 63.5 -10.5t47.5 -47.5q21 -42 26 -108.5t-0.5 -134t-12.5 -132t-7 -116.5t14 -74q4 -11 25 -23t37 -29t12 -42q0 -7 -6 -18.5t-14 -8.5q-5 2 -25 2.5t-23 -4.5q-2 -8 -8 -28t-8 -31q-9 -35 -3 -92t11.5 -101.5 t-10.5 -107.5q-22 -88 -45.5 -124t-77.5 -30q-5 2 -13.5 14t-15.5 13q-10 2 -14.5 13z" />
<glyph unicode="~" horiz-adv-x="630" d="M65 710q36 52 101 75q58 21 102 -1q2 -2 8 -2l3 -4q0 -1 1.5 -1t4.5 -0.5t6 -2.5q1 0 14.5 -10l27 -20t15.5 -11l25 -24q0 -2 8.5 -6.5t11.5 -4.5q24 0 64.5 41.5t40.5 65.5q-4 0 4 4l4 2q20 20 69 -16q13 -16 15.5 -31.5t-2 -24t-11.5 -18.5t-8 -14q-13 -27 -29 -46.5 t-32.5 -30.5t-33.5 -17t-33 -7t-30.5 0.5t-27 5.5t-21.5 7.5t-14 6.5l-6 3q-1 0 -31 28.5t-32 28.5q-1 0 -11 10.5t-23.5 11.5t-49.5 -18q-25 -16 -43 -36t-25 -28t-21 -9t-40 12q-38 28 -1 81z" />
<glyph unicode="&#xa1;" horiz-adv-x="301" d="M96 627q2 2 5.5 114.5t2.5 116.5q2 0 2 57q0 18 15 23q12 12 25 12.5t20.5 -4t7.5 -6.5q3 0 14.5 -6.5t14.5 -11.5q1 0 -2.5 -70.5t-7 -144.5t-3.5 -76q-1 -1 -1.5 -156t-8 -312.5t-24.5 -166.5q-33 0 -33 6q1 1 -2 1.5t-4 -1.5q-4 0 -8 -2q-1 1 -4 2q-7 3 -8 11.5 t1 55.5q8 195 8 466l-8 90zM112 1038.5q-5 18.5 5 30.5l2 2q-1 2 0 3.5t6 5.5t8 7q0 7 21 7q8 2 12 -2q12 -5 14 -3.5t7 -1t20 -14.5q5 -5 5.5 -20.5t-11.5 -30.5l-11 -4q-11 -4 -16 -2q-5 0 -14.5 -3t-17.5 -2t-17 9q-8 0 -13 18.5z" />
<glyph unicode="&#xa2;" horiz-adv-x="348" d="M2 379q0 22 3.5 46t8 43t9.5 34.5t9 25.5l3 9q4 19 14.5 36.5t22.5 29t23 20.5t19 13l7 5q10 99 12 109q3 29 8.5 33.5t32.5 4.5q19 0 27.5 -3.5t12 -8.5t7.5 -6q8 -4 5 -40.5t-8 -64.5t3 -32q2 1 12 -5t21.5 -18t15.5 -24q33 -88 20 -96q-2 -2 -3 2q-1 2 -4.5 2 t-5.5 -0.5t-3 0.5q4 4 -6 14q-3 3 -12 -3.5t-16 -2.5q-2 2 -7 2q-3 -2 -5.5 2t-5.5 12.5t-6 19t-9 22.5t-14 20l-3 4q-3 3 -3.5 3t-3.5 1.5t-5.5 -0.5t-6 -4t-8.5 -7.5t-11 -13.5q-73 -97 -56 -244q8 -77 30 -101q4 -4 7 -3q4 1 15 13.5t22 25.5l10 14q10 12 17 23.5 t9.5 16.5t7.5 8t13 3q10 0 19 1t12.5 1t7.5 -2t11 -1.5t8 -6.5q1 -4 8.5 -5.5t7.5 -18.5q0 -11 -40 -62.5t-68 -68.5q0 -79 -5.5 -115t-12 -40t-22 0t-24.5 1q-6 -2 -14 4q-5 2 -5.5 2.5l-2.5 2.5l-2.5 2.5t-3 5t-5.5 8.5q0 118 -4 123q-1 1 -12 7t-22.5 19t-24.5 35.5 t-21.5 66t-9.5 101.5z" />
<glyph unicode="&#xa3;" horiz-adv-x="335" d="M-37 469l8 14q4 17 16.5 25.5t21.5 7t11 -1.5l8 -1q10 3 5 11q0 46 -3.5 132.5t-9.5 97.5l-7 84q-6 139 28 198q10 20 14.5 25.5t8 6t8.5 5.5q4 2 8.5 7.5t15 7t37.5 -0.5q33 0 46.5 -3t25.5 -15q27 -24 33 -57q0 -31 1 -70q0 -32 -1 -37.5t-9 -6.5q-13 -1 -24 -7 q-13 -4 -25 2q-9 0 -9.5 8.5t-4.5 11.5q-2 6 -10 68q-5 43 -15 44q-7 1 -16 -13q-16 -35 -18.5 -90.5t3.5 -108.5t12.5 -137t6.5 -152q2 -9 5.5 -11.5t12 -0.5t11.5 2q16 0 29 0.5t17 0.5t7.5 -0.5t7.5 -2.5t10 -2q4 0 12.5 -11t8.5 -16q12 -12 6 -32q0 -2 -8 -11.5 t-12 -9.5q-19 -8 -25 -8q-9 -9 -23 -2q-10 0 -25 1q-18 2 -20.5 -3.5t1.5 -41.5q1 -4 1 -7q5 -101 3.5 -156.5t-5.5 -112.5t-4 -67q0 -31 -3 -58t-5.5 -42t-6.5 -28t-4 -17.5t0.5 -8t9 -2.5t18.5 2t33 2.5t48 1.5q4 0 12.5 -2.5t19.5 -10.5t15 -20q9 -10 9 -16t-9 -18 q-8 -14 -18 -17q-15 -10 -22.5 -12t-15.5 0t-38.5 1.5t-75.5 -5.5q-6 0 -20.5 -3t-50.5 -1q-4 2 -16.5 2t-20.5 4.5t-12 19.5q0 10 22.5 63t22.5 83q0 15 2.5 33.5t4.5 29.5l3 11l9 197q4 200 -15 200q-23 0 -41 12q-2 4 -10 8l-7 4q-3 0 -14 23z" />
<glyph unicode="&#xa4;" horiz-adv-x="649" d="M76 438q6 31 55 76q20 20 20.5 24t-10.5 17q-8 11 -21 40t-14 40q-1 3 -2 8.5t-3 24.5t1 39q2 10 8 30t9 23q1 1 3 7t4 11.5t3 5.5q0 6 17 35l18 29l-43 63l-8 17q-11 16 -11 24q0 9 7.5 22t13.5 9q12 -8 27 -8q13 0 19.5 -0.5t13.5 -6.5t9.5 -10.5t13 -22t19.5 -30.5 q5 -3 10.5 -2.5t12.5 3.5t8 3q13 9 74.5 8.5t89.5 -14.5q2 0 6 -4q11 -7 16 -4t39 37q28 28 34 32t15 1q7 -3 16 -2t13 -2q5 -5 10 -5q9 -2 12.5 -6t4.5 -8.5t2 -5.5q7 -11 -10 -31.5t-38 -39.5t-22 -23q0 2 5 -5q29 -44 37 -112q13 -101 -52 -166q-3 -2 6 -17.5t19 -32 t10 -17.5l18 -23q28 -44 2 -57q-18 -18 -47 -9q-1 0 -7.5 2.5t-9.5 4.5t-9 7t-13 14.5t-16 23.5t-18 30q-5 9 -7 10t-8 -3l-8 -4q-28 -13 -33 -13q-2 0 -14.5 -3t-26.5 -5t-45 2.5t-70 17.5q-3 0 -15.5 -13.5t-26.5 -28.5t-17 -17q-19 -22 -42.5 -24t-38.5 10t-15 24z M181 696q-2 -62 35.5 -106.5t107.5 -44.5q23 4 67 33t60 61q0 6 2 6q3 3 6.5 15t1.5 14q2 4 4 31.5t-2 39.5q0 9 -7 34.5t-12 25.5l-6 4q-3 2 -8.5 5t-9.5 4.5t-7.5 4.5t-3.5 5.5t3 5.5q14 14 -22 26q-57 17 -120 -1q-2 0 -4 -1q-5 -1 -7 -4t-2 -6t-0.5 -8t-2.5 -9 q-2 -6 -12.5 -13t-22.5 -7q-36 -53 -38 -115z" />
<glyph unicode="&#xa5;" horiz-adv-x="483" d="M47 1036q-3 23 24 25q31 3 48 -16q5 -5 6 -11q0 -2 11 -28t11 -27q0 13 50 -149q10 -33 10 -35t15.5 -45.5t15.5 -44.5q5 -23 16 13q19 53 22 58l29 84q0 -1 11 29.5t25 71t19 53.5q0 4 6.5 15t6.5 15q5 9 10.5 13t10.5 5t14 1q6 0 22 -8q21 -10 23.5 -24.5t-19.5 -65.5 l-84 -240l-28 -76l-3 -9q-34 -92 -34 -138q-2 -48 1 -83.5t3 -47.5q0 -5 1 -6.5t8 -3.5t23 -2.5t46 -0.5q25 8 56.5 -12t2.5 -49q-14 -14 -35 -16q-10 -2 -44 -0.5t-46 4.5q-8 0 -10 -2q-1 -3 -0.5 -30.5t2.5 -29.5q0 -2 8 -2q9 3 63 2.5t64 -12.5q13 -10 19.5 -18 t4.5 -15.5t-3.5 -10.5t-10.5 -11t-10 -9q-4 -4 -8 -4h-4q-9 -4 -17 -4l-38 -2q-10 1 -13 4q-4 2 -25.5 1.5t-25.5 -3.5q-4 -74 0 -94v-18q2 -6 0 -39q-1 -11 1 -31t1.5 -36.5t-8.5 -29.5q-5 -12 -13 -14t-10 -4q-6 -2 -9 -1t-23 -3l-7 6q-1 3 -11 6t-16.5 15.5t-2.5 40.5 q0 2 -1 6t-1 6q3 5 4.5 18t2 33.5t0.5 38.5t-0.5 44t-0.5 40v10.5t0.5 7.5t0 4.5t-1 3t-3.5 1.5t-5.5 0.5t-9 0t-12.5 1.5q-41 0 -49 8q0 1 -3 2q-2 1 -3 2q-18 3 -21 14q-13 32 12 42t54 5.5t35 3.5q1 1 1.5 3t0.5 6.5t-0.5 9.5t-1 14t-0.5 19q0 4 -0.5 5t-9 3t-29.5 4 q-30 3 -43.5 9t-19 16.5t-7.5 11.5q1 8 4.5 14t5.5 8t9.5 7t9.5 6q72 -3 80 -3q2 2 -2 62.5t-9 69.5q-5 7 -2 18q0 5 1.5 8.5t2 6t-1 13.5t-6.5 29l-78 277q-47 143 -55 190z" />
<glyph unicode="&#xa7;" horiz-adv-x="520" d="M80.5 583q-3.5 39 0.5 91t17 110q0 22 12 51.5t22 47t13 20.5q-4 4 -9.5 17t-15 86t-9.5 186l10 88v2q2 9 7.5 23.5t27 46t49.5 47.5q4 4 31 4q118 0 133 -69q10 -46 -25 -92q-29 -38 -54 -30q-26 9 -26 68q2 2 0 2q2 2 4.5 9.5t4 19.5t-2.5 24q-10 17 -31 -4 q-42 -44 -43 -175q0 -43 5 -93q0 -60 20 -102t44.5 -61.5t53.5 -48.5t41 -60q35 -78 33 -242t-37 -217q0 -2 11 -17q26 -25 38 -58.5t14 -90t-0.5 -112.5t-6.5 -163.5t-4 -205.5q-4 -14 -5.5 -33t-9 -33t-31.5 -37q0 -3 -17.5 -7.5t-41 -6t-47.5 3.5q-6 3 -6 2l-4 2 q-3 1 -9 4t-14 8t-16.5 12t-17 15.5t-15.5 19.5t-12 23.5t-6.5 27t0.5 31.5q5 31 10 31l2 3q16 20 18 13q2 -1 24 -1t26 -7q22 -11 23.5 -21.5t-6 -23.5t2.5 -39q42 -77 58 57q18 150 4 426l-1 23q8 0 -6 35.5t-37 70.5t-36 35q-25 25 -27 25l-6 3q-6 3 -16.5 11t-23.5 20 t-26.5 31t-25.5 43t-20.5 58t-12 73zM180 672q-8 -186 43 -238q4 -2 16 -11q41 -28 41 -23q0 1 -1 3l2 29l5 35q13 150 5 215q-8 43 -25 81t-34.5 56t-26.5 10q-7 -16 -11.5 -38.5t-5.5 -24.5z" />
<glyph unicode="&#xa8;" horiz-adv-x="475" d="M141 1188q1 2 2 6.5t2 5.5q0 3 8.5 12t10.5 9l8 -4q6 -3 19 -3t20.5 -3t7.5 -13q0 -4 5 -18t-1 -19q0 -10 -16 -23t-33 -5q-3 1 -7 3l-6 3t-4.5 3t-4.5 3.5t-4.5 4.5t-4.5 7q-8 16 -2 31zM286 1190q10 22 36 22q25 10 47 -12q0 -2 3 -10.5t3.5 -15.5t-4.5 -19 q-9 -16 -28 -20t-33.5 0t-14.5 8l-8 12q-11 13 -1 35z" />
<glyph unicode="&#xa9;" horiz-adv-x="808" d="M-6 521.5q0 149.5 20.5 296.5t65.5 263.5t102 161.5q8 12 19 23t24.5 19.5t26.5 15.5t27.5 13t23.5 10t19.5 7.5t11.5 3.5q15 2 32.5 2.5t32 -1t26.5 -3t20 -3.5l8 -1l2 -2q4 0 16.5 -4.5t15.5 -3.5q19 8 47 3.5t39 -15.5l9 -2q46 -35 79.5 -67t43.5 -47l10 -15l4 -11 q2 0 5 -9t3 -15l6 -13q5 -4 16 -51.5t11 -54.5q6 -13 3.5 -20.5t2.5 -18.5q0 -4 7.5 -52.5t10.5 -56.5l9 -253l-2 -7q-2 0 -4.5 -28.5t-6 -56t-8.5 -25.5q3 -2 0 -11.5t-6 -16t2 -7.5q-65 -270 -96 -342q0 -38 -84.5 -131t-112.5 -80q-28 -7 -69 -13t-41 -1l-62 6l-14 8 q-9 2 -32 11.5t-24 13.5l-10 8q-102 80 -102 104l-2 4q-60 60 -92.5 187.5t-32.5 277zM84.5 655q1.5 -132 11.5 -212t20 -143l1 -5l38 -118q28 -81 38 -81l6 -8q0 -3 6 -12l12 -10q44 -58 109 -80.5t120.5 -7t77.5 58.5l8 8q9 17 14.5 24.5t8 10.5t14 27t33.5 75 q47 144 47 164q5 16 12 44t22 108t22.5 153.5t3.5 162.5t-25 153q0 12 -0.5 24.5t-7.5 48.5t-19 66.5t-39.5 67t-64.5 61.5q-2 0 -19 13.5t-18 13.5q-6 4 -25.5 0t-33.5 0q-28 14 -60.5 14t-65.5 -12.5t-65 -39.5t-58 -64t-45 -90.5t-26 -115.5q-5 -6 -15.5 -62.5 t-10.5 -64.5q-28 -40 -26.5 -172zM260 199q-37 151 4 838v5q13 104 74 127q50 0 81 -4.5t48 -11.5t25.5 -24.5t11 -33t7 -49t11.5 -61.5q2 -6 -2 -10v-4q-8 -16 -15 -14t-13 -3l-3 -4l-4 4l-8 4q-13 0 -18.5 23.5t-5.5 44.5q-9 31 -11 33v7t-2.5 14t-7 18t-15 13.5 t-24.5 6.5q-44 -14 -51 -70.5t0 -198t-10 -396.5q-1 -20 -0.5 -43t2.5 -48.5t5 -50t6 -47t5.5 -39t3.5 -27.5l2 -10q-3 -5 4 -16.5t15 -21.5l8 -9q15 -23 39 53l10 33l2 4q2 0 11.5 4.5t20 4.5t21.5 -9q6 -3 10.5 -7t5.5 -6l1 -3q2 3 3 -3q4 -28 -15 -77q-30 -74 -86 -74 l-11 -4q-5 -2 -18 1t-30.5 13t-34.5 25.5t-31.5 42.5t-20.5 60zM792 638q0 -3 3 -3q0 2 -2 2z" />
<glyph unicode="&#xaa;" horiz-adv-x="579" d="M88 580q-11 23 43 257.5t80 329.5q6 36 10 43q3 4 10.5 28.5t16.5 27.5q10 3 16 -3.5t7 -18.5t0.5 -21t-1.5 -17q10 5 11 6l-2 -14q5 14 12 21q6 9 11 10t15 -2q38 -9 52 -51q22 -80 24 -109l29 -156q1 -4 13.5 -5.5t15.5 -4.5q31 -26 20 -51q-6 -18 -23 -18.5t-18 -4.5 q-1 -3 1.5 -41t4.5 -43q-4 6 -1 -9q2 -10 9 -44q5 -24 7 -33q4 -25 4.5 -38t-6 -16.5t-11.5 -3t-13 3.5t-11 3l-2 -2q-3 -2 -6.5 -4t-10 -1t-14.5 7q-2 1 -5 3q-11 6 -14.5 24t-11.5 119q0 77 -9 78q-2 1 -7 -1q-9 -1 -24.5 0t-33.5 0.5t-22 -4.5q-10 -6 -43 -6q-1 0 -6.5 2 t-9.5 2t-5 -4q-8 -14 -21.5 -134t-16.5 -126q-3 -1 -7 4.5t-4 7.5q1 5 -4 2q-9 -6 -10 -10q-8 1 -15 1.5t-10 0.5h-6t-4 1.5t-2 4.5t-2 9zM150 670l2 4l1 9l-1 -1zM164 709l2 4q0 4 -2 6q-4 0 0 -10zM166 725q3 3 0 6v-6zM166 772q-2 -3 0.5 -19t1.5 -18q3 4 5.5 16.5 t0.5 14.5q-1 1 -3 -0.5t-3 2.5q0 4 -2 4zM170 785q1 -7 1.5 -6.5t0.5 7.5q0 -6 2 -6q7 -2 -2 29v8q-7 0 -2 -32zM178 899q0 -6 2 -6v6q3 3 0 6q-2 0 -2 -6zM201 899q1 -2 22 -2q14 3 42 5t49 2l22 1q5 5 -13 114q-21 133 -40 122q-7 -4 -13 -29l-63 -174q-7 -37 -6 -39z" />
<glyph unicode="&#xab;" horiz-adv-x="555" d="M87 508q0 16 32 82q5 12 23.5 50.5t34 72t16.5 37.5q0 7 16.5 36t26.5 29q4 -2 10 -2q4 2 6.5 2.5t5 0t3 -1l3.5 -3.5l4 -4q0 -2 -2 -6v-4q4 0 4 3t4 1q2 0 0 -6q-2 -5 1.5 -8t3.5 -17q0 -11 -5.5 -21.5t-5.5 -25.5q0 -8 -2 -10q1 1 -8.5 -19.5t-19 -42t-9.5 -22.5 l-10 -21q-10 -21 -21.5 -46t-17.5 -49.5t0 -31.5q-1 1 17 -28t37 -60t22 -35q0 -1 22.5 -27.5t14.5 -43.5q-10 -15 -12 -15l-15 -8q-17 4 -26.5 8.5t-13 6.5t-13 11.5l-14.5 14.5l-80 129q-32 58 -32 74zM252.5 520.5q-0.5 6.5 0.5 9.5t5.5 9.5t5.5 7.5l33 67l35 89 q36 89 41 94l6 6l8 8q26 8 59 -25q10 -10 6.5 -21.5t-12 -28.5t-8.5 -21l-8 -15q-5 -10 -25 -69.5t-30 -73.5q-19 -39 -18 -48q1 -7 25 -47q17 -29 34 -63q1 -1 7.5 -11t15.5 -22.5t13 -17.5q12 -14 8 -26t-15 -20.5t-17 -6.5q-13 0 -23 5t-15.5 10t-6.5 5q-4 0 -12.5 13 t-16.5 27l-8 14q-78 129 -78 133l-4 6q-5 6 -5.5 12.5z" />
<glyph unicode="&#xad;" horiz-adv-x="653" d="M178 563q8 10 29 4q18 -3 70.5 0t96.5 7.5t44 5.5q1 2 7 2t13 -1t8 -1q56 0 74 -38q13 -29 -6 -45q-17 -14 -47 1q-18 10 -142 -3t-137 9q-33 29 -10 59z" />
<glyph unicode="&#xae;" horiz-adv-x="870" d="M56.5 647.5q0.5 61.5 7 127.5t17 129t30 126.5t45.5 116.5l61 125l5 10q6 11 16.5 28t22 35t26 33t26.5 21l10 5q10 4 25 9t32 9t35 3.5t31 -6.5l9 -2q23 0 36.5 -9.5t20.5 -6.5q14 6 36.5 7t38.5 -1.5t17 -3.5q0 4 26 -12t29 -19q41 -28 86 -96q52 -104 69.5 -254 t6.5 -290t-32.5 -272.5t-41.5 -211t-28 -94.5l-12 -39l-3 -10q-69 -237 -183 -264q-13 -3 -27 -3q-7 -1 -20 -2.5t-51 1t-73.5 13.5t-80.5 40.5t-80.5 75t-66 125.5t-42.5 183q0 -1 -3 18.5t-6.5 53t-7.5 80.5t-5.5 103.5t-1 118zM145 569q0 -67 2.5 -111.5t5.5 -55.5l3 -11 q1 -1 5 -49.5t9.5 -96.5t9.5 -48l19 -62l4 -13q4 -14 11 -33t17 -41.5t25.5 -46t32.5 -40.5q0 -7 27 -18.5t55 -20.5l28 -10q2 -2 15 -3t14 -3q11 -2 21 0q30 0 56.5 18t43.5 43t29.5 52t18 44t5.5 19l2 2q7 7 28 88.5t38.5 158.5t17.5 79q0 14 4 22q0 6 14 112t23 216.5 t-8.5 258t-69.5 251.5q-36 36 -56.5 51t-30.5 17.5t-36.5 3.5t-52.5 6q0 1 -3 2t-7 2t-6 2q-29 0 -54 -9t-40.5 -22t-26 -27.5t-15 -23.5t-4.5 -12q-71 -117 -112 -238q0 -3 -12.5 -44.5t-12.5 -45.5q-4 -12 -10 -36t-16.5 -117.5t-10.5 -209.5zM199 135zM265 315q3 76 5 78 q0 -12 9 165.5t17 361.5l9 184q0 26 2.5 44t5.5 28t12 17t14 9t20 6t22 6l72 7h4q4 0 10 -1.5t22.5 -11t29 -26.5t22.5 -53t10 -85q0 1 2 -18.5t4.5 -51t5 -75t2.5 -90.5t-1.5 -96t-8 -94t-16.5 -82t-27.5 -62t-40.5 -33q-10 -3 -4.5 -18.5t10.5 -20.5q0 -1 19.5 -40.5 t19.5 -40.5l34 -84q64 -175 9 -175q-13 0 -23 1.5t-17 2.5t-13 7t-9 7.5t-6 12t-4 12.5t-4 17t-4 18q-5 45 -51 160q-42 106 -58 98q-8 -4 -8 -37q-3 -36 -4 -105t0 -120v-51q-7 -19 -24.5 -21.5t-38.5 5.5q-2 2 -8 2q-34 -11 -22 243zM361 1122q5 -9 7 2q1 5 1 13 q-3 3 -7 2q-5 -6 -1 -17zM373 1069l4 -4q17 -150 1 -406q-8 -136 2 -158q11 -22 44 11q26 0 38 200q14 230 -8 367q-13 80 -35 71q-4 -2 -7 -5l-3 -1q-30 -4 -30 -7h-2q-4 -8 -4 -68z" />
<glyph unicode="&#xaf;" horiz-adv-x="880" d="M236 1180q0 9 2.5 12t11.5 8h4q273 32 327 -3q11 -7 11 -17q0 -30 -13 -42.5t-34 -9.5q-12 2 -33.5 3t-45.5 1t-50 -1t-49.5 -2.5t-42.5 -3t-31 -2.5l-12 -1q-22 0 -39.5 16.5t-5.5 41.5z" />
<glyph unicode="&#xb0;" horiz-adv-x="548" d="M139 1196q0 6 2 8q0 16 17.5 55t46.5 68q3 3 23 17t24 14t4 2l2 2h6q20 18 61 14t56 -20q16 -9 28.5 -28t17.5 -32.5t5 -17.5q2 -4 7.5 -31.5t9 -62t-4.5 -56.5q-2 -2 -2 -4q0 -20 -6.5 -43t-11.5 -30q-7 -23 -25.5 -43t-30 -27t-34.5 -20l-10 -5q-17 -4 -31 -4.5t-26 2 t-19 5.5t-18 9t-17 9q-43 44 -64 110t-10 109zM199.5 1167.5q-1.5 -10.5 3.5 -37.5t22 -71q20 -29 41.5 -37.5t39 0.5t31.5 24t22 30.5t8 23.5q10 8 12 52t-7.5 91.5t-29.5 59.5q-6 4 -25 3t-24 -6q-9 -3 -25 -14.5t-20 -15.5l-29 -39q-3 -16 -10.5 -34.5t-9 -29z" />
<glyph unicode="&#xb1;" d="M205.5 218q-4.5 15 9.5 28q14 4 21.5 4t25 -4t21.5 -4q47 -7 167 -4t369 -9q15 -1 46.5 -6.5t47 -7t45.5 1.5q3 0 12 2t13.5 2t11 -1.5t11.5 -6.5q33 -33 28 -47q-1 -3 -0.5 -11.5t-1.5 -11.5q-4 -11 -30 -8.5t-39 -1.5q-3 0 -8.5 1.5t-12.5 3.5t-10 3q-40 0 -69.5 6.5 t-43.5 6.5q-31 6 -271.5 2.5t-271.5 9.5q-4 1 -19.5 7t-23.5 7q-5 2 -14 12.5t-13.5 25.5zM205.5 734q-4.5 15 9.5 28q14 4 21.5 4t25 -4t21.5 -4q38 -5 78.5 -5.5t90 1.5t142.5 0q0 15 -4 39q-11 95 -12.5 160t2 88t9.5 42.5t7 24.5q0 7 12 17.5t26 14t25 -9.5q5 -8 5 -20 t-2.5 -26.5t-2.5 -20.5q-2 -52 -1.5 -74t7 -105.5t9.5 -131.5q49 0 145 -7q15 -1 46.5 -6.5t47 -7t45.5 1.5q3 0 12 2t13.5 2t11 -1.5t11.5 -6.5q33 -33 28 -47q-1 -3 -0.5 -11.5t-1.5 -11.5q-4 -11 -30 -8.5t-39 -1.5q-3 0 -8.5 1.5t-12.5 3.5t-10 3q-40 0 -69.5 6.5 t-43.5 6.5q-41 7 -143 4q0 -97 -4 -148q0 -16 -3.5 -46.5t-4 -47.5t3.5 -45q0 -4 2 -12t3 -12.5t-0.5 -11t-6.5 -11.5q-30 -36 -45 -31q-16 0 -24 5t-11 17t-1.5 31t4.5 47t6 66t4 87.5t-1 111.5q-280 -4 -322 8q-4 1 -19.5 7t-23.5 7q-5 2 -14 12.5t-13.5 25.5z" />
<glyph unicode="&#xb4;" horiz-adv-x="454" d="M169.5 1171.5q-2.5 5.5 0.5 14.5q3 10 36.5 62.5t65.5 100.5l33 48q15 20 27.5 32.5t20 18t15.5 6t10.5 0t9.5 -5.5l7 -4q6 0 13 -9.5t6.5 -25.5t-13.5 -29q-20 -17 -52.5 -64.5t-62.5 -95t-36 -55.5l-4 -5q-5 -6 -8.5 -8.5t-12.5 -5.5t-20 -3h-6.5h-4.5t-2.5 0.5 t-2.5 1.5t-3 4q-2 5 -8 11t-8.5 11.5z" />
<glyph unicode="&#xb7;" horiz-adv-x="493" d="M199 643q7 21 10 21q21 10 53 2q36 -13 27 -51q-7 -31 -30 -40q-16 -6 -30 7q-1 0 -4 1t-7.5 4.5t-8.5 9.5t-7 18t-3 28z" />
<glyph unicode="&#xb8;" horiz-adv-x="450" d="M156 -117q-1 8 2.5 15t3.5 16l4 10q6 6 6 31q4 17 4.5 29.5t-0.5 16t0 7t6 8.5q4 5 10 8t11 3.5t6 1.5h2l4 -2q1 1 14 -7l7 -4q8 -3 13 -6.5t8.5 -14t0.5 -26.5q-2 -8 -3 -20t-3 -17q-2 0 -2 -13.5t2 -16.5l16 -8q24 -12 41.5 -31t22.5 -32l6 -13q0 -2 4.5 -16t6.5 -28.5 t-1 -35.5q0 -3 -1 -8.5t-1 -14.5q-2 -2 -2 -14l-6 -25q-6 -44 -33 -71q-14 -19 -32.5 -28t-34.5 -8t-29 6t-20.5 13t-6.5 15q7 15 31 27t37 46q11 37 12.5 72.5t-13.5 62.5t-48 27q-8 8 -17 8q0 5 -12 9q-5 4 -6.5 6t-2 3.5t-2 6.5t-5.5 12zM184 -154z" />
<glyph unicode="&#xba;" horiz-adv-x="432" d="M48.5 949q0.5 68 10 123.5t26.5 95t48.5 59t75.5 14.5q3 0 26 -6.5t23 -7.5l16 -13q4 -7 8.5 -9.5t9.5 -2.5t17.5 -3t28.5 -11q3 -4 15 -15.5t19 -23t11 -29.5q5 -25 8.5 -47.5t5.5 -40t2.5 -35.5t1 -29.5t-1 -26t-2 -21t-3 -19t-3.5 -15.5t-4.5 -15t-3.5 -13 q-12 -47 -20 -73.5t-12 -35t-12.5 -23t-14.5 -26.5q-7 -15 -51.5 -55.5t-67.5 -40.5q-89 0 -121 42.5t-35 158.5q-1 76 -0.5 144zM137 832q9 -119 43 -148q8 -10 33 14t39 45q34 62 49.5 127.5t13 114t-5.5 98.5q-4 34 -10.5 49.5t-13.5 15.5t-15 0.5t-14 4.5q-16 8 -16 10 t-7 10t-10 9q-23 22 -45 -19t-24 -71q-26 -141 -17 -260z" />
<glyph unicode="&#xbb;" horiz-adv-x="487" d="M119 786q0 2 4 6.5t13.5 8.5t19.5 4q27 0 52.5 -40.5t52.5 -98t50 -80.5q12 -15 14.5 -21t1.5 -13t-10.5 -22.5t-21.5 -38t-32.5 -71.5t-41.5 -111q-1 -1 -1.5 -2.5t-1 -4.5t-1.5 -5q0 -13 -5 -18.5t-16 -7t-12 -1.5l-4 -6l-6 6q-8 4 -12 4t-9 6.5t-10 8.5 q-12 8 -10.5 27.5t8.5 37t15 35t8 21.5q3 3 22 51.5t21 56.5q7 12 10 18.5t6 15.5t2 16.5t-6 13.5q1 -1 -22.5 45t-48 93t-25.5 48q-4 0 -4 18zM272.5 261q-0.5 12 7 24.5t7.5 15.5q66 166 78 191q2 12 9.5 27.5t12 26t2.5 27.5t-14 35q-7 11 -22 45.5t-31 61.5 q-25 65 -27 76q-6 36 29 36q18 -2 32 -12.5t19.5 -22t10 -23.5t5.5 -13q17 -41 70 -150q7 -10 15 -21.5t10 -14t5 -9t1 -8t-4 -9t-7 -13t-11.5 -19.5t-14.5 -29t-18.5 -41t-20.5 -57l-2 -4q-4 0 -30 -74.5t-26 -77.5q-3 -6 -13 -7.5t-17 -8.5q-2 0 -8 5t-11 5 q-3 -1 -7.5 3.5t-4.5 6.5q-4 5 -8 7q-16 9 -16.5 21z" />
<glyph unicode="&#xbf;" horiz-adv-x="391" d="M22 153q0 14 0.5 29t2 29.5t4 28t6.5 24.5q0 8 3 13.5t3 7.5l2 14l100 229q4 2 4 7l5 6l2 6q0 1 10.5 36.5t16 80.5t-0.5 127q-2 6 -2.5 17.5t-1.5 19.5t-4 10q-2 6 -2 16q-4 26 23.5 37.5t50.5 -4.5q0 -2 2 -2.5t4 0.5q18 -7 18 -41q3 -17 7 -46t0 -108t-27 -147 q-32 -81 -37 -86q-10 -29 -10 -35q-4 -4 -6 -4q-33 -76 -39 -94q-34 -51 -41 -161.5t35 -154.5q41 4 45 6q13 8 29 29t18 23q1 0 7 14t11.5 35t5.5 37q2 5 1 54t1 60q2 4 5.5 1t6.5 -9.5t5 -3.5t2 20q7 2 12 2.5t8 0.5t5.5 -2.5l3 -3t2 -4.5t1.5 -5q17 -52 15.5 -107.5 t-20 -99.5t-51 -75.5t-76.5 -36t-97 19.5q-36 37 -47.5 51.5t-12 28t-3.5 20.5l-1 5q0 5 -0.5 13.5t-1.5 19.5t-1.5 24.5t-0.5 27.5zM156 1034q0 30 13.5 43.5t30.5 10.5t32.5 -13t19.5 -22q2 -6 0.5 -15.5t-4.5 -9.5q-2 0 -2 -2q0 -18 -42 -18h-5q-19 -2 -28 2.5t-15 23.5z " />
<glyph unicode="&#xc0;" horiz-adv-x="452" d="M31 0q-7 15 7.5 151t34.5 305.5t23 225.5q4 61 23 175.5t22 133.5q3 35 31 135q6 36 10 43q3 4 10.5 28.5t16.5 27.5q10 3 16 -3.5t7 -18.5t0.5 -21t-1.5 -17q10 5 11 6l-2 -12l12 19q6 9 11.5 10t15.5 -2q37 -8 51 -51q5 -5 4.5 -48t-0.5 -49l2 -84q1 -3 9 -99.5 t17 -193.5t13 -108q1 -4 13 -5.5t15 -4.5q32 -27 21 -51q-5 -18 -22.5 -18.5t-18.5 -4.5l6 -84q2 -3 4 -72q3 -65 6.5 -109t6 -59t8 -40t6.5 -33q4 -23 5 -35t-5.5 -15.5t-12 -2.5t-14.5 3.5t-12 2.5l-2 -1q-2 -2 -4.5 -3t-6.5 -2t-10 0.5t-14 5.5q-10 7 -13 16 q-6 23 -28 352q0 76 -7 79q-2 1 -9 -1q-2 0 -40 0.5t-40 -4.5q-10 -6 -43 -6q-1 0 -6.5 2t-9.5 2t-5 -4q-7 -13 -23 -243t-22 -236q-3 -1 -6.5 3.5t-3.5 6.5q1 6 -5 1l-9 -9q-10 2 -19.5 2t-12.5 0.5t-5.5 3t-5.5 10.5zM94 1593q0 7 7 17t12 10q6 4 14 0q2 -2 5.5 -2h6 t2.5 -2q4 -4 13.5 -9t15.5 -11t10 -17q24 -40 46.5 -86t33.5 -72l10 -26q2 -3 9 -15.5t10.5 -19.5l9.5 -19t8 -19.5t3.5 -16.5t-1 -14.5t-8.5 -8.5l-12 -6q-42 -13 -72 27l-4 6q0 13 -26 74t-52 116l-26 55q-15 27 -15 39zM102 217l2 4l1 9l-1 -1zM117 350l2 4q0 4 -2 6 q-4 0 0 -10zM119 367q3 3 0 6v-6zM119 404.5q1 -7.5 2.5 -16t1.5 -11.5q9 26 4 31q-1 1 -3 -0.5t-3 2.5q0 4 -2 4q-1 -2 0 -9.5zM124 421l1 7q0 -6 3 -6q8 -2 -3 29v8q-6 0 -1 -34v-4zM132 541q0 -6 1 -6v6q3 3 0 6q-1 0 -1 -6zM156 540q1 -1 20 -1q15 3 43 5t49 2l21 1 q4 4 -8 98q-10 112 -13 135q-12 114 -18 312q-1 28 -3 29q-2 0 -7 -17q-3 -10 -9 -33q-24 -110 -37 -193t-23 -188.5t-11 -109.5q-6 -38 -4 -40z" />
<glyph unicode="&#xc1;" horiz-adv-x="452" d="M31 0q-7 15 7.5 151t34.5 305.5t23 225.5q4 61 23 175.5t22 133.5q3 35 31 135q6 36 10 43q3 4 10.5 28.5t16.5 27.5q10 3 16 -3.5t7 -18.5t0.5 -21t-1.5 -17q10 5 11 6l-2 -12l12 19q6 9 11.5 10t15.5 -2q37 -8 51 -51q5 -5 4.5 -48t-0.5 -49l2 -84q1 -3 9 -99.5 t17 -193.5t13 -108q1 -4 13 -5.5t15 -4.5q32 -27 21 -51q-5 -18 -22.5 -18.5t-18.5 -4.5l6 -84q2 -3 4 -72q3 -65 6.5 -109t6 -59t8 -40t6.5 -33q4 -23 5 -35t-5.5 -15.5t-12 -2.5t-14.5 3.5t-12 2.5l-2 -1q-2 -2 -4.5 -3t-6.5 -2t-10 0.5t-14 5.5q-10 7 -13 16 q-6 23 -28 352q0 76 -7 79q-2 1 -9 -1q-2 0 -40 0.5t-40 -4.5q-10 -6 -43 -6q-1 0 -6.5 2t-9.5 2t-5 -4q-7 -13 -23 -243t-22 -236q-3 -1 -6.5 3.5t-3.5 6.5q1 6 -5 1l-9 -9q-10 2 -19.5 2t-12.5 0.5t-5.5 3t-5.5 10.5zM102 217l2 4l1 9l-1 -1zM117 350l2 4q0 4 -2 6 q-4 0 0 -10zM119 367q3 3 0 6v-6zM119 404.5q1 -7.5 2.5 -16t1.5 -11.5q9 26 4 31q-1 1 -3 -0.5t-3 2.5q0 4 -2 4q-1 -2 0 -9.5zM124 421l1 7q0 -6 3 -6q8 -2 -3 29v8q-6 0 -1 -34v-4zM132 541q0 -6 1 -6v6q3 3 0 6q-1 0 -1 -6zM156 540q1 -1 20 -1q15 3 43 5t49 2l21 1 q4 4 -8 98q-10 112 -13 135q-12 114 -18 312q-1 28 -3 29q-2 0 -7 -17q-3 -10 -9 -33q-24 -110 -37 -193t-23 -188.5t-11 -109.5q-6 -38 -4 -40zM207 1339q3 10 36.5 62.5t66.5 100.5l32 48q15 20 27.5 32.5t20 18t15.5 6t10.5 0t9.5 -4.5l7 -5q6 0 13 -9.5t6.5 -25 t-13.5 -28.5q-20 -17 -52.5 -64.5t-62.5 -95t-36 -55.5l-5 -5q-4 -6 -7.5 -9t-12.5 -6t-20 -3t-13 0.5t-6 6.5q-1 2 -10.5 13t-5.5 23z" />
<glyph unicode="&#xc2;" horiz-adv-x="452" d="M31 0q-7 15 7.5 151t34.5 305.5t23 225.5q4 61 23 175.5t22 133.5q3 35 31 135q6 36 10 43q3 4 10.5 28.5t16.5 27.5q10 3 16 -3.5t7 -18.5t0.5 -21t-1.5 -17q10 5 11 6l-2 -12l12 19q6 9 11.5 10t15.5 -2q37 -8 51 -51q5 -5 4.5 -48t-0.5 -49l2 -84q1 -3 9 -99.5 t17 -193.5t13 -108q1 -4 13 -5.5t15 -4.5q32 -27 21 -51q-5 -18 -22.5 -18.5t-18.5 -4.5l6 -84q2 -3 4 -72q3 -65 6.5 -109t6 -59t8 -40t6.5 -33q4 -23 5 -35t-5.5 -15.5t-12 -2.5t-14.5 3.5t-12 2.5l-2 -1q-2 -2 -4.5 -3t-6.5 -2t-10 0.5t-14 5.5q-10 7 -13 16 q-6 23 -28 352q0 76 -7 79q-2 1 -9 -1q-2 0 -40 0.5t-40 -4.5q-10 -6 -43 -6q-1 0 -6.5 2t-9.5 2t-5 -4q-7 -13 -23 -243t-22 -236q-3 -1 -6.5 3.5t-3.5 6.5q1 6 -5 1l-9 -9q-10 2 -19.5 2t-12.5 0.5t-5.5 3t-5.5 10.5zM40.5 1275.5q-2.5 9.5 6.5 27.5t33 36l68 77 q83 95 85 95q13 0 13 2h12q14 0 29.5 -12t31 -29.5t17.5 -19.5q20 -20 22 -20l41 -48v-2q12 -5 39 -34l11 -11q3 0 4.5 -5t3.5 -5q9 -17 8.5 -28t-8 -17.5t-17 -8.5t-18 -1t-12.5 4q0 -6 -33 30.5t-68.5 76.5t-38.5 40q-2 0 -2 2q-4 2 -8 0h-2q0 -4 -6 -4q-17 -15 -23.5 -24 t-21.5 -25q-3 0 -9 -5.5t-11.5 -12t-10.5 -12.5l-6 -7q-2 -7 -36 -41t-52 -39q-4 -5 -12 -1.5t-9 3.5q-10 9 -12 9q-6 0 -8.5 9.5zM102 217l2 4l1 9l-1 -1zM117 350l2 4q0 4 -2 6q-4 0 0 -10zM119 367q3 3 0 6v-6zM119 404.5q1 -7.5 2.5 -16t1.5 -11.5q9 26 4 31 q-1 1 -3 -0.5t-3 2.5q0 4 -2 4q-1 -2 0 -9.5zM124 421l1 7q0 -6 3 -6q8 -2 -3 29v8q-6 0 -1 -34v-4zM132 541q0 -6 1 -6v6q3 3 0 6q-1 0 -1 -6zM156 540q1 -1 20 -1q15 3 43 5t49 2l21 1q4 4 -8 98q-10 112 -13 135q-12 114 -18 312q-1 28 -3 29q-2 0 -7 -17q-3 -10 -9 -33 q-24 -110 -37 -193t-23 -188.5t-11 -109.5q-6 -38 -4 -40z" />
<glyph unicode="&#xc3;" horiz-adv-x="452" d="M31 0q-7 15 7.5 151t34.5 305.5t23 225.5q4 61 23 175.5t22 133.5q3 35 31 135q6 36 10 43q3 4 10.5 28.5t16.5 27.5q10 3 16 -3.5t7 -18.5t0.5 -21t-1.5 -17q10 5 11 6l-2 -12l12 19q6 9 11.5 10t15.5 -2q37 -8 51 -51q5 -5 4.5 -48t-0.5 -49l2 -84q1 -3 9 -99.5 t17 -193.5t13 -108q1 -4 13 -5.5t15 -4.5q32 -27 21 -51q-5 -18 -22.5 -18.5t-18.5 -4.5l6 -84q2 -3 4 -72q3 -65 6.5 -109t6 -59t8 -40t6.5 -33q4 -23 5 -35t-5.5 -15.5t-12 -2.5t-14.5 3.5t-12 2.5l-2 -1q-2 -2 -4.5 -3t-6.5 -2t-10 0.5t-14 5.5q-10 7 -13 16 q-6 23 -28 352q0 76 -7 79q-2 1 -9 -1q-2 0 -40 0.5t-40 -4.5q-10 -6 -43 -6q-1 0 -6.5 2t-9.5 2t-5 -4q-7 -13 -23 -243t-22 -236q-3 -1 -6.5 3.5t-3.5 6.5q1 6 -5 1l-9 -9q-10 2 -19.5 2t-12.5 0.5t-5.5 3t-5.5 10.5zM49 1325q0 25 41 59t68 39q15 4 29 2t30.5 -10t28 -16 t20.5 -15l10 -8l19 -18q0 -2 6.5 -5t9.5 -3q18 0 48 32t30 50l6 4q4 4 11 4q26 -3 41 -17.5t13 -28.5t-9 -24q-30 -63 -66 -80q-19 -9 -34.5 -12.5t-28 -2t-19 4t-17.5 8.5t-14 8q-53 52 -55 52q-13 15 -32 8t-33 -20t-29 -28.5t-19 -17.5q-19 -10 -37 4.5t-18 30.5z M102 217l2 4l1 9l-1 -1zM117 350l2 4q0 4 -2 6q-4 0 0 -10zM119 367q3 3 0 6v-6zM119 404.5q1 -7.5 2.5 -16t1.5 -11.5q9 26 4 31q-1 1 -3 -0.5t-3 2.5q0 4 -2 4q-1 -2 0 -9.5zM124 421l1 7q0 -6 3 -6q8 -2 -3 29v8q-6 0 -1 -34v-4zM132 541q0 -6 1 -6v6q3 3 0 6q-1 0 -1 -6 zM156 540q1 -1 20 -1q15 3 43 5t49 2l21 1q4 4 -8 98q-10 112 -13 135q-12 114 -18 312q-1 28 -3 29q-2 0 -7 -17q-3 -10 -9 -33q-24 -110 -37 -193t-23 -188.5t-11 -109.5q-6 -38 -4 -40z" />
<glyph unicode="&#xc4;" horiz-adv-x="452" d="M31 0q-7 15 7.5 151t34.5 305.5t23 225.5q4 61 23 175.5t22 133.5q3 35 31 135q6 36 10 43q3 4 10.5 28.5t16.5 27.5q10 3 16 -3.5t7 -18.5t0.5 -21t-1.5 -17q10 5 11 6l-2 -12l12 19q6 9 11.5 10t15.5 -2q37 -8 51 -51q5 -5 4.5 -48t-0.5 -49l2 -84q1 -3 9 -99.5 t17 -193.5t13 -108q1 -4 13 -5.5t15 -4.5q32 -27 21 -51q-5 -18 -22.5 -18.5t-18.5 -4.5l6 -84q2 -3 4 -72q3 -65 6.5 -109t6 -59t8 -40t6.5 -33q4 -23 5 -35t-5.5 -15.5t-12 -2.5t-14.5 3.5t-12 2.5l-2 -1q-2 -2 -4.5 -3t-6.5 -2t-10 0.5t-14 5.5q-10 7 -13 16 q-6 23 -28 352q0 76 -7 79q-2 1 -9 -1q-2 0 -40 0.5t-40 -4.5q-10 -6 -43 -6q-1 0 -6.5 2t-9.5 2t-5 -4q-7 -13 -23 -243t-22 -236q-3 -1 -6.5 3.5t-3.5 6.5q1 6 -5 1l-9 -9q-10 2 -19.5 2t-12.5 0.5t-5.5 3t-5.5 10.5zM102 217l2 4l1 9l-1 -1zM117 350l2 4q0 4 -2 6 q-4 0 0 -10zM119 367q3 3 0 6v-6zM119 404.5q1 -7.5 2.5 -16t1.5 -11.5q9 26 4 31q-1 1 -3 -0.5t-3 2.5q0 4 -2 4q-1 -2 0 -9.5zM124 421l1 7q0 -6 3 -6q8 -2 -3 29v8q-6 0 -1 -34v-4zM132 541q0 -6 1 -6v6q3 3 0 6q-1 0 -1 -6zM135 1341q1 2 2 7t2 6q0 3 8.5 11.5t10.5 8.5 l8 -4q6 -2 15 -2.5t15.5 -0.5t11.5 -3.5t5 -11.5q0 -4 5 -18t-1 -19q0 -10 -16 -23.5t-33 -5.5l-5 2.5t-4.5 2t-3.5 2t-3 2t-3 2t-3 2.5t-2.5 3l-3 4t-3.5 5q-8 16 -2 30zM156 540q1 -1 20 -1q15 3 43 5t49 2l21 1q4 4 -8 98q-10 112 -13 135q-12 114 -18 312q-1 28 -3 29 q-2 0 -7 -17q-3 -10 -9 -33q-24 -110 -37 -193t-23 -188.5t-11 -109.5q-6 -38 -4 -40zM279.5 1344q9.5 22 35.5 22q25 10 47 -12q0 -2 3.5 -10.5t4 -15.5t-4.5 -19q-9 -16 -28 -20t-33.5 -0.5t-14.5 7.5l-8 13q-11 13 -1.5 35z" />
<glyph unicode="&#xc5;" horiz-adv-x="452" d="M31 0q-7 15 7.5 151t34.5 305.5t23 225.5q4 61 23 175.5t22 133.5q3 35 31 135q6 36 10 43q3 4 10.5 28.5t16.5 27.5q10 3 16 -3.5t7 -18.5t0.5 -21t-1.5 -17q10 5 11 6l-2 -12l12 19q6 9 11.5 10t15.5 -2q37 -8 51 -51q5 -5 4.5 -48t-0.5 -49l2 -84q1 -3 9 -99.5 t17 -193.5t13 -108q1 -4 13 -5.5t15 -4.5q32 -27 21 -51q-5 -18 -22.5 -18.5t-18.5 -4.5l6 -84q2 -3 4 -72q3 -65 6.5 -109t6 -59t8 -40t6.5 -33q4 -23 5 -35t-5.5 -15.5t-12 -2.5t-14.5 3.5t-12 2.5l-2 -1q-2 -2 -4.5 -3t-6.5 -2t-10 0.5t-14 5.5q-10 7 -13 16 q-6 23 -28 352q0 76 -7 79q-2 1 -9 -1q-2 0 -40 0.5t-40 -4.5q-10 -6 -43 -6q-1 0 -6.5 2t-9.5 2t-5 -4q-7 -13 -23 -243t-22 -236q-3 -1 -6.5 3.5t-3.5 6.5q1 6 -5 1l-9 -9q-10 2 -19.5 2t-12.5 0.5t-5.5 3t-5.5 10.5zM96 1507q0 7 2 9q0 16 17.5 54.5t46.5 67.5q3 3 23 17 t24 14t4 2l2 2h6q20 18 61 14t56 -20q16 -9 28.5 -28t17.5 -32.5t5 -17.5q2 -4 7.5 -31.5t9 -62t-4.5 -55.5q-2 -2 -2 -4q0 -20 -7 -43.5t-11 -30.5q-7 -23 -25.5 -43t-30 -27t-34.5 -20l-10 -4q-17 -4 -31 -5t-26 2t-18.5 5.5t-18.5 9t-17 8.5q-43 44 -64 110t-10 109z M102 217l2 4l1 9l-1 -1zM117 350l2 4q0 4 -2 6q-4 0 0 -10zM119 367q3 3 0 6v-6zM119 404.5q1 -7.5 2.5 -16t1.5 -11.5q9 26 4 31q-1 1 -3 -0.5t-3 2.5q0 4 -2 4q-1 -2 0 -9.5zM124 421l1 7q0 -6 3 -6q8 -2 -3 29v8q-6 0 -1 -34v-4zM132 541q0 -6 1 -6v6q3 3 0 6q-1 0 -1 -6 zM156 540q1 -1 20 -1q15 3 43 5t49 2l21 1q4 4 -8 98q-10 112 -13 135q-12 114 -18 312q-1 28 -3 29q-2 0 -7 -17q-3 -10 -9 -33q-24 -110 -37 -193t-23 -188.5t-11 -109.5q-6 -38 -4 -40zM156.5 1478.5q-1.5 -10.5 3.5 -37.5t22 -71q20 -29 41.5 -37.5t39 0.5t31.5 24 t22 30.5t8 23.5q10 8 12 52t-7.5 91.5t-29.5 59.5q-6 4 -25 3.5t-24 -5.5q-20 -6 -45 -31l-29 -39q-3 -16 -10.5 -34.5t-9 -29z" />
<glyph unicode="&#xc6;" horiz-adv-x="677" d="M46 44q-10 27 10 183q5 39 18 144q25 186 41 315q18 142 26 326q6 168 44 194.5t260 18.5q39 -1 61 -2q100 -4 103 -47q2 -23 -21 -38q-3 -2 -6 -3q-17 -7 -39.5 -4t-47 6.5t-44.5 5.5t-31.5 -7.5t-9.5 -31.5q8 -73 2 -198.5t2 -166.5q50 -7 81.5 -2.5t59.5 4t47 -13.5 q-2 -53 -8 -61q-9 -13 -60 -13q-108 -2 -112 -2q-8 -5 -8.5 -275t2.5 -280q41 -8 76 -7.5t61 3.5t40.5 -6.5t14.5 -36.5q-1 -38 -18 -44.5t-95 -3.5q-48 2 -79 3q-39 1 -58.5 28.5t-21.5 73.5t-1 106t3.5 125.5t-8.5 131.5q-76 21 -160 14q-23 -71 -28.5 -187.5t-15 -191.5 t-44.5 -88q-3 2 -9 4q-23 11 -27 24zM182 575q18 -6 75 -7.5t75 3.5q0 439 -3 493q-6 79 -27 91q-9 4 -48 2h-16q-15 -50 -36.5 -302t-19.5 -280z" />
<glyph unicode="&#xc7;" horiz-adv-x="417" d="M28.5 385q-3.5 180 9.5 351t44 308.5t74 169.5q15 9 27 13t19 5.5t9 2.5q5 1 19.5 2t38.5 -12t40 -37q15 -21 22.5 -50.5t0.5 -52.5q-3 -10 -21.5 -14.5t-27.5 0.5q-11 4 -16.5 29.5t-14.5 50.5t-27 29q-11 2 -23 -4.5t-12 -18.5q0 -3 -13 -25t-13 -28q-58 -213 -58 -279 q2 -16 -1 -191.5t3.5 -349t30.5 -214.5q9 -15 47 23.5t71.5 88.5t33.5 64t6.5 31t17.5 18q66 12 74 -25q3 -23 -12 -34h-4q-53 -128 -162 -222q-10 -10 -14 -12q3 -9 0 -27q-2 -7 -3.5 -19t-3.5 -17q-2 0 -2 -14t2 -17l17 -8q24 -12 41 -31t22 -32l6 -13q0 -2 4.5 -16 t7 -28.5t-0.5 -35.5q0 -3 -1 -8.5t-1 -14.5q-2 -2 -2 -14l-7 -24q-6 -46 -32 -72q-14 -19 -32.5 -28t-34.5 -8t-29 6t-20.5 13t-6.5 15q7 15 30.5 27.5t36.5 46.5q11 37 12.5 72t-13.5 62t-48 27q-9 9 -16 9q0 4 -12 8q-5 5 -7 6.5t-2.5 3t-2 6.5t-5.5 12q-1 8 2.5 15 t3.5 16l4 10q7 7 7 31q8 32 4 43q-47 8 -62 84q-21 117 -24.5 297z" />
<glyph unicode="&#xc8;" horiz-adv-x="417" d="M46 805q-8 362 34 379q7 3 16 -6q3 -1 4 0.5t0.5 3.5t1.5 2t8.5 9.5t8.5 10.5q15 11 34.5 15.5t48 5.5t42.5 4q35 0 37 2t6.5 2t22.5 -1t38 -1l41 -8q1 -6 13 -16.5t14 -18.5q2 -13 -7 -30t-22 -17q-19 0 -58.5 2t-60.5 2l-63 -10q-25 -6 -39 -1t-21 7t-8.5 -5t-1.5 -36 q0 -37 -1.5 -73t-3.5 -57.5t-3 -39t0 -25t4 -8.5q1 0 62 4t79 -8q1 -1 4.5 -3t6 -3.5t4.5 -1.5q3 0 7.5 -10.5t6.5 -10.5q5 -1 1 -17.5t-7 -19.5q-6 -9 -13 -13t-12 -3.5t-12 1.5t-8 1q-9 3 -17.5 3.5t-14 0t-19.5 -2.5t-25 -3q-9 0 -22 1q-18 2 -21 -5.5t0 -54.5 q1 -22 2 -37q7 -78 11 -271.5t12 -312.5q0 -18 2 -28t4.5 -15.5t10.5 -4.5t13 2t21 7.5t26 9.5q1 0 21.5 7t35 9.5t34 -2.5t30.5 -22q8 -19 0.5 -33t-14.5 -18q-2 -1 -7 -1t-7 -1q-8 -4 -34.5 -5t-37.5 -9q-16 -14 -148 -27q-2 0 -9 -1.5t-11 1.5q-16 0 -16 4q-16 17 -9 39 q1 2 0 2.5t-2 0.5q-3 -1 -4 1q8 12 8 14l4 33q1 31 1 86l-1 22q-1 21 -3 53.5t-3.5 67.5t-2.5 67.5t-1 49.5q0 32 2.5 64.5t2.5 39.5t-3 23q-9 26 -13 238zM88 1647q0 7 6.5 16.5t11.5 9.5q6 4 15 0q2 -2 5.5 -2h6t2.5 -2q4 -4 13.5 -9t15.5 -11t10 -17q24 -40 46.5 -86 t33.5 -72l10 -26q2 -3 9 -15.5t10.5 -19.5l9.5 -19t8 -19.5t3.5 -16.5t-1 -14.5t-8.5 -8.5l-12 -6q-42 -13 -72 27l-4 6q0 13 -26.5 74.5t-52.5 116.5l-26 55q-14 27 -14 39z" />
<glyph unicode="&#xc9;" horiz-adv-x="417" d="M46 805q-8 362 34 379q7 3 16 -6q3 -1 4 0.5t0.5 3.5t1.5 2t8.5 9.5t8.5 10.5q15 11 34.5 15.5t48 5.5t42.5 4q35 0 37 2t6.5 2t22.5 -1t38 -1l41 -8q1 -6 13 -16.5t14 -18.5q2 -13 -7 -30t-22 -17q-19 0 -58.5 2t-60.5 2l-63 -10q-25 -6 -39 -1t-21 7t-8.5 -5t-1.5 -36 q0 -37 -1.5 -73t-3.5 -57.5t-3 -39t0 -25t4 -8.5q1 0 62 4t79 -8q1 -1 4.5 -3t6 -3.5t4.5 -1.5q3 0 7.5 -10.5t6.5 -10.5q5 -1 1 -17.5t-7 -19.5q-6 -9 -13 -13t-12 -3.5t-12 1.5t-8 1q-9 3 -17.5 3.5t-14 0t-19.5 -2.5t-25 -3q-9 0 -22 1q-18 2 -21 -5.5t0 -54.5 q1 -22 2 -37q7 -78 11 -271.5t12 -312.5q0 -18 2 -28t4.5 -15.5t10.5 -4.5t13 2t21 7.5t26 9.5q1 0 21.5 7t35 9.5t34 -2.5t30.5 -22q8 -19 0.5 -33t-14.5 -18q-2 -1 -7 -1t-7 -1q-8 -4 -34.5 -5t-37.5 -9q-16 -14 -148 -27q-2 0 -9 -1.5t-11 1.5q-16 0 -16 4q-16 17 -9 39 q1 2 0 2.5t-2 0.5q-3 -1 -4 1q8 12 8 14l4 33q1 31 1 86l-1 22q-1 21 -3 53.5t-3.5 67.5t-2.5 67.5t-1 49.5q0 32 2.5 64.5t2.5 39.5t-3 23q-9 26 -13 238zM200.5 1378.5q-2.5 5.5 0.5 14.5q3 10 36.5 62.5t66.5 100.5l32 48q15 20 27.5 32.5t20 18t15.5 6t10.5 0t9.5 -4.5 l7 -5q6 0 13 -9.5t6.5 -25.5t-13.5 -29q-20 -17 -52.5 -64.5t-62.5 -95t-36 -55.5l-5 -6q-4 -5 -7.5 -7.5t-12.5 -5.5t-20 -3h-6.5h-4.5t-2.5 0.5t-2.5 1.5t-3 4q-2 5 -8 11t-8.5 11.5z" />
<glyph unicode="&#xca;" horiz-adv-x="417" d="M34.5 1329q-2.5 10 6.5 28t33 36l68 77q83 95 85 95q13 0 13 2h12q14 0 29.5 -12t30.5 -30t18 -20q20 -20 22 -20l41 -47v-2q12 -6 39 -35l10 -10q3 0 5 -5.5t4 -5.5q14 -26 4 -41t-27.5 -14t-24.5 4q0 -6 -33 31t-68 77t-38 40q-2 0 -2 2q-4 2 -8 0h-2q0 -4 -6 -4 q-17 -15 -23 -24.5t-22 -25.5q-3 0 -9 -5.5t-11.5 -11.5t-10.5 -12l-6 -7q-2 -7 -36 -41t-52 -39q-4 -5 -12 -1.5t-9 3.5q-10 8 -12 8q-6 0 -8.5 10zM46 805q-8 362 34 379q7 3 16 -6q3 -1 4 0.5t0.5 3.5t1.5 2t8.5 9.5t8.5 10.5q15 11 34.5 15.5t48 5.5t42.5 4q35 0 37 2 t6.5 2t22.5 -1t38 -1l41 -8q1 -6 13 -16.5t14 -18.5q2 -13 -7 -30t-22 -17q-19 0 -58.5 2t-60.5 2l-63 -10q-25 -6 -39 -1t-21 7t-8.5 -5t-1.5 -36q0 -37 -1.5 -73t-3.5 -57.5t-3 -39t0 -25t4 -8.5q1 0 62 4t79 -8q1 -1 4.5 -3t6 -3.5t4.5 -1.5q3 0 7.5 -10.5t6.5 -10.5 q5 -1 1 -17.5t-7 -19.5q-6 -9 -13 -13t-12 -3.5t-12 1.5t-8 1q-9 3 -17.5 3.5t-14 0t-19.5 -2.5t-25 -3q-9 0 -22 1q-18 2 -21 -5.5t0 -54.5q1 -22 2 -37q7 -78 11 -271.5t12 -312.5q0 -18 2 -28t4.5 -15.5t10.5 -4.5t13 2t21 7.5t26 9.5q1 0 21.5 7t35 9.5t34 -2.5 t30.5 -22q8 -19 0.5 -33t-14.5 -18q-2 -1 -7 -1t-7 -1q-8 -4 -34.5 -5t-37.5 -9q-16 -14 -148 -27q-2 0 -9 -1.5t-11 1.5q-16 0 -16 4q-16 17 -9 39q1 2 0 2.5t-2 0.5q-3 -1 -4 1q8 12 8 14l4 33q1 31 1 86l-1 22q-1 21 -3 53.5t-3.5 67.5t-2.5 67.5t-1 49.5q0 32 2.5 64.5 t2.5 39.5t-3 23q-9 26 -13 238z" />
<glyph unicode="&#xcb;" horiz-adv-x="417" d="M46 805q-8 362 34 379q7 3 16 -6q3 -1 4 0.5t0.5 3.5t1.5 2t8.5 9.5t8.5 10.5q15 11 34.5 15.5t48 5.5t42.5 4q35 0 37 2t6.5 2t22.5 -1t38 -1l41 -8q1 -6 13 -16.5t14 -18.5q2 -13 -7 -30t-22 -17q-19 0 -58.5 2t-60.5 2l-63 -10q-25 -6 -39 -1t-21 7t-8.5 -5t-1.5 -36 q0 -37 -1.5 -73t-3.5 -57.5t-3 -39t0 -25t4 -8.5q1 0 62 4t79 -8q1 -1 4.5 -3t6 -3.5t4.5 -1.5q3 0 7.5 -10.5t6.5 -10.5q5 -1 1 -17.5t-7 -19.5q-6 -9 -13 -13t-12 -3.5t-12 1.5t-8 1q-9 3 -17.5 3.5t-14 0t-19.5 -2.5t-25 -3q-9 0 -22 1q-18 2 -21 -5.5t0 -54.5 q1 -22 2 -37q7 -78 11 -271.5t12 -312.5q0 -18 2 -28t4.5 -15.5t10.5 -4.5t13 2t21 7.5t26 9.5q1 0 21.5 7t35 9.5t34 -2.5t30.5 -22q8 -19 0.5 -33t-14.5 -18q-2 -1 -7 -1t-7 -1q-8 -4 -34.5 -5t-37.5 -9q-16 -14 -148 -27q-2 0 -9 -1.5t-11 1.5q-16 0 -16 4q-16 17 -9 39 q1 2 0 2.5t-2 0.5q-3 -1 -4 1q8 12 8 14l4 33q1 31 1 86l-1 22q-1 21 -3 53.5t-3.5 67.5t-2.5 67.5t-1 49.5q0 32 2.5 64.5t2.5 39.5t-3 23q-9 26 -13 238zM129 1395q1 2 2 6.5t2 5.5q0 3 8.5 11.5t10.5 8.5l8 -4q6 -2 15 -2.5t15.5 -0.5t11.5 -3.5t5 -11.5q0 -4 5 -17.5 t-1 -19.5q0 -10 -16 -23.5t-33 -5.5l-5 2.5t-4.5 2t-3.5 2t-3 2t-3 2t-3 2.5t-2.5 3l-3 4t-3.5 5q-8 16 -2 31zM273 1397.5q10 21.5 36 21.5q25 10 47 -12q0 -2 3 -10.5t3.5 -15.5t-4.5 -19q-9 -16 -27.5 -20t-33 0t-14.5 8l-9 12q-11 14 -1 35.5z" />
<glyph unicode="&#xcc;" horiz-adv-x="196" d="M-47 1628q0 7 6.5 17t11.5 10q6 4 15 0q2 -2 5.5 -2h6t2.5 -2q4 -4 13.5 -9t15.5 -11t10 -17q24 -40 46.5 -86t32.5 -72l11 -26q2 -3 9 -15.5t10.5 -19.5l9.5 -19t8 -19.5t3.5 -16.5t-1 -14.5t-8.5 -8.5l-12 -6q-42 -14 -72 26l-4 6q0 13 -26 74.5t-52 116.5l-27 55 q-14 27 -14 39zM49.5 357.5q-3.5 287.5 3 560.5t31.5 294q32 19 46 -31t14 -150t-3 -234.5t-5.5 -285.5t7.5 -302q1 -22 5.5 -57.5t7 -59t2.5 -47.5t-6.5 -36t-20.5 -11q-14 0 -25.5 1.5t-19 5t-13.5 6t-9.5 8.5t-6 9t-3.5 10.5t-1 9.5v10v8q0 4 -3.5 291.5z" />
<glyph unicode="&#xcd;" horiz-adv-x="196" d="M49.5 357.5q-3.5 287.5 3 560.5t31.5 294q32 19 46 -31t14 -150t-3 -234.5t-5.5 -285.5t7.5 -302q1 -22 5.5 -57.5t7 -59t2.5 -47.5t-6.5 -36t-20.5 -11q-14 0 -25.5 1.5t-19 5t-13.5 6t-9.5 8.5t-6 9t-3.5 10.5t-1 9.5v10v8q0 4 -3.5 291.5zM65.5 1359.5 q-2.5 5.5 0.5 14.5q3 10 36.5 62.5t65.5 100.5l33 48q15 20 27.5 32.5t20 18t15.5 6t10.5 0t9.5 -5.5l7 -4q6 0 13 -9.5t6.5 -25t-13.5 -28.5q-20 -17 -53 -64.5t-63 -95t-36 -55.5l-5 -6q-4 -5 -7.5 -8t-12.5 -6t-20 -3h-13t-5 6q-2 5 -8 11t-8.5 11.5z" />
<glyph unicode="&#xce;" horiz-adv-x="196" d="M-100.5 1310q-2.5 10 6.5 28t33 36l68 77q83 95 85 95q12 0 12 2h13q14 0 29.5 -12t31 -29.5t17.5 -19.5q21 -21 22 -21l41 -47v-2q12 -6 39 -35l10 -10q3 0 4.5 -5t3.5 -5q9 -17 8.5 -28t-8 -17.5t-17 -8.5t-18 -1t-12.5 4q0 -6 -33 30.5t-68 76.5t-38 40q-2 0 -2 2 q-4 2 -8 0h-2q0 -4 -6 -4q-17 -15 -23 -24.5t-22 -24.5q-3 0 -9 -5.5t-11.5 -12t-11.5 -13.5l-5 -6q-2 -7 -36 -41t-52 -39q-4 -4 -12 -1t-9 3q-10 8 -12 8q-6 0 -8.5 10zM49.5 357.5q-3.5 287.5 3 560.5t31.5 294q32 19 46 -31t14 -150t-3 -234.5t-5.5 -285.5t7.5 -302 q1 -22 5.5 -57.5t7 -59t2.5 -47.5t-6.5 -36t-20.5 -11q-14 0 -25.5 1.5t-19 5t-13.5 6t-9.5 8.5t-6 9t-3.5 10.5t-1 9.5v10v8q0 4 -3.5 291.5z" />
<glyph unicode="&#xcf;" horiz-adv-x="196" d="M-6 1376q1 2 2 7t2 6q0 3 8 11.5t10 8.5l9 -4q6 -3 19 -3t20.5 -3t7.5 -13q0 -4 5 -17t-1 -19q0 -10 -16 -23.5t-33 -5.5l-5 2.5t-4.5 2t-3.5 2t-3 2t-3 2t-3 2.5t-2.5 3l-3 4t-3.5 5q-8 16 -2 30zM49.5 357.5q-3.5 287.5 3 560.5t31.5 294q32 19 46 -31t14 -150 t-3 -234.5t-5.5 -285.5t7.5 -302q1 -22 5.5 -57.5t7 -59t2.5 -47.5t-6.5 -36t-20.5 -11q-14 0 -25.5 1.5t-19 5t-13.5 6t-9.5 8.5t-6 9t-3.5 10.5t-1 9.5v10v8q0 4 -3.5 291.5zM138 1378.5q10 22.5 36 22.5q25 10 47 -12q0 -2 3 -11t3.5 -16t-4.5 -19q-9 -16 -28 -20 t-33.5 0t-14.5 8l-8 12q-11 13 -1 35.5z" />
<glyph unicode="&#xd0;" horiz-adv-x="393" d="M-72 649q6 11 23 4q20 -4 94 4q0 93 10 383q2 22 4 43.5t1.5 34.5t1.5 25.5t1.5 18.5t3.5 12t4.5 8t9 4t12.5 2t18.5 0.5t23.5 1.5q19 2 32.5 4t18.5 2.5t17.5 1t36.5 0.5q23 0 40.5 -20.5t27.5 -54t16 -64.5t10 -65t6 -42q13 -48 15 -100.5t-2.5 -122.5t-4.5 -100 q0 -242 -5.5 -365.5t-16 -168.5t-31.5 -70q-5 -7 -14 -11t-13 0q-3 3 -45.5 -4.5t-58.5 6.5q-9 5 -12 2.5t-9 -12.5q0 -2 -11 -2.5t-11 2.5l-10 8q-1 -1 -3.5 -6.5t-4.5 -8.5t-5 -1q-33 25 -36 31.5t-3 48.5q0 156 -7 283t-7 210q-92 -12 -108 11q-26 34 -9 67zM131 668h10 q46 0 60 -44q11 -34 -6 -52q-13 -15 -37 3q-7 7 -25 7q4 -175 12 -324.5t13 -155.5q2 -4 11 -8t11 -6q13 -13 15 -12q3 3 4 2q0 1 7 -2q20 -6 20 -2q0 2 -1 4q1 0 6 12t5 14q11 55 20 245.5t4 407t-29 298.5q-3 27 -7 42.5t-11.5 20.5t-13 5t-19 -4t-20.5 -5 q-37 -11 -29 -446z" />
<glyph unicode="&#xd1;" horiz-adv-x="563" d="M67 1099.5q4 98.5 19 104.5q20 5 42.5 -9t27.5 -28q3 -13 14 -20l11 -11q13 -13 16 -18.5t6 -27.5q17 -124 84 -359q15 -52 37.5 -145t23.5 -113q7 -50 30.5 -116t33.5 -103q2 -12 6 -34l4 -19q2 5 2 200v146q0 269 27 633q1 3 5.5 8t4.5 6q0 5 5.5 7t13 1t13.5 -2t9 -2 q1 -1 6.5 -5t10.5 -7t7 -2q12 5 15.5 -14.5t1 -56t-7 -74.5t-9.5 -79.5t-6 -60.5q-10 -153 -10.5 -301.5t4 -242t8 -170t0 -114.5t-17.5 -46q-3 -1 -6.5 -2t-6.5 -2t-6 -1.5t-5.5 -1.5t-4.5 -2t-3 -2.5t-2 -3.5t-1 -4q0 -10 -20 -10q-5 -2 -12.5 1.5t-10.5 0.5 q-3 -4 -7 -4.5t-9.5 1t-6.5 1.5q-22 5 -30 33q1 -1 -22 91.5t-49.5 191.5t-31.5 112q-5 14 -10 59t-20 103l-88 303l-5 -110q-2 -94 7 -169q9 -76 13 -230t3 -270v-116q5 -14 -4.5 -28t-24.5 -13q-2 0 -9 5q-11 8 -11 -1q0 -8 -17 -5q-30 12 -34 46q0 26 8 76q9 72 6.5 199 t-7 286.5t-9.5 300.5t-1 239.5zM72 1049q0 -4 4 0q-2 4 -4 0zM113 1323q0 25 40.5 59t67.5 39q15 4 29.5 2t31 -10.5t28 -16t20.5 -14.5l10 -8l18 -18q0 -1 7 -4.5t10 -3.5q18 0 48 32t30 50l6 4q4 4 10 4q26 -3 41 -17.5t13 -28.5t-9 -24q-31 -63 -65 -80 q-19 -9 -34.5 -12.5t-28 -2t-19 4t-17.5 8.5t-14 8q-53 52 -55 52q-13 15 -32 8t-33 -20t-29 -28.5t-19 -17.5q-19 -10 -37 4.5t-18 30.5z" />
<glyph unicode="&#xd2;" horiz-adv-x="505" d="M66 497.5q7 145.5 19 319t13 189.5q0 56 14.5 105t51.5 83.5t90 28.5q3 0 28 -8t25 -9l19 -14q12 -15 33 -17.5t38 -15.5q6 -6 15.5 -15t14 -14t11 -17.5t11.5 -31.5q8 -43 16 -58q4 -7 1 -60q-8 -152 -15 -351q0 -4 -6 -75t-15.5 -155.5t-15.5 -105.5 q-21 -80 -28.5 -104.5t-18.5 -43t-19 -36.5q-7 -11 -25 -33t-51.5 -50.5t-56.5 -28.5q-1 0 -11 -1t-18.5 -0.5t-20 3t-23 10t-21.5 20.5q-38 39 -50 189.5t-5 296zM123 1634q0 7 6.5 17t11.5 10q6 4 15 0q2 -2 5.5 -2h6t2.5 -2q4 -4 13.5 -9t15.5 -11t10 -17 q24 -40 46.5 -86t32.5 -72l11 -26q2 -3 9 -15.5t10.5 -19.5l9.5 -19t8 -19.5t3.5 -16.5t-1 -14.5t-8.5 -8.5l-12 -6q-42 -14 -72 26l-4 7q0 13 -26 74t-52 116l-27 55q-14 27 -14 39zM158.5 593q-7.5 -190 5.5 -343q2 -30 3 -65.5t1.5 -52.5t4.5 -33.5t13 -26.5 q10 -12 39 18t41 51q30 57 50 174t30.5 240.5t11.5 128.5q0 -2 1.5 29t3 74t2.5 94.5t1.5 91.5t-1.5 65q-3 33 -8 51.5t-10.5 22.5t-12.5 4.5t-14 -1.5t-15 5q-18 9 -18 10q0 3 -7 12t-10 11q-26 25 -50 -21t-30 -83q-6 -40 -15 -153t-16.5 -303zM348 92z" />
<glyph unicode="&#xd3;" horiz-adv-x="505" d="M66 497.5q7 145.5 19 319t13 189.5q0 56 14.5 105t51.5 83.5t90 28.5q3 0 28 -8t25 -9l19 -14q12 -15 33 -17.5t38 -15.5q6 -6 15.5 -15t14 -14t11 -17.5t11.5 -31.5q8 -43 16 -58q4 -7 1 -60q-8 -152 -15 -351q0 -4 -6 -75t-15.5 -155.5t-15.5 -105.5 q-21 -80 -28.5 -104.5t-18.5 -43t-19 -36.5q-7 -11 -25 -33t-51.5 -50.5t-56.5 -28.5q-1 0 -11 -1t-18.5 -0.5t-20 3t-23 10t-21.5 20.5q-38 39 -50 189.5t-5 296zM158.5 593q-7.5 -190 5.5 -343q2 -30 3 -65.5t1.5 -52.5t4.5 -33.5t13 -26.5q10 -12 39 18t41 51 q30 57 50 174t30.5 240.5t11.5 128.5q0 -2 1.5 29t3 74t2.5 94.5t1.5 91.5t-1.5 65q-3 33 -8 51.5t-10.5 22.5t-12.5 4.5t-14 -1.5t-15 5q-18 9 -18 10q0 3 -7 12t-10 11q-26 25 -50 -21t-30 -83q-6 -40 -15 -153t-16.5 -303zM235.5 1365.5q-2.5 5.5 0.5 14.5 q3 10 36.5 62.5t65.5 100.5l33 48q15 20 27.5 32.5t20 18t15.5 6t10.5 0t9.5 -5.5l7 -4q6 0 13 -9.5t6.5 -25t-13.5 -28.5q-20 -17 -53 -64.5t-63 -95t-36 -55.5l-5 -6q-4 -5 -7.5 -8t-12.5 -6t-20 -3h-13t-5 6q-2 5 -8 11t-8.5 11.5zM348 92z" />
<glyph unicode="&#xd4;" horiz-adv-x="505" d="M66 497.5q7 145.5 19 319t13 189.5q0 56 14.5 105t51.5 83.5t90 28.5q3 0 28 -8t25 -9l19 -14q12 -15 33 -17.5t38 -15.5q6 -6 15.5 -15t14 -14t11 -17.5t11.5 -31.5q8 -43 16 -58q4 -7 1 -60q-8 -152 -15 -351q0 -4 -6 -75t-15.5 -155.5t-15.5 -105.5 q-21 -80 -28.5 -104.5t-18.5 -43t-19 -36.5q-7 -11 -25 -33t-51.5 -50.5t-56.5 -28.5q-1 0 -11 -1t-18.5 -0.5t-20 3t-23 10t-21.5 20.5q-38 39 -50 189.5t-5 296zM69.5 1316.5q-2.5 9.5 6.5 27.5t33 36l68 77q83 95 85 95q12 0 12 2h13q14 0 29.5 -12t31 -29.5t17.5 -19.5 q20 -20 22 -20l41 -48v-2q12 -5 39 -34l10 -11q3 0 4.5 -5t3.5 -5q9 -17 8.5 -28t-8 -17.5t-17 -8.5t-18 -1t-12.5 4q0 -6 -33 30.5t-68 76.5t-38 40q-2 0 -2 2q-4 2 -8 0h-2q0 -4 -6 -4q-17 -15 -23 -24.5t-22 -24.5q-3 0 -9 -5.5t-11.5 -12t-11.5 -13.5l-5 -6 q-2 -7 -36 -41t-52 -39q-4 -4 -12 -1t-9 3q-10 9 -12 9q-6 0 -8.5 9.5zM158.5 593q-7.5 -190 5.5 -343q2 -30 3 -65.5t1.5 -52.5t4.5 -33.5t13 -26.5q10 -12 39 18t41 51q30 57 50 174t30.5 240.5t11.5 128.5q0 -2 1.5 29t3 74t2.5 94.5t1.5 91.5t-1.5 65q-3 33 -8 51.5 t-10.5 22.5t-12.5 4.5t-14 -1.5t-15 5q-18 9 -18 10q0 3 -7 12t-10 11q-26 25 -50 -21t-30 -83q-6 -40 -15 -153t-16.5 -303zM348 92z" />
<glyph unicode="&#xd5;" horiz-adv-x="505" d="M66 497.5q7 145.5 19 319t13 189.5q0 56 14.5 105t51.5 83.5t90 28.5q3 0 28 -8t25 -9l19 -14q12 -15 33 -17.5t38 -15.5q6 -6 15.5 -15t14 -14t11 -17.5t11.5 -31.5q8 -43 16 -58q4 -7 1 -60q-8 -152 -15 -351q0 -4 -6 -75t-15.5 -155.5t-15.5 -105.5 q-21 -80 -28.5 -104.5t-18.5 -43t-19 -36.5q-7 -11 -25 -33t-51.5 -50.5t-56.5 -28.5q-1 0 -11 -1t-18.5 -0.5t-20 3t-23 10t-21.5 20.5q-38 39 -50 189.5t-5 296zM78 1366q0 25 40.5 59t67.5 39q15 4 29.5 2t31 -10.5t28 -16t21.5 -15.5l9 -7l19 -18q0 -1 6.5 -4.5 t9.5 -3.5q18 0 48 32t30 50l6 4q4 4 10 4q26 -3 41 -17.5t13 -28.5t-9 -24q-31 -63 -65 -80q-19 -9 -34.5 -12.5t-28 -2t-19 4t-17.5 8.5t-14 8q-53 52 -55 52q-13 15 -32 8t-33 -20t-29 -28.5t-19 -17.5q-19 -10 -37 4.5t-18 30.5zM158.5 593q-7.5 -190 5.5 -343 q2 -30 3 -65.5t1.5 -52.5t4.5 -33.5t13 -26.5q10 -12 39 18t41 51q30 57 50 174t30.5 240.5t11.5 128.5q0 -2 1.5 29t3 74t2.5 94.5t1.5 91.5t-1.5 65q-3 33 -8 51.5t-10.5 22.5t-12.5 4.5t-14 -1.5t-15 5q-18 9 -18 10q0 3 -7 12t-10 11q-26 25 -50 -21t-30 -83 q-6 -40 -15 -153t-16.5 -303zM348 92z" />
<glyph unicode="&#xd6;" horiz-adv-x="505" d="M66 497.5q7 145.5 19 319t13 189.5q0 56 14.5 105t51.5 83.5t90 28.5q3 0 28 -8t25 -9l19 -14q12 -15 33 -17.5t38 -15.5q6 -6 15.5 -15t14 -14t11 -17.5t11.5 -31.5q8 -43 16 -58q4 -7 1 -60q-8 -152 -15 -351q0 -4 -6 -75t-15.5 -155.5t-15.5 -105.5 q-21 -80 -28.5 -104.5t-18.5 -43t-19 -36.5q-7 -11 -25 -33t-51.5 -50.5t-56.5 -28.5q-1 0 -11 -1t-18.5 -0.5t-20 3t-23 10t-21.5 20.5q-38 39 -50 189.5t-5 296zM158.5 593q-7.5 -190 5.5 -343q2 -30 3 -65.5t1.5 -52.5t4.5 -33.5t13 -26.5q10 -12 39 18t41 51 q30 57 50 174t30.5 240.5t11.5 128.5q0 -2 1.5 29t3 74t2.5 94.5t1.5 91.5t-1.5 65q-3 33 -8 51.5t-10.5 22.5t-12.5 4.5t-14 -1.5t-15 5q-18 9 -18 10q0 3 -7 12t-10 11q-26 25 -50 -21t-30 -83q-6 -40 -15 -153t-16.5 -303zM164 1382q1 2 2 7t2 6q0 3 8 11.5t10 8.5l9 -4 q6 -2 15 -2.5t15.5 -0.5t11.5 -3.5t5 -11.5q0 -4 5 -17.5t-1 -19.5q0 -10 -16 -23.5t-33 -5.5l-5 2.5t-4.5 2t-3.5 2t-3 2t-3 2t-3 2.5t-2.5 3l-3 4t-3.5 5q-8 16 -2 30zM308 1385.5q10 21.5 36 21.5q25 10 47 -12q0 -2 3 -10.5t3.5 -15.5t-4.5 -19q-9 -16 -28 -20 t-33.5 -0.5t-14.5 7.5l-8 13q-11 14 -1 35.5zM348 92z" />
<glyph unicode="&#xd7;" d="M301 803q3 9 12.5 15t18.5 5q9 -2 17 -9.5t18 -21t12 -16.5q23 -26 56 -56.5t86 -77t91 -81.5q13 13 29 33q72 84 117 130.5t59 56.5t30 16t25 12q5 3 19.5 4.5t29 -8t11.5 -27.5q-3 -9 -10 -16.5t-22.5 -17.5t-16.5 -11q-90 -90 -213 -225q63 -63 98 -102q4 -4 38 -46.5 t56 -56.5q3 -2 10.5 -6.5t11.5 -7.5t7.5 -8.5t3.5 -12.5q0 -3 1 -12.5t0.5 -15.5t-3 -14.5t-8.5 -15t-17 -11.5q-8 -3 -16.5 3.5t-20 18.5t-22.5 17q-2 2 -8.5 13.5t-7.5 12.5q-47 48 -53 59t-23 27q-35 48 -99 105q-46 -46 -110 -105q-12 -11 -36.5 -28t-42 -32.5 t-26.5 -31.5q-3 -4 -9.5 -14t-12 -14.5t-14.5 -4.5q-8 1 -19 0t-22 2t-15 11q-6 9 -7.5 17.5t2.5 17t11 17t20.5 20t29 24t37.5 30t44.5 37t52.5 47.5t60 58q-16 13 -53.5 43t-54.5 44.5t-46.5 40t-44 43t-31 40.5t-23.5 44t-7 42z" />
<glyph unicode="&#xd8;" horiz-adv-x="505" d="M-133 -164q-2 17 17.5 41t21.5 29q5 8 160 377q-4 117 3.5 275t17.5 291t11 157q0 56 14.5 105t51.5 83.5t90 28.5q3 0 28 -8t25 -9l19 -14q12 -15 33 -17.5t38 -15.5q4 -4 14 -12.5t15 -15t10 -15.5q59 140 90 164q87 56 83 1q-3 -36 -44 -112q-35 -68 -71 -168l-29 -67 q-5 -69 -14 -322q0 -4 -6 -75t-15.5 -155.5t-15.5 -105.5q-21 -80 -28.5 -104.5t-18.5 -43t-19 -36.5q-7 -11 -25 -33t-51.5 -50.5t-56.5 -28.5q-1 0 -11 -1t-18.5 -0.5t-20 3t-23 10t-21.5 20.5q-23 26 -35 82q-9 -21 -20 -53q-5 -15 -18 -46.5t-24 -56.5t-12 -26 q-9 -15 -15.5 -41t-18.5 -44t-41 -30q-16 -6 -35 13q-3 3 -18 6t-17 20zM158 471q132 279 209 469q0 78 -2 98q-3 33 -8 51.5t-10.5 22.5t-12.5 4.5t-14 -1.5t-15 5q-18 9 -18 10q0 3 -7 12t-10 11q-26 25 -50 -21t-30 -83q-4 -33 -10.5 -103.5t-14 -211.5t-7.5 -263z M162 281q2 -10 2 -31q2 -30 3 -65.5t1.5 -52.5t4.5 -33.5t13 -26.5q10 -12 39 18t41 51q30 57 50 174t30.5 240.5t11.5 128.5q2 11 2 27q-160 -343 -198 -430zM348 92z" />
<glyph unicode="&#xd9;" horiz-adv-x="495" d="M54 284.5q0 47.5 3 125t6 151.5t7 188t6 222q0 21 5 82t5 127q-3 45 16.5 59t57.5 -8q14 -12 16.5 -60.5t-1 -89t-7.5 -67.5q-1 -11 -2 -120.5t-6 -261.5t-17 -272q-2 -17 3.5 -91.5t5.5 -94.5q3 -38 9.5 -59t17 -26.5t21 -3t25.5 12.5q21 10 41 12.5t30.5 1.5t19 -1.5 t11 8t2.5 25t-3 53.5q0 4 2.5 13t1.5 15l4 109q19 300 8 688q-5 165 6 197q10 28 39 14q27 -11 35.5 -30t12 -83t-0.5 -189q-4 -228 -4 -405q0 -102 -8 -224t-8 -204q0 -12 2 -28.5t2.5 -25t-0.5 -18.5t-6.5 -17t-16.5 -13q-11 -5 -32 1.5t-27 16.5q-6 9 -8 16t-1.5 10 t-0.5 9q-1 4 -2.5 5t-3 -0.5l-3.5 -3.5t-4 -3q-4 -2 -14 -5t-14 -5q-7 -3 -27 -17t-41.5 -18.5t-54.5 0.5q-27 9 -45 22.5t-31 38t-20 51.5t-9.5 75t-2.5 95.5zM94 1675q0 7 7 17t12 10q6 4 14 0q2 -2 5.5 -2h6t2.5 -2q4 -4 13.5 -9t15.5 -11t10 -17q24 -40 46.5 -86 t33.5 -72l10 -26q2 -3 9 -15.5t10.5 -19.5l9.5 -19t8 -19.5t3.5 -16.5t-1 -14.5t-8.5 -8.5l-12 -6q-42 -14 -72 26l-4 7q0 13 -26 74t-52 116l-26 55q-15 27 -15 39z" />
<glyph unicode="&#xda;" horiz-adv-x="495" d="M54 284.5q0 47.5 3 125t6 151.5t7 188t6 222q0 21 5 82t5 127q-3 45 16.5 59t57.5 -8q14 -12 16.5 -60.5t-1 -89t-7.5 -67.5q-1 -11 -2 -120.5t-6 -261.5t-17 -272q-2 -17 3.5 -91.5t5.5 -94.5q3 -38 9.5 -59t17 -26.5t21 -3t25.5 12.5q21 10 41 12.5t30.5 1.5t19 -1.5 t11 8t2.5 25t-3 53.5q0 4 2.5 13t1.5 15l4 109q19 300 8 688q-5 165 6 197q10 28 39 14q27 -11 35.5 -30t12 -83t-0.5 -189q-4 -228 -4 -405q0 -102 -8 -224t-8 -204q0 -12 2 -28.5t2.5 -25t-0.5 -18.5t-6.5 -17t-16.5 -13q-11 -5 -32 1.5t-27 16.5q-6 9 -8 16t-1.5 10 t-0.5 9q-1 4 -2.5 5t-3 -0.5l-3.5 -3.5t-4 -3q-4 -2 -14 -5t-14 -5q-7 -3 -27 -17t-41.5 -18.5t-54.5 0.5q-27 9 -45 22.5t-31 38t-20 51.5t-9.5 75t-2.5 95.5zM206.5 1406.5q-2.5 5.5 0.5 14.5q3 10 36.5 62.5t66.5 100.5l32 48q15 20 27.5 32.5t20 18t15.5 6t10.5 0 t9.5 -4.5l7 -5q6 0 13 -9.5t6.5 -25t-13.5 -28.5q-20 -17 -52.5 -64.5t-62.5 -95t-36 -55.5l-5 -5q-4 -6 -7.5 -9t-12.5 -6t-20 -3h-6.5h-4.5t-2.5 0.5t-2.5 1.5t-3 4q-2 5 -8 11t-8.5 11.5z" />
<glyph unicode="&#xdb;" horiz-adv-x="495" d="M40.5 1357.5q-2.5 9.5 6.5 27.5t33 36l68 77q83 95 85 95q13 0 13 2h12q14 0 29.5 -12t31 -29.5t17.5 -19.5q21 -21 22 -21l41 -47v-2q12 -5 39 -34l11 -11q3 0 4.5 -5t3.5 -5q9 -17 8.5 -28t-8 -17.5t-17 -8.5t-18 -1t-12.5 4q0 -6 -33 30.5t-68.5 76.5t-38.5 40 q-2 0 -2 2q-4 2 -8 0h-2q0 -4 -6 -4q-17 -15 -23.5 -24t-21.5 -25q-3 0 -9 -5.5t-11.5 -12t-10.5 -12.5l-6 -7q-2 -7 -36 -41t-52 -39q-4 -5 -12 -1.5t-9 3.5q-10 9 -12 9q-6 0 -8.5 9.5zM54 284.5q0 47.5 3 125t6 151.5t7 188t6 222q0 21 5 82t5 127q-3 45 16.5 59t57.5 -8 q14 -12 16.5 -60.5t-1 -89t-7.5 -67.5q-1 -11 -2 -120.5t-6 -261.5t-17 -272q-2 -17 3.5 -91.5t5.5 -94.5q3 -38 9.5 -59t17 -26.5t21 -3t25.5 12.5q21 10 41 12.5t30.5 1.5t19 -1.5t11 8t2.5 25t-3 53.5q0 4 2.5 13t1.5 15l4 109q19 300 8 688q-5 165 6 197q10 28 39 14 q27 -11 35.5 -30t12 -83t-0.5 -189q-4 -228 -4 -405q0 -102 -8 -224t-8 -204q0 -12 2 -28.5t2.5 -25t-0.5 -18.5t-6.5 -17t-16.5 -13q-11 -5 -32 1.5t-27 16.5q-6 9 -8 16t-1.5 10t-0.5 9q-1 4 -2.5 5t-3 -0.5l-3.5 -3.5t-4 -3q-4 -2 -14 -5t-14 -5q-7 -3 -27 -17 t-41.5 -18.5t-54.5 0.5q-27 9 -45 22.5t-31 38t-20 51.5t-9.5 75t-2.5 95.5z" />
<glyph unicode="&#xdc;" horiz-adv-x="495" d="M54 284.5q0 47.5 3 125t6 151.5t7 188t6 222q0 21 5 82t5 127q-3 45 16.5 59t57.5 -8q14 -12 16.5 -60.5t-1 -89t-7.5 -67.5q-1 -11 -2 -120.5t-6 -261.5t-17 -272q-2 -17 3.5 -91.5t5.5 -94.5q3 -38 9.5 -59t17 -26.5t21 -3t25.5 12.5q21 10 41 12.5t30.5 1.5t19 -1.5 t11 8t2.5 25t-3 53.5q0 4 2.5 13t1.5 15l4 109q19 300 8 688q-5 165 6 197q10 28 39 14q27 -11 35.5 -30t12 -83t-0.5 -189q-4 -228 -4 -405q0 -102 -8 -224t-8 -204q0 -12 2 -28.5t2.5 -25t-0.5 -18.5t-6.5 -17t-16.5 -13q-11 -5 -32 1.5t-27 16.5q-6 9 -8 16t-1.5 10 t-0.5 9q-1 4 -2.5 5t-3 -0.5l-3.5 -3.5t-4 -3q-4 -2 -14 -5t-14 -5q-7 -3 -27 -17t-41.5 -18.5t-54.5 0.5q-27 9 -45 22.5t-31 38t-20 51.5t-9.5 75t-2.5 95.5zM135 1423q1 2 2 7t2 6q0 3 8.5 11.5t10.5 8.5l8 -4q6 -2 15 -2.5t15.5 -0.5t11.5 -3.5t5 -11.5q0 -4 5 -18 t-1 -19q0 -10 -16 -23.5t-33 -5.5l-5 2.5t-4.5 2t-3.5 2t-3 2t-3 2t-3 2.5t-2.5 3l-3 4t-3.5 5q-8 16 -2 30zM279.5 1426q9.5 22 35.5 22q25 10 47 -12q0 -2 3.5 -10.5t4 -15.5t-4.5 -19q-9 -16 -28 -20t-33.5 -0.5t-14.5 7.5l-8 13q-11 13 -1.5 35z" />
<glyph unicode="&#xdd;" horiz-adv-x="395" d="M48 573.5q4 13.5 11 57t7 98.5q0 377 12 440q0 3 2 14.5t2 14.5q0 2 -3 -1l5 5q7 16 24.5 11t35 -19t22.5 -23q3 -15 3 -22t-3.5 -25.5t-3.5 -21.5q-5 -30 -6 -196t-11 -283q0 -2 -2 -18t-1.5 -28t5.5 -14q17 -4 29 2q4 1 14 0t20 -3l9 -1q3 1 6.5 3.5t5.5 2.5q4 0 12 -3 q13 -6 18 7q7 21 7 117q2 31 3.5 135t2.5 193t2 92q2 5 -4 32t0 27l2 -2q1 0 6 11.5t5 13.5q11 22 28.5 19t34 -20t17.5 -32q-15 -596 -15 -635q1 -17 -8.5 -204.5t-9.5 -200.5q0 -49 -47 -115q-1 -2 -6.5 -5t-6.5 -5q-1 -1 -0.5 -4t-1.5 -4q-29 -5 -41 -9q-50 -11 -104 25 q-30 19 -41 66.5t-8.5 85t8.5 55.5q1 3 3 10t2.5 8.5t4 6t7.5 2t12 -2.5q3 -1 8.5 -2t7.5 -2t3.5 -5t2.5 -5q3 -2 10 -2.5t11.5 -3t3.5 -10.5l-2 -5q-1 -4 -3 -11.5t-4.5 -17.5t-4 -22t-1.5 -25t2 -28t7 -29q1 -1 2.5 -4.5t2 -4.5t2 -3.5t3 -3.5l3 -2t4 -1.5t5.5 -0.5 q16 0 25 4.5t19.5 22.5t15 61t4.5 113q1 14 2.5 37.5t5 73.5t5.5 83t1 33q-9 15 -37 16t-31 -4q-2 -2 -20 0q-3 0 -4 -0.5t2 -3.5q-4 -2 -37 5t-33 12l2 2q-1 2 -7 6.5t-7 5.5q-26 21 -32 35.5t-2 28zM182 1339q-3 6 0 15q3 10 36.5 62.5t65.5 100.5l33 48q15 20 27.5 32.5 t20 18.5t16 6t11 -0.5t9.5 -5.5l7 -4q6 0 13 -9.5t6.5 -25.5t-13.5 -29q-20 -17 -53 -64.5t-63 -95t-36 -55.5l-4 -5q-5 -6 -8.5 -8.5t-12.5 -5.5t-20 -3h-13t-5 6q-2 5 -8 10.5t-9 11.5z" />
<glyph unicode="&#xde;" horiz-adv-x="454" d="M94 1104q-2 -11 1.5 -251.5t6.5 -283.5q11 -127 7 -557q0 -22 6 -32q36 -11 51.5 -8t30.5 24q0 14 -0.5 56t-0.5 69.5t1 30.5q15 1 47.5 2.5t48 3t41 5.5t38.5 11.5t27 20t19.5 32.5t5.5 47q0 250 -4 283q-1 28 -1 80v103.5t-19.5 96t-57.5 58.5q-39 13 -80.5 11.5 t-81.5 0.5l-2 154q-3 65 -43 67q-24 0 -38 -17q-3 -4 -3 -7zM182 732q-3 55 0 106q69 11 89 3q34 -14 45 -98q11 -82 14 -464q0 -11 -0.5 -18.5t-1.5 -14t-4.5 -10t-6 -7t-9.5 -5t-12 -2.5t-17.5 -1h-21h-26.5h-32q-2 134 -8 295t-9 216z" />
<glyph unicode="&#xdf;" horiz-adv-x="411" d="M-49 -343.5v-4.5v-5v-5q167 -89 190 175q9 97 -4 302q-10 183 -6.5 375t9 317t7.5 141q16 -2 57.5 4t57.5 0q16 -42 13 -154.5t-15 -160.5q-6 -40 -43 -43q-23 -1 -29 -23q-7 -28 31 -46q17 -8 41 -11q11 -2 15 -5.5t7 -20.5t3 -54q1 -273 -4 -323t-33 -58 q-44 -4 -58 -18q-16 -19 7 -39q35 -30 100 -8q31 11 63 33q17 11 17 47q1 64 3 167q4 200 -1 250t-35 76q0 1 2.5 11t5 19.5t5.5 29t5.5 39.5t4.5 50t3 61.5t-0.5 73t-4.5 85.5q-4 41 -42 69t-83 31q-28 1 -43 1.5t-34 -2.5t-26 -4.5t-18.5 -5t-12.5 -3.5q-10 7 -20 10 q-21 -8 -26 -46.5t-6.5 -128.5t-10.5 -161q-16 -130 -12.5 -267t7.5 -269.5t6 -237t-16 -171t-59 -71.5l-6 -2t-4.5 -2.5l-3 -3t-2.5 -4.5l-1.5 -4.5t-0.5 -5z" />
<glyph unicode="&#xe0;" horiz-adv-x="512" d="M33 51q34 122 103 469t89 406q1 6 10 29.5t9 33.5q0 2 -0.5 10t-0.5 12.5t2 9.5t5 7q13 6 28.5 3.5t28.5 -9.5q30 -29 47.5 -111t40.5 -313q5 -45 20 -144.5t19 -152.5q19 -209 46 -399q11 -75 9 -89.5t-26 -24.5q-5 -2 -8 -3q0 1 -5.5 5.5t-7.5 4.5q-35 0 -48.5 68 t-25 236t-28.5 280q-1 4 -2 6t-1.5 3.5t-2.5 2.5l-3 1.5t-4 1t-5 1.5q-5 1 -10.5 -0.5t-6.5 -1.5q-3 0 -9 2t-9 2q-60 0 -74 4q-11 0 -17.5 -33.5t-17 -97t-26.5 -110.5q-2 -6 -10.5 -51.5t-18 -78t-17.5 -32.5q-1 -1 -3 -1h-3.5t-1.5 -1q-3 -2 -7 -1t-9 3l-6 2q-6 7 -11 4 t-8 -2q-15 6 -22.5 20t-1.5 29zM139 1456q0 7 7 17t12 10q6 4 14 0q2 -2 5.5 -2h6t2.5 -2q4 -4 13.5 -9t15.5 -11t10 -17q24 -40 46.5 -86t32.5 -72l11 -27q2 -4 8.5 -15.5t10.5 -19t10 -19t8 -19.5t3.5 -16.5t-1 -14t-8.5 -8.5l-12 -6q-42 -14 -72 26l-4 6q0 13 -26 74.5 t-52 116.5l-26 55q-15 27 -15 39zM217 485q2 -6 49 -6h37h3q20 0 21 6q0 3 -3 18q-6 31 -9 60q-4 46 -12.5 106.5t-14.5 98.5l-7 37q-2 -35 -25 -130t-29 -140q-1 -4 -2 -13.5t-2 -13.5zM453 -215h2h-2z" />
<glyph unicode="&#xe1;" horiz-adv-x="512" d="M33 51q34 122 103 469t89 406q1 6 10 29.5t9 33.5q0 2 -0.5 10t-0.5 12.5t2 9.5t5 7q13 6 28.5 3.5t28.5 -9.5q30 -29 47.5 -111t40.5 -313q5 -45 20 -144.5t19 -152.5q19 -209 46 -399q11 -75 9 -89.5t-26 -24.5q-5 -2 -8 -3q0 1 -5.5 5.5t-7.5 4.5q-35 0 -48.5 68 t-25 236t-28.5 280q-1 4 -2 6t-1.5 3.5t-2.5 2.5l-3 1.5t-4 1t-5 1.5q-5 1 -10.5 -0.5t-6.5 -1.5q-3 0 -9 2t-9 2q-60 0 -74 4q-11 0 -17.5 -33.5t-17 -97t-26.5 -110.5q-2 -6 -10.5 -51.5t-18 -78t-17.5 -32.5q-1 -1 -3 -1h-3.5t-1.5 -1q-3 -2 -7 -1t-9 3l-6 2q-6 7 -11 4 t-8 -2q-15 6 -22.5 20t-1.5 29zM217 485q2 -6 49 -6h37h3q20 0 21 6q0 3 -3 18q-6 31 -9 60q-4 46 -12.5 106.5t-14.5 98.5l-7 37q-2 -35 -25 -130t-29 -140q-1 -4 -2 -13.5t-2 -13.5zM251.5 1187.5q-2.5 5.5 0.5 14.5q3 10 36.5 62.5t65.5 100.5l33 48q15 20 27.5 32.5 t20 18t15.5 6t10.5 0t9.5 -5.5l7 -4q6 0 13 -9.5t6.5 -25t-13.5 -28.5q-20 -17 -52.5 -64.5t-62.5 -95t-36 -55.5l-4 -6q-5 -5 -8.5 -8t-12.5 -6t-20 -3h-6.5h-4.5t-2.5 0.5t-2.5 1.5t-3 4q-2 5 -8 11t-8.5 11.5zM453 -215h2h-2z" />
<glyph unicode="&#xe2;" horiz-adv-x="512" d="M33 51q34 122 103 469t89 406q1 6 10 29.5t9 33.5q0 2 -0.5 10t-0.5 12.5t2 9.5t5 7q13 6 28.5 3.5t28.5 -9.5q30 -29 47.5 -111t40.5 -313q5 -45 20 -144.5t19 -152.5q19 -209 46 -399q11 -75 9 -89.5t-26 -24.5q-5 -2 -8 -3q0 1 -5.5 5.5t-7.5 4.5q-35 0 -48.5 68 t-25 236t-28.5 280q-1 4 -2 6t-1.5 3.5t-2.5 2.5l-3 1.5t-4 1t-5 1.5q-5 1 -10.5 -0.5t-6.5 -1.5q-3 0 -9 2t-9 2q-60 0 -74 4q-11 0 -17.5 -33.5t-17 -97t-26.5 -110.5q-2 -6 -10.5 -51.5t-18 -78t-17.5 -32.5q-1 -1 -3 -1h-3.5t-1.5 -1q-3 -2 -7 -1t-9 3l-6 2q-6 7 -11 4 t-8 -2q-15 6 -22.5 20t-1.5 29zM85.5 1138q-2.5 10 6.5 28t33 36l69 77q83 95 85 95q12 0 12 2h12q14 0 29.5 -12t31 -29.5t17.5 -19.5q21 -21 22 -21l41 -47v-2q12 -6 39 -35l11 -10q3 0 4.5 -5t3.5 -5q9 -17 8.5 -28t-8 -17.5t-17 -8.5t-18 -1t-12.5 4q0 -6 -33 30.5 t-68.5 76.5t-38.5 40q-2 0 -2 2q-4 2 -8 0h-2q0 -4 -6 -4q-17 -15 -23 -24.5t-22 -24.5q-3 0 -9 -5.5t-11.5 -12t-11.5 -13.5l-5 -6q-2 -7 -36 -41t-52 -39q-4 -4 -12 -1t-9 3q-10 8 -12 8q-6 0 -8.5 10zM217 485q2 -6 49 -6h37h3q20 0 21 6q0 3 -3 18q-6 31 -9 60 q-4 46 -12.5 106.5t-14.5 98.5l-7 37q-2 -35 -25 -130t-29 -140q-1 -4 -2 -13.5t-2 -13.5zM453 -215h2h-2z" />
<glyph unicode="&#xe3;" horiz-adv-x="512" d="M33 51q34 122 103 469t89 406q1 6 10 29.5t9 33.5q0 2 -0.5 10t-0.5 12.5t2 9.5t5 7q13 6 28.5 3.5t28.5 -9.5q30 -29 47.5 -111t40.5 -313q5 -45 20 -144.5t19 -152.5q19 -209 46 -399q11 -75 9 -89.5t-26 -24.5q-5 -2 -8 -3q0 1 -5.5 5.5t-7.5 4.5q-35 0 -48.5 68 t-25 236t-28.5 280q-1 4 -2 6t-1.5 3.5t-2.5 2.5l-3 1.5t-4 1t-5 1.5q-5 1 -10.5 -0.5t-6.5 -1.5q-3 0 -9 2t-9 2q-60 0 -74 4q-11 0 -17.5 -33.5t-17 -97t-26.5 -110.5q-2 -6 -10.5 -51.5t-18 -78t-17.5 -32.5q-1 -1 -3 -1h-3.5t-1.5 -1q-3 -2 -7 -1t-9 3l-6 2q-6 7 -11 4 t-8 -2q-15 6 -22.5 20t-1.5 29zM94 1188q0 25 41 59t68 39q15 4 29.5 2t31 -10.5t28 -16t20.5 -15.5l10 -7l18 -18q0 -2 6.5 -5.5t9.5 -3.5q18 0 48 32t30 50l6 4q5 5 11 5q26 -3 41 -17.5t13 -28.5t-9 -24q-30 -63 -66 -80q-19 -9 -34.5 -12.5t-28 -2t-19 4t-17.5 8.5 t-14 8q-53 51 -55 51q-13 15 -32 8.5t-33 -20t-28.5 -28.5t-18.5 -17q-19 -10 -37.5 4.5t-18.5 30.5zM217 485q2 -6 49 -6h37h3q20 0 21 6q0 3 -3 18q-6 31 -9 60q-4 46 -12.5 106.5t-14.5 98.5l-7 37q-2 -35 -25 -130t-29 -140q-1 -4 -2 -13.5t-2 -13.5zM453 -215h2h-2z " />
<glyph unicode="&#xe4;" horiz-adv-x="512" d="M33 51q34 122 103 469t89 406q1 6 10 29.5t9 33.5q0 2 -0.5 10t-0.5 12.5t2 9.5t5 7q13 6 28.5 3.5t28.5 -9.5q30 -29 47.5 -111t40.5 -313q5 -45 20 -144.5t19 -152.5q19 -209 46 -399q11 -75 9 -89.5t-26 -24.5q-5 -2 -8 -3q0 1 -5.5 5.5t-7.5 4.5q-35 0 -48.5 68 t-25 236t-28.5 280q-1 4 -2 6t-1.5 3.5t-2.5 2.5l-3 1.5t-4 1t-5 1.5q-5 1 -10.5 -0.5t-6.5 -1.5q-3 0 -9 2t-9 2q-60 0 -74 4q-11 0 -17.5 -33.5t-17 -97t-26.5 -110.5q-2 -6 -10.5 -51.5t-18 -78t-17.5 -32.5q-1 -1 -3 -1h-3.5t-1.5 -1q-3 -2 -7 -1t-9 3l-6 2q-6 7 -11 4 t-8 -2q-15 6 -22.5 20t-1.5 29zM180 1204q1 2 2 7t2 6q0 3 8.5 11.5t10.5 8.5l8 -4q6 -3 19 -3t20.5 -3t7.5 -13q0 -4 5 -17t-1 -19q0 -10 -16 -23.5t-33 -5.5l-5 2.5t-4.5 2t-3.5 2t-3 2t-3 2t-3 2.5t-2.5 3l-3 4t-3.5 5q-8 16 -2 30zM217 485q2 -6 49 -6h37h3q20 0 21 6 q0 3 -3 18q-6 31 -9 60q-4 46 -12.5 106.5t-14.5 98.5l-7 37q-2 -35 -25 -130t-29 -140q-1 -4 -2 -13.5t-2 -13.5zM324.5 1206.5q9.5 22.5 35.5 22.5q26 10 48 -12q0 -2 3 -11t3.5 -16t-4.5 -19q-9 -16 -28 -20t-33.5 0t-14.5 8l-8 12q-11 13 -1.5 35.5zM453 -215h2h-2z" />
<glyph unicode="&#xe5;" horiz-adv-x="512" d="M33 51q34 122 103 469t89 406q1 6 10 29.5t9 33.5q0 2 -0.5 10t-0.5 12.5t2 9.5t5 7q13 6 28.5 3.5t28.5 -9.5q30 -29 47.5 -111t40.5 -313q5 -45 20 -144.5t19 -152.5q19 -209 46 -399q11 -75 9 -89.5t-26 -24.5q-5 -2 -8 -3q0 1 -5.5 5.5t-7.5 4.5q-35 0 -48.5 68 t-25 236t-28.5 280q-1 4 -2 6t-1.5 3.5t-2.5 2.5l-3 1.5t-4 1t-5 1.5q-5 1 -10.5 -0.5t-6.5 -1.5q-3 0 -9 2t-9 2q-60 0 -74 4q-11 0 -17.5 -33.5t-17 -97t-26.5 -110.5q-2 -6 -10.5 -51.5t-18 -78t-17.5 -32.5q-1 -1 -3 -1h-3.5t-1.5 -1q-3 -2 -7 -1t-9 3l-6 2q-6 7 -11 4 t-8 -2q-15 6 -22.5 20t-1.5 29zM141 1370q0 6 2 8q0 16 17.5 55t46.5 68q3 3 23 17t24 14t4 2l2 2h6q20 18 61 14t56 -20q16 -9 28.5 -28t17.5 -32.5t5 -17.5q2 -4 7.5 -31.5t9 -62t-4.5 -55.5q-2 -3 -2 -5q0 -20 -6.5 -43t-11.5 -30q-7 -23 -25.5 -43t-30 -27t-34.5 -20 l-10 -5q-17 -4 -31 -4.5t-26 2t-19 5.5t-18 9t-17 9q-43 44 -64 110t-10 109zM201.5 1341.5q-1.5 -10.5 3.5 -37.5t22 -71q20 -29 41.5 -37.5t39 0.5t31.5 24t22 30.5t8 23.5q10 8 12 52t-7.5 91.5t-29.5 59.5q-6 4 -25 3.5t-24 -5.5q-20 -6 -45 -31l-29 -39 q-3 -16 -10.5 -34.5t-9 -29zM217 485q2 -6 49 -6h37h3q20 0 21 6q0 3 -3 18q-6 31 -9 60q-4 46 -12.5 106.5t-14.5 98.5l-7 37q-2 -35 -25 -130t-29 -140q-1 -4 -2 -13.5t-2 -13.5zM453 -215h2h-2z" />
<glyph unicode="&#xe6;" horiz-adv-x="778" d="M56 16q-25 219 23 754q7 74 13 127q4 36 17.5 60.5t38.5 37t53 18.5t72.5 5.5t84 -2.5t99.5 -5t108 -3q79 -3 86.5 -8t-2.5 -31q-8 -22 -12 -35q-2 -1 -17 -1h-36h-46.5t-50.5 0.5t-45 1t-34 1.5h-13q-2 -7 0 -51q6 -97 11 -199q54 -7 122.5 2.5t104.5 7t51 -36.5 q-6 -3 -9.5 -7.5t-8 -16t-4.5 -12.5q-16 -4 -118 -6t-136 -7q-3 -6 0.5 -291t7.5 -313q39 -6 98.5 1t104.5 15.5t84 3.5t51 -30q-4 -8 -9.5 -19.5t-6.5 -13.5t-6 -8t-8 -5.5t-12.5 -2.5t-19 -2t-28.5 -0.5t-40 -2.5t-54 -4t-70 -8q-32 -4 -72 -1.5t-53 -4.5q-20 9 -28.5 51 t-8.5 112.5t2 148t1.5 180.5t-7.5 186q-10 2 -99 -0.5t-104 -7.5q-3 -61 -2 -152t3.5 -263t2.5 -242q-61 -83 -79 79zM137 674q12 -4 94.5 0t102.5 10q4 37 5.5 68t0.5 63.5t-6.5 55.5t-16 43.5t-27 29t-39.5 12t-54 -9.5h-1q-20 -6 -25 -19q-11 -21 -28 -198l-3 -21 q-2 -22 -3 -34z" />
<glyph unicode="&#xe7;" horiz-adv-x="405" d="M59 190q4 63 9.5 131.5t11.5 127.5t12 115.5t11 101t9 78.5t6 52l3 19q7 31 10.5 65t6 50t14.5 41.5t36 58.5q5 5 11.5 8t17.5 7.5t14 5.5q24 7 74 -13q24 -9 33 -17.5t12 -19t8 -16.5q11 -17 11 -27q0 -8 4 -25.5t5 -27t-5 -22.5q-7 -10 -15 -10.5t-19 5.5t-15 7 q-11 0 -18.5 10.5t-10.5 25t-6 27.5t-7.5 20t-11.5 1q-17 -13 -27.5 -36t-17.5 -68.5t-12 -92.5t-14.5 -135.5t-20.5 -169.5q-31 -379 -22 -458q6 -61 36 -63q11 -1 29 5q21 5 40.5 20.5t34.5 25t32 5.5q1 0 14 -1t18 -5q5 -3 13 -21.5t8 -29.5q-1 -6 -13.5 -14t-13.5 -9 q-8 -6 -23 -16.5t-21.5 -15t-17.5 -10.5t-21.5 -8.5t-24.5 -4.5q4 -13 2 -33q-2 -8 -3 -20t-3 -17q-2 0 -2 -13.5t2 -16.5l16 -9q24 -12 41.5 -31t22.5 -31l6 -13q0 -2 4.5 -16t6.5 -28.5t-1 -35.5q0 -3 -1 -8.5t-1 -14.5q-2 -2 -2 -14l-6 -25q-6 -44 -33 -71 q-14 -19 -32.5 -28t-34.5 -8t-29 6t-20.5 13t-6.5 15q7 15 31 27t37 46q11 37 12 72.5t-14 62.5t-48 27q-8 8 -16 8q0 4 -12 8l-7.5 7.5t-3 7t-6.5 14.5q-1 8 3 15t4 16l4 10q6 6 6 31q4 19 4 51q-22 9 -27 6q-1 0 -2 0.5t-5 2t-5 1.5h-2q-13 15 -32 30q-25 20 -29.5 57 t-4.5 222z" />
<glyph unicode="&#xe8;" horiz-adv-x="425" d="M43.5 19q-0.5 9 1.5 17t2 11q12 16 20.5 243.5t13 466t5.5 247.5q5 24 13 29.5t19 2t15 -1.5q3 2 16.5 4t14.5 4q1 3 9 3.5t18.5 0.5t13.5 1q6 4 39 -3q148 15 168 -39q10 -25 -11 -45q-7 -8 -14 -8q-58 0 -132 7q-21 2 -29.5 3t-21 -0.5t-16.5 -2t-10 -9t-6.5 -12.5 t-2 -22t-1.5 -28.5t1 -40.5q1 -51 1 -85q2 2 45 -2.5t88 -16t49 -28.5l8 -13q2 1 4 -1.5t2.5 -7l1 -9t0.5 -8t-1 -4.5q-5 -11 -23 -21t-37 0q-5 2 -30.5 7.5t-49 9t-22.5 0.5q-35 -1 -37 -11q-7 -31 -4.5 -126t0.5 -132l-14 -307v-13q0 -30 5.5 -35t38.5 -4q21 1 35 1 q2 1 17 2t28 3t13 5q0 -3 20 -7.5t23 -4.5q9 0 19 -11t8.5 -29t-25.5 -34q-1 0 -3 3.5t-5 -1.5q-6 -9 -15 -6q-7 5 -48 4.5t-44 -6.5q-2 -4 -7 5q-1 2 -1 3l-1 -5l-1 1q-2 2 -4 2l-25 -8q-4 0 -13 2t-13 2q-7 -2 -29 -3.5t-25 3.5q0 1 -9 6t-21.5 14t-18.5 17q-5 12 -5.5 21 zM88 1462q0 7 6.5 17t11.5 10q6 4 15 0q2 -2 5.5 -2h6t2.5 -2q4 -4 13.5 -9t15.5 -11t10 -17q24 -40 46.5 -86t33.5 -72l10 -26q2 -3 9 -15.5t10.5 -19.5l9.5 -19t8 -19.5t3.5 -16.5t-1 -14.5t-8.5 -8.5l-12 -6q-42 -14 -72 26l-4 7q0 13 -26.5 74t-52.5 116l-26 55 q-14 27 -14 39z" />
<glyph unicode="&#xe9;" horiz-adv-x="425" d="M43.5 19q-0.5 9 1.5 17t2 11q12 16 20.5 243.5t13 466t5.5 247.5q5 24 13 29.5t19 2t15 -1.5q3 2 16.5 4t14.5 4q1 3 9 3.5t18.5 0.5t13.5 1q6 4 39 -3q148 15 168 -39q10 -25 -11 -45q-7 -8 -14 -8q-58 0 -132 7q-21 2 -29.5 3t-21 -0.5t-16.5 -2t-10 -9t-6.5 -12.5 t-2 -22t-1.5 -28.5t1 -40.5q1 -51 1 -85q2 2 45 -2.5t88 -16t49 -28.5l8 -13q2 1 4 -1.5t2.5 -7l1 -9t0.5 -8t-1 -4.5q-5 -11 -23 -21t-37 0q-5 2 -30.5 7.5t-49 9t-22.5 0.5q-35 -1 -37 -11q-7 -31 -4.5 -126t0.5 -132l-14 -307v-13q0 -30 5.5 -35t38.5 -4q21 1 35 1 q2 1 17 2t28 3t13 5q0 -3 20 -7.5t23 -4.5q9 0 19 -11t8.5 -29t-25.5 -34q-1 0 -3 3.5t-5 -1.5q-6 -9 -15 -6q-7 5 -48 4.5t-44 -6.5q-2 -4 -7 5q-1 2 -1 3l-1 -5l-1 1q-2 2 -4 2l-25 -8q-4 0 -13 2t-13 2q-7 -2 -29 -3.5t-25 3.5q0 1 -9 6t-21.5 14t-18.5 17q-5 12 -5.5 21 zM200.5 1193.5q-2.5 5.5 0.5 14.5q3 10 36.5 62.5t66.5 100.5l32 48q15 20 27.5 32.5t20 18t15.5 6t10.5 0t9.5 -5.5l7 -4q6 0 13 -9.5t6.5 -25t-13.5 -28.5q-20 -17 -52.5 -64.5t-62.5 -95t-36 -55.5l-5 -6q-4 -5 -7.5 -8t-12.5 -6t-20 -3h-6.5h-4.5t-2.5 0.5t-2.5 1.5 t-3 4q-2 5 -8 11t-8.5 11.5z" />
<glyph unicode="&#xea;" horiz-adv-x="425" d="M34.5 1144.5q-2.5 9.5 6.5 27.5t33 36l68 77q83 95 85 95q13 0 13 2h12q14 0 29.5 -12t31 -29.5t17.5 -19.5q21 -21 22 -21l41 -47v-2q12 -5 39 -34l10 -11q3 0 5 -5t4 -5q14 -26 4 -41t-27.5 -14t-24.5 4q0 -6 -33 30.5t-68 76.5t-38 40q-2 0 -2 2q-4 2 -8 0h-2 q0 -4 -6 -4q-17 -15 -23.5 -24.5t-21.5 -24.5q-3 0 -9 -5.5t-11.5 -12t-10.5 -13.5l-6 -6q-2 -7 -36 -41t-52 -39q-4 -4 -12 -1t-9 3q-10 9 -12 9q-6 0 -8.5 9.5zM43.5 19q-0.5 9 1.5 17t2 11q12 16 20.5 243.5t13 466t5.5 247.5q5 24 13 29.5t19 2t15 -1.5q3 2 16.5 4 t14.5 4q1 3 9 3.5t18.5 0.5t13.5 1q6 4 39 -3q148 15 168 -39q10 -25 -11 -45q-7 -8 -14 -8q-58 0 -132 7q-21 2 -29.5 3t-21 -0.5t-16.5 -2t-10 -9t-6.5 -12.5t-2 -22t-1.5 -28.5t1 -40.5q1 -51 1 -85q2 2 45 -2.5t88 -16t49 -28.5l8 -13q2 1 4 -1.5t2.5 -7l1 -9t0.5 -8 t-1 -4.5q-5 -11 -23 -21t-37 0q-5 2 -30.5 7.5t-49 9t-22.5 0.5q-35 -1 -37 -11q-7 -31 -4.5 -126t0.5 -132l-14 -307v-13q0 -30 5.5 -35t38.5 -4q21 1 35 1q2 1 17 2t28 3t13 5q0 -3 20 -7.5t23 -4.5q9 0 19 -11t8.5 -29t-25.5 -34q-1 0 -3 3.5t-5 -1.5q-6 -9 -15 -6 q-7 5 -48 4.5t-44 -6.5q-2 -4 -7 5q-1 2 -1 3l-1 -5l-1 1q-2 2 -4 2l-25 -8q-4 0 -13 2t-13 2q-7 -2 -29 -3.5t-25 3.5q0 1 -9 6t-21.5 14t-18.5 17q-5 12 -5.5 21z" />
<glyph unicode="&#xeb;" horiz-adv-x="425" d="M43.5 19q-0.5 9 1.5 17t2 11q12 16 20.5 243.5t13 466t5.5 247.5q5 24 13 29.5t19 2t15 -1.5q3 2 16.5 4t14.5 4q1 3 9 3.5t18.5 0.5t13.5 1q6 4 39 -3q148 15 168 -39q10 -25 -11 -45q-7 -8 -14 -8q-58 0 -132 7q-21 2 -29.5 3t-21 -0.5t-16.5 -2t-10 -9t-6.5 -12.5 t-2 -22t-1.5 -28.5t1 -40.5q1 -51 1 -85q2 2 45 -2.5t88 -16t49 -28.5l8 -13q2 1 4 -1.5t2.5 -7l1 -9t0.5 -8t-1 -4.5q-5 -11 -23 -21t-37 0q-5 2 -30.5 7.5t-49 9t-22.5 0.5q-35 -1 -37 -11q-7 -31 -4.5 -126t0.5 -132l-14 -307v-13q0 -30 5.5 -35t38.5 -4q21 1 35 1 q2 1 17 2t28 3t13 5q0 -3 20 -7.5t23 -4.5q9 0 19 -11t8.5 -29t-25.5 -34q-1 0 -3 3.5t-5 -1.5q-6 -9 -15 -6q-7 5 -48 4.5t-44 -6.5q-2 -4 -7 5q-1 2 -1 3l-1 -5l-1 1q-2 2 -4 2l-25 -8q-4 0 -13 2t-13 2q-7 -2 -29 -3.5t-25 3.5q0 1 -9 6t-21.5 14t-18.5 17q-5 12 -5.5 21 zM129 1210q1 2 2 7t2 6q0 3 8.5 11.5t10.5 8.5l8 -4q6 -2 15 -2.5t15.5 -0.5t11.5 -3.5t5 -11.5q0 -4 5 -17.5t-1 -19.5q0 -10 -16 -23.5t-33 -5.5l-5 2.5t-4.5 2t-3.5 2t-3 2t-3 2t-3 2.5t-2.5 3l-3 4t-3.5 5q-8 16 -2 30zM273 1213.5q10 21.5 36 21.5q25 10 47 -12 q0 -2 3 -10.5t3.5 -15.5t-4.5 -19q-9 -16 -27.5 -20t-33 -0.5t-14.5 7.5l-9 13q-11 14 -1 35.5z" />
<glyph unicode="&#xec;" horiz-adv-x="196" d="M-12 1409q0 7 6.5 17t11.5 10q6 4 14 0q2 -2 5.5 -2h6.5t3 -2q4 -4 13.5 -9t15.5 -11t10 -17q24 -40 46.5 -86.5t33.5 -72.5l10 -26q2 -4 8.5 -15.5t10.5 -19t10 -19t8 -19.5t3.5 -16.5t-1 -14t-8.5 -8.5l-12 -6q-42 -14 -72 26l-5 6q0 13 -26 74.5t-52 116.5l-26 55 q-14 27 -14 39zM45 40q-1 10 0.5 26t1.5 22q2 25 2 66q-1 58 0.5 165.5t1.5 141.5q0 119 2 143q1 30 4 88t4 86q0 23 5 131q0 36 6 70q0 2 1.5 17.5t6 21t14.5 8.5q29 0 29 -4l16 -8q12 1 18.5 -11.5t5.5 -26.5t-1 -22q-9 -113 -8 -141q0 -50 -6 -141.5t-7 -130.5 q-2 -39 1.5 -140.5t-1.5 -140.5q-4 -40 0.5 -115t1.5 -110q0 -33 -14 -37q-1 0 -7 -5t-13 -1q-48 16 -58 31q-5 7 -6 17z" />
<glyph unicode="&#xed;" horiz-adv-x="196" d="M45 40q-1 10 0.5 26t1.5 22q2 25 2 66q-1 58 0.5 165.5t1.5 141.5q0 119 2 143q1 30 4 88t4 86q0 23 5 131q0 36 6 70q0 2 1.5 17.5t6 21t14.5 8.5q29 0 29 -4l16 -8q12 1 18.5 -11.5t5.5 -26.5t-1 -22q-9 -113 -8 -141q0 -50 -6 -141.5t-7 -130.5q-2 -39 1.5 -140.5 t-1.5 -140.5q-4 -40 0.5 -115t1.5 -110q0 -33 -14 -37q-1 0 -7 -5t-13 -1q-48 16 -58 31q-5 7 -6 17zM63 1124q-3 6 0 15q3 10 37 62.5t66 100.5l33 48q15 20 27.5 32.5t20 18t15.5 6t10.5 0t9.5 -4.5l7 -5q6 0 13 -9.5t6.5 -25.5t-13.5 -29q-20 -17 -53 -64.5t-63 -95 t-36 -55.5l-5 -6q-4 -5 -7.5 -7.5t-12.5 -5.5t-20 -3h-13t-5 6q-2 5 -8 10.5t-9 11.5z" />
<glyph unicode="&#xee;" horiz-adv-x="206" d="M-94.5 1069q-2.5 10 6.5 28t33 36l68 77q83 95 85 95q13 0 13 2h12q14 0 29.5 -12t30.5 -30t18 -20q20 -20 22 -20l41 -47v-2q12 -6 39 -35l10 -11q3 0 5 -5t4 -5q14 -26 4 -41t-27.5 -14t-24.5 4q0 -6 -33 31t-68 77t-38 40q-2 0 -2 2q-4 2 -8 0h-2q0 -5 -6 -5 q-17 -15 -23 -24t-22 -25q-3 0 -9 -5.5t-11.5 -12t-11.5 -13.5l-5 -6q-2 -7 -36 -40.5t-52 -38.5q-4 -5 -12 -1.5t-9 3.5q-10 8 -12 8q-6 0 -8.5 10zM48 58.5q0 11.5 1.5 39.5t1.5 54q-3 187 6.5 484.5t16.5 340.5q0 2 1.5 17.5t6 21t14.5 8.5q29 0 29 -4l16 -8 q12 1 18.5 -11.5t5.5 -26.5t-1 -22q-21 -368 -21 -413q-2 -39 1.5 -140.5t-1.5 -140.5q-4 -36 0.5 -103.5t3.5 -111t-16 -47.5q-1 0 -7 -5t-13 -1q-23 8 -34.5 14t-19 11.5t-8.5 18.5t-1 24.5z" />
<glyph unicode="&#xef;" horiz-adv-x="206" d="M18 1180q1 2 2.5 6.5t2.5 5.5q0 3 8 11.5t10 8.5l8 -4q6 -2 15 -2.5t15.5 -0.5t11.5 -3.5t5 -11.5q0 -4 5 -18t-1 -19q0 -10 -16 -23.5t-33 -5.5l-5 2.5t-4.5 2t-3.5 2t-3 2t-3 2t-3 2.5t-2.5 3l-3 4t-3.5 5q-8 16 -2 31zM48 58.5q0 11.5 1.5 39.5t1.5 54 q-3 187 6.5 484.5t16.5 340.5q0 2 1.5 17.5t6 21t14.5 8.5q29 0 29 -4l16 -8q12 1 18.5 -11.5t5.5 -26.5t-1 -22q-21 -368 -21 -413q-2 -39 1.5 -140.5t-1.5 -140.5q-4 -36 0.5 -103.5t3.5 -111t-16 -47.5q-1 0 -7 -5t-13 -1q-23 8 -34.5 14t-19 11.5t-8.5 18.5t-1 24.5z M163 1182q10 22 36 22q25 10 47 -12q0 -2 3 -10.5t3.5 -15.5t-4.5 -19q-9 -16 -28 -20t-33.5 0t-14.5 8l-8 12q-11 13 -1 35z" />
<glyph unicode="&#xf0;" horiz-adv-x="380" d="M33.5 247q1.5 68 3 94.5t7.5 98.5l3 39q6 84 20.5 119.5t53.5 42.5q16 10 35 11.5t31.5 -2t30.5 -10.5t26 -9q8 32 -2.5 152.5t-32.5 189.5q-8 0 -14.5 -3t-13.5 -8.5t-11 -7.5q-45 -23 -70 -1q-18 15 -2 34q8 9 24.5 24t20.5 19q3 3 9 7t10.5 9t7.5 11 q-13 32 -29.5 50.5t-27.5 23.5t-19 17.5t-8 35.5q28 11 40.5 14.5t29.5 -3.5t27 -18.5t38 -44.5q11 -13 17 -20q8 2 20 10.5t16 10.5q39 29 70 6q24 -17 15 -40q-4 -10 -13 -16l-67 -47q0 -1 8 -28t18 -73t20 -110t12.5 -148.5t-2.5 -177.5t-26.5 -208.5t-58.5 -231.5 q-11 -34 -31 -45.5t-51 -13.5q-39 -1 -66.5 15.5t-41 58.5t-21 73.5t-6 99.5zM119 180q4 -68 55 -102q1 2 7 20t9.5 29.5t10.5 37t12 46.5t11 53.5t10 64t7.5 71.5t4.5 81q1 46 -33 83.5t-66 31.5q-21 -59 -27.5 -191.5t-0.5 -224.5z" />
<glyph unicode="&#xf1;" horiz-adv-x="579" d="M86.5 950q2.5 93 15.5 97q12 3 28 -2t24 -13q14 -14 16 -18q3 -8 19 -21t20 -22q1 -1 10.5 -43.5t9.5 -44.5q14 -66 66 -248t57 -219q10 -66 39 -125q4 -9 10.5 -32t10.5 -32q0 -1 1.5 -14.5t4.5 -22.5t8 -12q-11 11 2.5 416t20.5 432q0 2 5 5.5t5 4.5q0 8 15.5 8 t23.5 -4l9 -6q9 -5 11 -4q5 2 9 -1t6 -10t3 -16t0.5 -20.5t-1 -21.5t-2 -22t-2.5 -19.5t-2 -15.5t-1 -9q-15 -138 -20 -305.5t-2.5 -270t6.5 -141.5q9 -95 7 -118.5t-21 -30.5q-4 0 -18.5 -5t-14.5 -10q0 -3 -2.5 -5.5t-5 -3.5t-6.5 -2t-5 -1q-4 0 -8.5 2.5t-6 2.5t-5.5 -3 q-8 -5 -23 0q-14 3 -21.5 14t-9.5 25.5t-8.5 41.5t-17.5 52q-1 2 -13.5 48.5t-24.5 91t-13 45.5q-18 49 -29.5 124t-60.5 203q-4 13 -11.5 39.5t-11.5 40.5q0 1 -3.5 9.5t-6.5 17.5t-4 14q-10 -147 0 -235q8 -59 12 -214.5t4 -280.5v-126q5 -12 -4 -25t-22 -12q-2 1 -7 4 q-14 9 -14 0q0 -2 -1.5 -3t-4 -1t-5 0.5t-4.5 0.5l-3 1q-8 -2 -25 15q-5 6 -3.5 34t7.5 54q8 67 6 187t-6.5 271t-9 284t-2 226zM92 913h2q0 2 -2 0zM121 1171q0 25 40.5 59.5t67.5 39.5q15 4 29.5 2t31 -10.5t28 -16t20.5 -15.5l10 -7l19 -19q0 -2 6.5 -5t9.5 -3 q18 0 48 32t30 50l6 4q4 4 10 4q26 -3 41 -17t13 -28t-9 -24q-31 -63 -65 -80q-19 -9 -34.5 -12.5t-28 -2t-19 4t-17.5 8.5t-14 8q-53 51 -55 51q-13 15 -32 8.5t-33 -20t-29 -28.5t-19 -17q-19 -10 -37 4t-18 30z" />
<glyph unicode="&#xf2;" horiz-adv-x="432" d="M71.5 361.5q1.5 101.5 8.5 248.5q2 30 6 87q4 69 6.5 102t9 84t16.5 75t26 50.5t40 34.5t56 4q3 0 26 -7t23 -8l16 -12q6 -8 11.5 -9t19.5 -4.5t33 -13.5q2 -3 15.5 -15t20 -23t9.5 -29q17 -94 11 -244t-20 -285t-22 -161q-12 -47 -20 -73.5t-12 -35t-12.5 -23 t-14.5 -26.5q-5 -13 -50 -54.5t-69 -41.5q-33 0 -52 6t-38 28t-27 62t-13 111t-3.5 172.5zM119 1460q0 7 6.5 17t11.5 10q6 4 15 0q2 -2 5.5 -2h6t2.5 -2q4 -4 13.5 -9t15.5 -11t10 -17q24 -40 46.5 -86t32.5 -72l11 -26q2 -3 9 -15.5t10.5 -19.5l9.5 -19t8 -19.5t3.5 -16.5 t-1 -14.5t-8.5 -8.5l-12 -6q-42 -14 -72 26l-4 7q0 13 -26 74t-52 116l-27 55q-14 27 -14 39zM153.5 423q-3.5 -329 26.5 -362q9 -11 35 15t37 45q50 88 74.5 380t13.5 388q-3 28 -7.5 43.5t-9.5 18.5t-11.5 4t-12.5 -1t-12 4q-17 8 -17 11q0 2 -6.5 9.5t-9.5 8.5 q-23 22 -45.5 -19t-24.5 -71q-27 -145 -30.5 -474z" />
<glyph unicode="&#xf3;" horiz-adv-x="432" d="M71.5 361.5q1.5 101.5 8.5 248.5q2 30 6 87q4 69 6.5 102t9 84t16.5 75t26 50.5t40 34.5t56 4q3 0 26 -7t23 -8l16 -12q6 -8 11.5 -9t19.5 -4.5t33 -13.5q2 -3 15.5 -15t20 -23t9.5 -29q17 -94 11 -244t-20 -285t-22 -161q-12 -47 -20 -73.5t-12 -35t-12.5 -23 t-14.5 -26.5q-5 -13 -50 -54.5t-69 -41.5q-33 0 -52 6t-38 28t-27 62t-13 111t-3.5 172.5zM153.5 423q-3.5 -329 26.5 -362q9 -11 35 15t37 45q50 88 74.5 380t13.5 388q-3 28 -7.5 43.5t-9.5 18.5t-11.5 4t-12.5 -1t-12 4q-17 8 -17 11q0 2 -6.5 9.5t-9.5 8.5 q-23 22 -45.5 -19t-24.5 -71q-27 -145 -30.5 -474zM231 1191q-3 6 0 15q3 10 37 62.5t66 100.5l33 48q15 20 27.5 32.5t20 18t15.5 6t10.5 0t9.5 -5.5l7 -4q6 0 13 -9.5t6.5 -25t-13.5 -28.5q-20 -17 -53 -64.5t-63 -95t-36 -55.5l-5 -6q-4 -5 -7.5 -8t-12.5 -6t-20 -3h-13 t-5 6q-2 5 -8 10.5t-9 11.5z" />
<glyph unicode="&#xf4;" horiz-adv-x="432" d="M65 1142.5q-3 9.5 6 27.5t33 36l69 77q83 95 85 95q12 0 12 2h13q14 0 29 -12t30 -29.5t18 -19.5q21 -21 23 -21l41 -47v-2q12 -6 39 -35l10 -10q3 0 4.5 -5t3.5 -5q9 -17 8.5 -28t-8 -17.5t-17 -8.5t-18 -1t-12.5 4q0 -6 -33 30.5t-68 76.5t-38 40q-2 0 -2 2q-4 2 -8 0 h-2q0 -4 -7 -4q-17 -15 -23.5 -24.5t-21.5 -24.5q-3 0 -9 -5.5t-11.5 -12t-10.5 -13.5l-5 -6q-2 -7 -36.5 -41t-52.5 -39q-4 -4 -11.5 -1t-8.5 3q-10 9 -12 9q-6 0 -9 9.5zM71.5 361.5q1.5 101.5 8.5 248.5q2 30 6 87q4 69 6.5 102t9 84t16.5 75t26 50.5t40 34.5t56 4 q3 0 26 -7t23 -8l16 -12q6 -8 11.5 -9t19.5 -4.5t33 -13.5q2 -3 15.5 -15t20 -23t9.5 -29q17 -94 11 -244t-20 -285t-22 -161q-12 -47 -20 -73.5t-12 -35t-12.5 -23t-14.5 -26.5q-5 -13 -50 -54.5t-69 -41.5q-33 0 -52 6t-38 28t-27 62t-13 111t-3.5 172.5zM153.5 423 q-3.5 -329 26.5 -362q9 -11 35 15t37 45q50 88 74.5 380t13.5 388q-3 28 -7.5 43.5t-9.5 18.5t-11.5 4t-12.5 -1t-12 4q-17 8 -17 11q0 2 -6.5 9.5t-9.5 8.5q-23 22 -45.5 -19t-24.5 -71q-27 -145 -30.5 -474z" />
<glyph unicode="&#xf5;" horiz-adv-x="432" d="M71.5 361.5q1.5 101.5 8.5 248.5q2 30 6 87q4 69 6.5 102t9 84t16.5 75t26 50.5t40 34.5t56 4q3 0 26 -7t23 -8l16 -12q6 -8 11.5 -9t19.5 -4.5t33 -13.5q2 -3 15.5 -15t20 -23t9.5 -29q17 -94 11 -244t-20 -285t-22 -161q-12 -47 -20 -73.5t-12 -35t-12.5 -23 t-14.5 -26.5q-5 -13 -50 -54.5t-69 -41.5q-33 0 -52 6t-38 28t-27 62t-13 111t-3.5 172.5zM74 1192q0 25 40.5 59t67.5 39q15 4 29.5 2t31 -10.5t28 -16t21.5 -15.5l9 -7l18 -18q0 -1 7 -4.5t10 -3.5q18 0 48 31.5t30 49.5q-2 0 2 3l4 2q4 4 10 4q26 -3 41 -17.5t13 -28.5 t-9 -24q-31 -63 -65 -80q-19 -9 -34.5 -12.5t-28 -2t-19 4t-17.5 8.5t-14 8q-53 51 -55 51q-13 15 -32 8.5t-33 -20t-29 -28.5t-19 -17q-19 -10 -37 4.5t-18 30.5zM153.5 423q-3.5 -329 26.5 -362q9 -11 35 15t37 45q50 88 74.5 380t13.5 388q-3 28 -7.5 43.5t-9.5 18.5 t-11.5 4t-12.5 -1t-12 4q-17 8 -17 11q0 2 -6.5 9.5t-9.5 8.5q-23 22 -45.5 -19t-24.5 -71q-27 -145 -30.5 -474z" />
<glyph unicode="&#xf6;" horiz-adv-x="432" d="M71.5 361.5q1.5 101.5 8.5 248.5q2 30 6 87q4 69 6.5 102t9 84t16.5 75t26 50.5t40 34.5t56 4q3 0 26 -7t23 -8l16 -12q6 -8 11.5 -9t19.5 -4.5t33 -13.5q2 -3 15.5 -15t20 -23t9.5 -29q17 -94 11 -244t-20 -285t-22 -161q-12 -47 -20 -73.5t-12 -35t-12.5 -23 t-14.5 -26.5q-5 -13 -50 -54.5t-69 -41.5q-33 0 -52 6t-38 28t-27 62t-13 111t-3.5 172.5zM153.5 423q-3.5 -329 26.5 -362q9 -11 35 15t37 45q50 88 74.5 380t13.5 388q-3 28 -7.5 43.5t-9.5 18.5t-11.5 4t-12.5 -1t-12 4q-17 8 -17 11q0 2 -6.5 9.5t-9.5 8.5 q-23 22 -45.5 -19t-24.5 -71q-27 -145 -30.5 -474zM160 1208q1 2 2 7t2 6q0 3 8 11.5t10 8.5l8 -4q6 -2 15 -2.5t16 -0.5t12 -3.5t5 -11.5q0 -4 5 -17.5t-1 -19.5q0 -10 -16 -23.5t-33 -5.5l-5 2.5t-4.5 2t-3.5 2t-3 2t-3 2t-3 2.5t-2.5 3l-3 4t-3.5 5q-8 16 -2 30z M304 1211.5q10 21.5 36 21.5q25 10 47 -12q0 -2 3 -10.5t3.5 -15.5t-4.5 -19q-9 -16 -28 -20t-33.5 -0.5t-14.5 7.5l-8 13q-11 14 -1 35.5z" />
<glyph unicode="&#xf7;" d="M64 556q-5 21 30 40q0 -2 16 -4t35.5 -3.5t22.5 -2.5q127 -10 272 -28t263 -25t329 -7q23 0 41 2t25 4t14 1t16 -7q16 -9 26 -29t2 -38.5t-40 -18.5q-2 0 -8.5 5t-7.5 6l-12 2t-17 1.5t-21.5 0.5h-32h-41h-56.5h-72q-118 2 -405.5 24.5t-321.5 22.5q-11 0 -31.5 16.5 t-25.5 37.5zM537 276q-15 31 4.5 48.5t49 16t38.5 -18.5q8 -16 -2.5 -41t-20.5 -25q-1 -1 -6.5 -3t-13.5 -3t-17 2q-1 2 -12.5 6.5t-19.5 17.5zM537 702q-15 31 4.5 48.5t49 16t38.5 -18.5q8 -16 -2.5 -41t-20.5 -25q-1 -1 -6.5 -3t-13.5 -3t-17 2q-1 2 -12.5 6.5 t-19.5 17.5z" />
<glyph unicode="&#xf8;" horiz-adv-x="432" d="M-133 -164q-2 17 17.5 41t21.5 29q22 40 166 391v2q0 53 8 311q2 30 6 87q4 69 6.5 102t9 84t16.5 75t26 50.5t40 34.5t56 4q3 0 26 -7t23 -8l16 -12q6 -8 11.5 -9t19.5 -4.5t33 -13.5q1 -1 4 -3.5t5.5 -5t4.5 -5.5q29 73 39 100q60 164 104 201q87 56 83 1 q-3 -36 -44 -112q-35 -68 -71 -168q-17 -45 -70 -157q7 -137 -11 -354t-30 -254q-12 -47 -20 -73.5t-12 -35t-12.5 -23t-14.5 -26.5q-5 -13 -50 -54.5t-69 -41.5q-51 0 -78.5 22t-40.5 90q-3 -9 -10 -26.5t-10 -26.5q-5 -15 -18 -46.5t-24 -56.5t-12 -26q-9 -15 -15.5 -41 t-18.5 -44t-41 -30q-16 -6 -35 13q-3 3 -18 6t-17 20zM156 264q3 -185 24 -203q9 -11 35 15t37 45q34 59 55.5 213.5t30.5 327.5q-104 -216 -182 -398zM156 467q112 240 186 412q0 8 -2 10q-3 28 -7.5 43.5t-9.5 18.5t-11.5 4t-12.5 -1t-12 4q-17 8 -17 11q0 2 -6.5 9.5 t-9.5 8.5q-23 22 -45.5 -19t-24.5 -71q-24 -131 -28 -430z" />
<glyph unicode="&#xf9;" horiz-adv-x="438" d="M32.5 190q0.5 19 2.5 45.5t2 30.5q18 307 29 602q4 118 7.5 143.5t16.5 30.5q13 4 35 -6t29 -28q3 -6 -14 -396q-24 -539 0 -540q1 0 3 2l26 10q26 9 62.5 33.5t65.5 60.5q11 14 10.5 83t-4 218t-0.5 279q0 32 3.5 84t-3.5 145q0 16 12 25t35 -4q13 -7 21.5 -16t13 -16 t6.5 -24.5t2.5 -26t0 -37t-0.5 -42.5q-6 -126 -5 -300.5t5 -329.5l4 -155q0 -2 0.5 -7.5t0.5 -10t-0.5 -10t-2 -9t-4.5 -4.5q-4 -2 -7 -4.5t-5 -4t-5.5 -2.5t-8.5 -1q-6 1 -18.5 6t-18.5 6q-7 0 -12 6t-7 14t-3.5 15t-4 10.5t-6.5 0.5q-31 -25 -43 -25q-5 0 -17 -7.5 t-14 -8.5q-19 -10 -26 -11q-36 -14 -64 -14t-45 10.5t-28.5 33t-16.5 44t-7 52.5t-1.5 50zM84 1440q0 7 6.5 16.5t11.5 9.5q6 4 15 0q2 -2 5.5 -2h6t2.5 -2q4 -4 13.5 -9t15.5 -11t10 -17q24 -40 46.5 -86t33.5 -72l10 -26q2 -3 9 -15.5t10.5 -19.5l9.5 -19t8 -19.5 t3.5 -16.5t-1 -14.5t-8.5 -8.5l-12 -6q-42 -13 -72 27l-4 6q0 13 -26.5 74.5t-52.5 116.5l-26 55q-14 27 -14 39z" />
<glyph unicode="&#xfa;" horiz-adv-x="438" d="M32.5 190q0.5 19 2.5 45.5t2 30.5q18 307 29 602q4 118 7.5 143.5t16.5 30.5q13 4 35 -6t29 -28q3 -6 -14 -396q-24 -539 0 -540q1 0 3 2l26 10q26 9 62.5 33.5t65.5 60.5q11 14 10.5 83t-4 218t-0.5 279q0 32 3.5 84t-3.5 145q0 16 12 25t35 -4q13 -7 21.5 -16t13 -16 t6.5 -24.5t2.5 -26t0 -37t-0.5 -42.5q-6 -126 -5 -300.5t5 -329.5l4 -155q0 -2 0.5 -7.5t0.5 -10t-0.5 -10t-2 -9t-4.5 -4.5q-4 -2 -7 -4.5t-5 -4t-5.5 -2.5t-8.5 -1q-6 1 -18.5 6t-18.5 6q-7 0 -12 6t-7 14t-3.5 15t-4 10.5t-6.5 0.5q-31 -25 -43 -25q-5 0 -17 -7.5 t-14 -8.5q-19 -10 -26 -11q-36 -14 -64 -14t-45 10.5t-28.5 33t-16.5 44t-7 52.5t-1.5 50zM196.5 1171.5q-2.5 5.5 0.5 14.5q3 10 36.5 62.5t66.5 100.5l32 48q15 20 27.5 32.5t20 18t15.5 6t10.5 0t9.5 -5.5l7 -4q6 0 13 -9.5t6.5 -25.5t-13.5 -29q-20 -17 -53 -64.5 t-63 -95t-36 -55.5l-4 -5q-5 -6 -8.5 -8.5t-12.5 -5.5t-20 -3h-13t-5 6q-2 5 -8 11t-8.5 11.5z" />
<glyph unicode="&#xfb;" horiz-adv-x="438" d="M30.5 1122q-2.5 10 6.5 28t33 36l68 77q83 95 85 95q13 0 13 2h12q14 0 29.5 -12t30.5 -30t18 -20q20 -20 22 -20l41 -47v-2q12 -6 39 -35l10 -10q3 0 4.5 -5t3.5 -5q14 -26 4.5 -41t-27 -14.5t-24.5 3.5q0 -6 -33 31t-68 77t-38 40q-2 0 -2 2q-4 2 -8 0h-2q0 -4 -6 -4 q-17 -15 -23.5 -24t-21.5 -25q-3 0 -9 -5.5t-11.5 -12t-10.5 -13.5l-6 -6q-2 -7 -36 -41t-52 -39q-4 -4 -12 -1t-9 3q-10 8 -12 8q-6 0 -8.5 10zM32.5 190q0.5 19 2.5 45.5t2 30.5q18 307 29 602q4 118 7.5 143.5t16.5 30.5q13 4 35 -6t29 -28q3 -6 -14 -396 q-24 -539 0 -540q1 0 3 2l26 10q26 9 62.5 33.5t65.5 60.5q11 14 10.5 83t-4 218t-0.5 279q0 32 3.5 84t-3.5 145q0 16 12 25t35 -4q13 -7 21.5 -16t13 -16t6.5 -24.5t2.5 -26t0 -37t-0.5 -42.5q-6 -126 -5 -300.5t5 -329.5l4 -155q0 -2 0.5 -7.5t0.5 -10t-0.5 -10t-2 -9 t-4.5 -4.5q-4 -2 -7 -4.5t-5 -4t-5.5 -2.5t-8.5 -1q-6 1 -18.5 6t-18.5 6q-7 0 -12 6t-7 14t-3.5 15t-4 10.5t-6.5 0.5q-31 -25 -43 -25q-5 0 -17 -7.5t-14 -8.5q-19 -10 -26 -11q-36 -14 -64 -14t-45 10.5t-28.5 33t-16.5 44t-7 52.5t-1.5 50z" />
<glyph unicode="&#xfc;" horiz-adv-x="438" d="M32.5 190q0.5 19 2.5 45.5t2 30.5q18 307 29 602q4 118 7.5 143.5t16.5 30.5q13 4 35 -6t29 -28q3 -6 -14 -396q-24 -539 0 -540q1 0 3 2l26 10q26 9 62.5 33.5t65.5 60.5q11 14 10.5 83t-4 218t-0.5 279q0 32 3.5 84t-3.5 145q0 16 12 25t35 -4q13 -7 21.5 -16t13 -16 t6.5 -24.5t2.5 -26t0 -37t-0.5 -42.5q-6 -126 -5 -300.5t5 -329.5l4 -155q0 -2 0.5 -7.5t0.5 -10t-0.5 -10t-2 -9t-4.5 -4.5q-4 -2 -7 -4.5t-5 -4t-5.5 -2.5t-8.5 -1q-6 1 -18.5 6t-18.5 6q-7 0 -12 6t-7 14t-3.5 15t-4 10.5t-6.5 0.5q-31 -25 -43 -25q-5 0 -17 -7.5 t-14 -8.5q-19 -10 -26 -11q-36 -14 -64 -14t-45 10.5t-28.5 33t-16.5 44t-7 52.5t-1.5 50zM125 1188q1 2 2 6.5t2 5.5q0 3 8 12t10 9l9 -4q6 -3 19 -3t20.5 -3t7.5 -13q0 -4 5 -18t-1 -19q0 -10 -16 -23t-33 -5q-3 1 -7 3l-6 3t-4.5 3t-4.5 3.5t-4.5 4.5t-4.5 7q-8 16 -2 31 zM269 1190q10 22 36 22q25 10 47 -12q0 -2 3 -10.5t3.5 -15.5t-4.5 -19q-9 -16 -27.5 -20t-33 0t-14.5 8l-9 12q-11 13 -1 35z" />
<glyph unicode="&#xfd;" horiz-adv-x="471" d="M69 485q-3 77 7 115q14 63 23 249q6 149 26 176q13 18 35 3q4 -4 12.5 -9t11.5 -9q1 -1 5.5 -9t7.5 -10t4.5 -8t0.5 -14.5t-2 -15.5t-3 -15t-2 -10q-56 -529 -5 -612q16 -26 53 -22q28 2 36 1q2 -1 7 -2q9 -4 13 7q6 20 24 283q7 94 11 152q3 20 6 131.5t12 161.5 q1 7 10 11.5t11 7.5q3 4 12.5 -2.5t20 -15t12.5 -9.5q13 -9 14.5 -100.5t-5.5 -216t-15.5 -248t-16 -209t-8.5 -86.5q-3 -18 -7 -66.5t-9 -75t-25.5 -63t-56.5 -61.5q-26 -17 -56 -17.5t-51.5 8.5t-50 23t-41.5 18q-5 3 -11 10.5t-9 10.5q-16 16 1.5 29t34.5 8 q10 -4 41.5 -25t49.5 -18q9 -6 39 24q18 20 28.5 47t13 46t5.5 55q0 14 2 31.5t3.5 29t2 21.5t-3.5 13.5t-13 0.5l-27 5q-27 5 -30 -1q-3 -5 -45 12.5t-45 26.5q-1 3 -13.5 17t-24 32t-9.5 33q-2 18 -5 46t-6 105zM231 1171q-3 6 0 15q3 10 37 62.5t66 100.5l33 48 q15 20 27.5 32.5t20 18t15.5 6t10.5 0t9.5 -5.5l7 -4q6 0 13 -9.5t6.5 -25.5t-13.5 -29q-20 -17 -53 -64.5t-63 -95t-36 -55.5l-5 -5q-4 -6 -7.5 -8.5t-12.5 -5.5t-20 -3h-13t-5 6q-2 5 -8 10.5t-9 11.5z" />
<glyph unicode="&#xfe;" horiz-adv-x="296" d="M20 1044q0 -1012 17 -1038l37 -6q23 -4 33 22t9.5 69.5t-3.5 89t-3.5 88t7.5 59.5q22 3 42.5 5t28 3t18 3.5t27.5 8.5q42 14 55.5 79t6 128.5t-22.5 118.5q-11 43 -43 58t-70.5 16t-47.5 6q-3 7 -3.5 15t0.5 19t1 15q1 201 -8 235q-9 27 -35 22q-5 -2 -46 -16zM108 508.5 v58.5v53.5t0.5 41.5t0.5 20h26q32 -1 49 -59t15.5 -115.5t-4.5 -87.5q-3 -13 -9.5 -18t-14 -5t-24 1.5t-30.5 0.5q-3 2 -5 17.5t-3 39.5t-1 52.5z" />
<glyph unicode="&#xff;" horiz-adv-x="471" d="M69 485q-3 77 7 115q14 63 23 249q6 149 26 176q13 18 35 3q4 -4 12.5 -9t11.5 -9q1 -1 5.5 -9t7.5 -10t4.5 -8t0.5 -14.5t-2 -15.5t-3 -15t-2 -10q-56 -529 -5 -612q16 -26 53 -22q28 2 36 1q2 -1 7 -2q9 -4 13 7q6 20 24 283q7 94 11 152q3 20 6 131.5t12 161.5 q1 7 10 11.5t11 7.5q3 4 12.5 -2.5t20 -15t12.5 -9.5q13 -9 14.5 -100.5t-5.5 -216t-15.5 -248t-16 -209t-8.5 -86.5q-3 -18 -7 -66.5t-9 -75t-25.5 -63t-56.5 -61.5q-26 -17 -56 -17.5t-51.5 8.5t-50 23t-41.5 18q-5 3 -11 10.5t-9 10.5q-16 16 1.5 29t34.5 8 q10 -4 41.5 -25t49.5 -18q9 -6 39 24q18 20 28.5 47t13 46t5.5 55q0 14 2 31.5t3.5 29t2 21.5t-3.5 13.5t-13 0.5l-27 5q-27 5 -30 -1q-3 -5 -45 12.5t-45 26.5q-1 3 -13.5 17t-24 32t-9.5 33q-2 18 -5 46t-6 105zM160 1188q1 2 2 6.5t2 5.5q0 3 8 12t10 9l8 -4 q6 -3 19.5 -3t21 -3t7.5 -13q0 -4 5 -18t-1 -19q0 -10 -16 -23t-33 -5q-3 1 -7 3l-6 3t-4.5 3t-4.5 3.5t-4.5 4.5t-4.5 7q-8 16 -2 31zM304 1190q10 22 36 22q25 10 47 -12q0 -2 3 -10.5t3.5 -15.5t-4.5 -19q-9 -16 -28 -20t-33.5 0t-14.5 8l-8 12q-11 13 -1 35z" />
<glyph unicode="&#x152;" horiz-adv-x="923" d="M66 497.5q7 145.5 19 319t13 189.5q0 56 14.5 105t51.5 83.5t90 28.5q3 0 28 -8t25 -9l19 -14q12 -15 33 -17.5t38 -15.5q6 -6 15.5 -15t14 -14t11 -17.5t11.5 -31.5q8 -43 16 -58q4 -7 1 -60q-8 -152 -15 -351q0 -4 -6 -75t-15.5 -155.5t-15.5 -105.5 q-21 -80 -28.5 -104.5t-18.5 -43t-19 -36.5q-7 -11 -25 -33t-51.5 -50.5t-56.5 -28.5q-1 0 -11 -1t-18.5 -0.5t-20 3t-23 10t-21.5 20.5q-38 39 -50 189.5t-5 296zM158.5 593q-7.5 -190 5.5 -343q2 -30 3 -65.5t1.5 -52.5t4.5 -33.5t13 -26.5q10 -12 39 18t41 51 q30 57 50 174t30.5 240.5t11.5 128.5q0 -2 1.5 29t3 74t2.5 94.5t1.5 91.5t-1.5 65q-3 33 -8 51.5t-10.5 22.5t-12.5 4.5t-14 -1.5t-15 5q-18 9 -18 10q0 3 -7 12t-10 11q-26 25 -50 -21t-30 -83q-6 -40 -15 -153t-16.5 -303zM348 92zM552 805q-8 362 34 379q7 3 16 -6 q3 -1 4 0.5t0.5 3.5t1.5 2t8.5 9.5t8.5 10.5q15 11 34.5 15.5t48 5.5t42.5 4q34 0 36 2q1 1 3.5 1.5t8 0.5t11.5 -0.5t18.5 -1t26.5 -0.5l41 -8q1 -6 13 -16.5t14 -18.5q2 -13 -7 -30t-22 -17q-19 0 -58.5 2t-60.5 2l-63 -10q-25 -6 -39 -1t-21 7t-8.5 -5t-1.5 -36 q0 -37 -1.5 -73t-3.5 -57.5t-3 -39t0 -25t4 -8.5q1 0 62 4t79 -8q1 -1 4.5 -3t6 -3.5t4.5 -1.5q3 0 7.5 -10.5t6.5 -10.5q5 -1 1 -17.5t-7 -19.5q-6 -9 -13 -13t-12 -3.5t-12 1.5t-8 1q-9 3 -17.5 3.5t-14 0t-19.5 -2.5t-25 -3q-9 0 -22 1q-18 2 -21 -5.5t0 -54.5 q1 -22 2 -37q7 -78 11 -271.5t12 -312.5q0 -18 2 -28t4.5 -15.5t10.5 -4.5t13 2t21 7.5t26 9.5q1 0 21.5 7t35 9.5t34 -2.5t30.5 -22q8 -19 0.5 -33t-14.5 -18q-2 -1 -7.5 -1t-7.5 -1q-8 -4 -34 -5t-37 -9q-16 -14 -148 -27q-2 0 -9 -1.5t-11 1.5q-17 0 -17 4q-2 2 -4.5 7 t-4.5 14t1 18q1 2 0 2.5t-2 0.5q-3 -1 -4 1q8 12 8 14l3 46q1 29 1 73l-1 22q-1 21 -2.5 53.5t-3 67.5t-2.5 67.5t-1 49.5q0 32 2.5 64.5t2.5 39.5t-3 23q-9 26 -13 238z" />
<glyph unicode="&#x153;" horiz-adv-x="698" d="M1 713q-1 -204 13 -370t23 -212q27 -129 244 -129q105 0 232 -4q97 -3 114 2.5t18 38.5q0 16 -11 25t-34.5 12.5t-46.5 4t-61 1t-64 2.5q-21 35 -33.5 116.5t-15 169.5t-1.5 162t5 107q44 4 78.5 0t69 -3t55.5 13q9 27 0.5 42.5t-33.5 21t-51.5 7t-62 3.5t-56.5 6 q-1 58 -8 132q-6 54 0 69.5t37 15.5q35 0 79.5 -1t58 -1t31 4t31.5 13q2 5 5.5 15t5.5 15q-38 32 -89 41.5t-95 3.5t-95 -6t-90 14q-13 5 -42.5 8.5t-67.5 2t-69 -22.5t-38 -59q-35 -56 -36 -260zM88 788q-2 64 4.5 107t19.5 62.5t31.5 30t40 9t43.5 -1.5q19 -1 32.5 -20 t20.5 -51t10.5 -66.5t3 -74.5t-1.5 -67t-3 -52l4 -474q-3 -84 -40 -111.5t-75 -3.5t-45 70q-28 182 -44 563q-3 88 -1 80z" />
<glyph unicode="&#x178;" horiz-adv-x="395" d="M48 573.5q4 13.5 11 57t7 98.5q0 377 12 440q0 3 2 14.5t2 14.5q0 2 -3 -1l5 5q7 16 24.5 11t35 -19t22.5 -23q3 -15 3 -22t-3.5 -25.5t-3.5 -21.5q-5 -30 -6 -196t-11 -283q0 -2 -2 -18t-1.5 -28t5.5 -14q17 -4 29 2q4 1 14 0t20 -3l9 -1q3 1 6.5 3.5t5.5 2.5q4 0 12 -3 q13 -6 18 7q7 21 7 117q2 31 3.5 135t2.5 193t2 92q2 5 -4 32t0 27l2 -2q1 0 6 11.5t5 13.5q11 22 28.5 19t34 -20t17.5 -32q-15 -596 -15 -635q1 -17 -8.5 -204.5t-9.5 -200.5q0 -49 -47 -115q-1 -2 -6.5 -5t-6.5 -5q-1 -1 -0.5 -4t-1.5 -4q-29 -5 -41 -9q-50 -11 -104 25 q-30 19 -41 66.5t-8.5 85t8.5 55.5q1 3 3 10t2.5 8.5t4 6t7.5 2t12 -2.5q3 -1 8.5 -2t7.5 -2t3.5 -5t2.5 -5q3 -2 10 -2.5t11.5 -3t3.5 -10.5l-2 -5q-1 -4 -3 -11.5t-4.5 -17.5t-4 -22t-1.5 -25t2 -28t7 -29q1 -1 2.5 -4.5t2 -4.5t2 -3.5t3 -3.5l3 -2t4 -1.5t5.5 -0.5 q16 0 25 4.5t19.5 22.5t15 61t4.5 113q1 14 2.5 37.5t5 73.5t5.5 83t1 33q-9 15 -37 16t-31 -4q-2 -2 -20 0q-3 0 -4 -0.5t2 -3.5q-4 -2 -37 5t-33 12l2 2q-1 2 -7 6.5t-7 5.5q-26 21 -32 35.5t-2 28zM111 1356q1 2 2 6.5t2 5.5q0 3 8 12t10 9l8 -5q6 -2 15 -2.5t15.5 -0.5 t11.5 -3.5t5 -11.5q0 -4 5.5 -17.5t-0.5 -19.5q0 -10 -16.5 -23.5t-33.5 -5.5q-21 10 -30 25q-8 16 -2 31zM255 1358q10 22 36 22q25 10 47 -12q0 -2 3 -10.5t3.5 -15.5t-4.5 -19q-9 -16 -28 -20t-33.5 0t-14.5 8l-8 12q-11 13 -1 35z" />
<glyph unicode="&#x2c6;" horiz-adv-x="608" d="M67 1122q-3 10 6 28t33 36l66 74q85 97 88 98q12 0 12 2h13q14 0 29 -12t30 -30t18 -20q20 -20 23 -20l41 -47v-2q12 -6 39 -35l10 -10q3 0 4.5 -5t3.5 -5q14 -26 4.5 -41t-27 -14.5t-24.5 3.5q0 -6 -33 31t-68 77t-38 40q-2 0 -2 2q-4 2 -8 0h-2q0 -4 -6 -4 q-17 -15 -24 -24.5t-22 -24.5q-3 0 -9 -5.5t-11.5 -12t-10.5 -13.5l-5 -6q-2 -7 -36 -41t-52 -39q-4 -4 -12 -1t-9 3q-10 8 -12 8q-6 0 -9 10z" />
<glyph unicode="&#x2dc;" d="M70 1171q0 25 40.5 59.5t67.5 39.5q15 4 29.5 2t31 -10.5t28 -16t21.5 -15.5l9 -7l18 -19q0 -1 7 -4.5t10 -3.5q18 0 48 32t30 50l6 4q4 4 10 4q26 -3 41 -17t13 -28t-9 -24q-31 -63 -65 -80q-19 -9 -34.5 -12.5t-28 -2t-19 4t-17.5 8.5t-14 8q-53 51 -55 51 q-13 15 -32 8.5t-33 -20t-29 -28.5t-19 -17q-19 -10 -37 4t-18 30z" />
<glyph unicode="&#x2000;" horiz-adv-x="852" />
<glyph unicode="&#x2001;" horiz-adv-x="1704" />
<glyph unicode="&#x2002;" horiz-adv-x="852" />
<glyph unicode="&#x2003;" horiz-adv-x="1704" />
<glyph unicode="&#x2004;" horiz-adv-x="568" />
<glyph unicode="&#x2005;" horiz-adv-x="426" />
<glyph unicode="&#x2006;" horiz-adv-x="284" />
<glyph unicode="&#x2007;" horiz-adv-x="284" />
<glyph unicode="&#x2008;" horiz-adv-x="213" />
<glyph unicode="&#x2009;" horiz-adv-x="340" />
<glyph unicode="&#x200a;" horiz-adv-x="94" />
<glyph unicode="&#x2010;" horiz-adv-x="653" d="M178 563q8 10 29 4q18 -3 70.5 0t96.5 7.5t44 5.5q1 2 7 2t13 -1t8 -1q56 0 74 -38q13 -29 -6 -45q-17 -14 -47 1q-18 10 -142 -3t-137 9q-33 29 -10 59z" />
<glyph unicode="&#x2011;" horiz-adv-x="653" d="M178 563q8 10 29 4q18 -3 70.5 0t96.5 7.5t44 5.5q1 2 7 2t13 -1t8 -1q56 0 74 -38q13 -29 -6 -45q-17 -14 -47 1q-18 10 -142 -3t-137 9q-33 29 -10 59z" />
<glyph unicode="&#x2012;" horiz-adv-x="653" d="M178 563q8 10 29 4q18 -3 70.5 0t96.5 7.5t44 5.5q1 2 7 2t13 -1t8 -1q56 0 74 -38q13 -29 -6 -45q-17 -14 -47 1q-18 10 -142 -3t-137 9q-33 29 -10 59z" />
<glyph unicode="&#x2013;" d="M205.5 523q-4.5 15 9.5 28q14 4 21.5 4t25 -4t21.5 -4q46 -7 166.5 -3.5t369.5 -8.5q15 -1 46.5 -7t47.5 -7.5t45 1.5q3 0 12 2t13.5 2t11 -1.5t11.5 -6.5q33 -33 28 -47q-1 -3 -0.5 -11t-1.5 -11q-4 -11 -30 -9t-39 -2q-3 0 -8.5 1.5t-12.5 3.5t-10 3q-40 0 -69.5 6.5 t-43.5 6.5q-31 6 -271.5 2.5t-271.5 9.5q-4 1 -19.5 7t-23.5 7q-5 2 -14 12.5t-13.5 25.5z" />
<glyph unicode="&#x2014;" d="M99 523q-5 21 30 40q0 -2 16 -4t35.5 -3.5t22.5 -2.5q125 -10 271.5 -27.5t264 -24.5t328.5 -7q23 0 41 2t25 4t14 1t16 -7q16 -9 26 -29t2 -38.5t-40 -18.5q-2 0 -8.5 5t-7.5 5l-12 2t-17 1.5t-21.5 0.5h-32h-41h-56.5h-72q-118 2 -405.5 24.5t-321.5 22.5 q-11 0 -31.5 16.5t-25.5 37.5z" />
<glyph unicode="&#x2018;" horiz-adv-x="237" d="M53 1321q0 -47 10 -57q5 -7 8.5 -27t4.5 -23q8 -16 15.5 -40t12 -40t7.5 -18q8 -2 13.5 -27.5t14.5 -44.5t27 -10q9 3 14 7t7.5 7.5t1.5 11t-2.5 12.5t-6 17t-6.5 19q-14 45 -24 84t-14 56l-3 16q-5 15 6.5 36.5t1.5 49.5q-1 5 -15.5 13t-14.5 11q0 8 -23 -4 q-35 -20 -35 -49z" />
<glyph unicode="&#x2019;" horiz-adv-x="237" d="M55 1071.5q3 12.5 9 26t15.5 45t16.5 67.5q13 57 13 58q7 18 -5.5 39t-3.5 47q1 6 16 14.5t15 9.5q0 9 34 -10q2 -1 3 -2q2 -3 5.5 -7.5t5.5 -7.5t4.5 -7t3.5 -8.5t1 -10.5q0 -47 -10 -57q-2 -3 -21.5 -73.5t-25.5 -72.5q-7 -1 -12 -27t-14.5 -46t-28.5 -11 q-15 8 -19.5 14.5t-1.5 19z" />
<glyph unicode="&#x201a;" d="M53 72q-3 12 2 26t17 15q26 6 57 -21q16 -16 27 -45q21 -90 -25 -131q-10 -10 -34.5 -15t-28.5 11q0 14 5 41.5t5 42.5q-1 16 -12 40.5t-13 35.5z" />
<glyph unicode="&#x201c;" horiz-adv-x="573" d="M109.5 1222q-12.5 60 9.5 162q15 54 36 79t58 5q15 -19 20 -34q4 -12 2 -21t-3 -14t-6.5 -8t-8.5 -3.5t-9.5 -1.5t-8.5 -2q-13 -5 -20 -50t-7 -74q-1 -29 5.5 -53.5t16 -39t20.5 -24.5t18 -13.5t8 -3.5q11 0 22 -25q16 -37 -6 -46q-14 -6 -41 4q-2 0 -7 3.5t-5 4.5 q1 2 -15 18q-66 77 -78.5 137zM321.5 1248q-15.5 74 6.5 145q9 28 19 46.5t19 25.5t17 10t16.5 -1.5t13.5 -7.5t11.5 -10t7.5 -8q6 -3 8.5 -19t-6 -32t-28.5 -19q-10 -3 -15.5 -38.5t-5.5 -59.5q0 -39 15 -74t41 -71t28 -39q4 -3 3.5 -18t-7.5 -15q0 -2 -2.5 -5.5t-9 -6.5 t-15.5 0q-31 8 -66 65.5t-50.5 131.5z" />
<glyph unicode="&#x201d;" horiz-adv-x="561" d="M105 1096q2 19 9 33t17 36.5t12 38.5q2 11 8 30.5t9 31t4.5 31t-4.5 30.5q-1 4 -6.5 13t-6.5 14q-5 25 13 56t57 5q5 -5 12.5 -9.5t10.5 -8.5t6 -11q8 -6 0 -53t-13 -61q-43 -166 -68 -212q-4 -7 -7 -9q-5 -5 -19.5 2t-21.5 14q-14 10 -12 29zM293 1055q67 111 92 213 q10 37 5 47.5t-16.5 22t-11.5 24.5q-2 28 25 55q28 10 52 -21t22 -59q0 -36 -12 -82t-25 -80t-53 -135q-11 -30 -31 -31t-34 15.5t-13 30.5z" />
<glyph unicode="&#x201e;" d="M53 72q-3 12 2 26t17 15q26 6 57 -21q16 -16 27 -45q21 -90 -25 -131q-10 -10 -34.5 -15t-28.5 11q0 14 5 41.5t5 42.5q-1 16 -12 40.5t-13 35.5z" />
<glyph unicode="&#x2022;" horiz-adv-x="473" d="M154 635q17 51 79 51q25 0 33 -6l27 -8q2 -2 9 -4t11 -8t9 -21q19 -53 4.5 -87.5t-37.5 -51.5t-45 -17q-49 0 -78 50.5t-12 101.5zM217 605q-1 -29 14 -46q5 -6 9 -4q6 0 12 17.5t3.5 35t-17.5 17.5q-20 4 -21 -20z" />
<glyph unicode="&#x2026;" horiz-adv-x="552" d="M88 111q-15 31 5 48.5t49.5 15.5t37.5 -19q12 -22 -9 -52.5t-50 -17.5q-1 2 -13 7t-20 18zM221 125q0 21 4 29q8 14 23 14q11 4 26 -4q5 -2 11.5 -2.5t9.5 -3.5q26 -11 28 -34t-26 -50q-14 -13 -19.5 -14t-23.5 6q-22 7 -27.5 17.5t-5.5 41.5zM373 106q-8 14 0 31 q5 13 15.5 17t20 4t11.5 2q5 1 8 1t4 -0.5t3.5 -2.5t4.5 -4q3 0 8.5 -2.5t13 -11t11.5 -21.5q0 -14 -14 -33q-6 -12 -17 -14q-17 -7 -30 -3.5t-19.5 9t-12.5 12.5l-5 8q1 1 0.5 2.5t-2.5 5.5z" />
<glyph unicode="&#x202f;" horiz-adv-x="340" />
<glyph unicode="&#x2039;" horiz-adv-x="329" d="M86 494v4.5t1 3.5t3.5 4.5t5.5 6t9.5 9.5t14 14t20 21.5t26.5 28.5q91 112 121 127l6 2q10 0 24 -21q3 0 7 -4t4 -10q0 -8 3 -13q2 -4 -15 -22q-41 -44 -89 -100l-45 -62q15 -15 35 -39l34 -34t13 -14.5t3.5 -4t4.5 -3t16.5 -11.5t39.5 -29q9 -18 0 -24q-2 -2 -2 -5 t-4 -8q-5 -3 -7.5 -7t-4 -4t-13.5 1q-22 0 -42 15.5t-82 78.5l-23 23q0 3 -32 31.5t-32 44.5z" />
<glyph unicode="&#x203a;" horiz-adv-x="309" d="M100.5 723.5q6.5 10.5 16.5 10.5t12 -1q10 0 21 -8t14 -8q3 3 9 -6t18.5 -33t17.5 -33q13 -27 37.5 -56.5t34.5 -35.5q4 0 10 -5.5t6 -8.5q2 -7 6 -13q7 -9 8 -13.5t-2 -16.5q-34 -30 -53 -64q-1 -1 -8.5 -14.5t-14 -25.5t-6.5 -13q-13 -18 -23.5 -48.5t-22.5 -41.5 t-42 -6q-5 0 -22 22q-14 15 -15 26t5 19l6 8q2 0 49 82t47 86q-89 119 -107 170q-8 17 -1.5 27.5z" />
<glyph unicode="&#x205f;" horiz-adv-x="426" />
<glyph unicode="&#x20ac;" horiz-adv-x="335" d="M-13 315q-13 31 5 48q4 5 10 6q8 2 20.5 1t25.5 0.5t15 6.5q8 53 2 55q1 0 -16 -2q-40 -4 -56 36q-13 31 1 46q4 4 10 4q3 0 10.5 3t10.5 3q12 2 25.5 2t16 1.5t7 3.5t3.5 12.5t0 22.5t1.5 39.5t3.5 58.5q0 61 9 120.5t17.5 88t10.5 30.5q5 3 9 24.5t13 24.5 q3 1 13.5 11.5t21.5 18.5t30.5 11.5t39.5 -10.5q39 -21 58 -54.5t15 -61t-26 -36.5q-14 -8 -33 7t-10 30q9 11 0.5 32t-25.5 15q-43 -15 -53 -96q-13 -93 -19.5 -147.5t-6.5 -84.5t4 -39.5t13.5 -12.5t20 -2.5t25.5 -11t29 -36.5q7 -12 -1 -31t-22 -16q-9 2 -61 2 q-13 0 -13 -43q0 -2 -0.5 -6t-0.5 -7t0.5 -6t3 -4.5t6.5 -2.5q3 -1 12 -3.5t12.5 -4t11 -5t11 -7.5t8.5 -11t8 -16q6 -9 5 -29.5t-13 -24.5q-12 -2 -18 -1.5t-18.5 3.5t-18.5 4q-2 0 -6.5 1t-5 0t-2.5 -5.5t-2.5 -14t-0.5 -26.5q0 -60 -3 -76q-1 -7 4 -65q4 -43 7 -76 q11 -53 15 -111q2 -31 7.5 -34t34.5 12q3 1 5 2q6 5 13.5 3.5t11.5 -3.5t11 -7t11 -7q16 -9 16 -53q0 -4 -9.5 -9.5t-23 -10t-14.5 -5.5q-42 -23 -65 -12q-3 1 -12 3.5t-16 5.5t-9 7q-1 6 -14 16.5t-15 14.5q-6 9 -9.5 23t-5.5 27.5t-5.5 42.5t-6.5 52q0 28 -2.5 37.5 t-4.5 15t-1.5 67t6.5 185.5q-55 -3 -72 41z" />
<glyph unicode="&#x2122;" horiz-adv-x="1095" d="M55 1203.5q-1 17.5 19 23.5l397 -17q3 -6 4 -19.5t-14.5 -27.5t-44.5 -14q-26 0 -49.5 2t-34 2t-19.5 2.5t-11 -2.5t-3.5 -7.5t-2.5 -18.5t-3 -29q0 -9 -11.5 -214.5t-27 -426t-23.5 -236.5q-1 -1 -1 -13t1 -13t0 -9t-2.5 -17t-1.5 -11q-17 -85 -10 -133 q3 -22 -19.5 -27.5t-37.5 0.5q-19 3 -24.5 11.5t-4.5 37t8 96.5q43 395 62 908q8 93 6 97q-8 4 -23 3h-7q-80 0 -107 23q-14 12 -15 29.5zM510 29.5q1 16.5 1.5 36.5t2.5 64.5t2 94.5v119.5v137v137.5t1.5 143t4 129t6 120.5t9 93t13 70.5t17.5 31q25 14 61 -17t36 -87 q0 -52 24 -159.5t47.5 -189.5t26.5 -83q5 -3 26.5 59.5t42.5 132.5q22 78 40.5 133t29.5 81t22.5 39.5t15.5 14.5t11 0h6q4 1 6.5 6t3.5 15.5t1 11.5q0 8 10 23.5t18 11.5q4 -2 13.5 -5t13.5 -5l4 -4q3 -4 6 -7t4 -3q7 0 14 -14.5t7 -22.5q1 -2 0.5 -13.5t-1.5 -17 t-4.5 -37.5t-7.5 -74q-6 -100 2.5 -419t-4.5 -463q-3 -41 5 -74q3 -7 4.5 -22t-10 -30t-37.5 -12q-35 0 -48 28.5t-11 86t7.5 143.5t8.5 200.5t-9 258.5q-4 103 -4 210q0 40 -1 42l-5 -10q-1 -5 -4 -18q-35 -139 -86 -265q-18 -41 -24 -63t-2.5 -24t-0.5 -15q0 -3 -4 -11.5 t-4 -11.5q2 -12 -9.5 -28t-23.5 -11q-8 3 -23 7.5t-19.5 7.5t-15.5 14t-16.5 29t-16 52t-21 83t-25.5 121q0 12 -30 91q-5 14 -5 11q-7 -4 -7.5 -232t1.5 -455l2 -228q-10 -16 -20.5 -17.5t-19 5t-9.5 6.5q-1 -1 -4 -3t-5 -3.5t-3 -0.5q-17 11 -22.5 17t-10.5 13.5t-4 24z " />
<glyph unicode="&#x25fc;" horiz-adv-x="1064" d="M0 0v1065h1065v-1065h-1065z" />
</font>
</defs>
</svg>
